<svg xmlns="http://www.w3.org/2000/svg" viewBox="0 0 112.2 111.96"><defs><style>.cls-1{fill:#8368cf;}.cls-2{fill:#081329;}</style></defs><g id="about-me"><circle class="cls-1" cx="56.1" cy="55.98" r="52.14"/><path class="cls-2" d="M26.74,55.75a3.27,3.27,0,0,0-1.92,5.18L23.45,69a1.2,1.2,0,0,0,1.18,1.39h5.59a1.21,1.21,0,0,0,.9-.41,1.19,1.19,0,0,0,.28-.94l-1.16-8.43a3.26,3.26,0,0,0-1.12-4.46V51.78L36.49,55V73.27a4.09,4.09,0,0,0,4.09,4.09H74.2a4.1,4.1,0,0,0,4.09-4.09V53.86l17.54-7.61A1.19,1.19,0,0,0,95.75,44L55.83,30.4a1.19,1.19,0,0,0-.81,0C41.36,35.59,18.92,43.84,16.83,44a1.19,1.19,0,0,0-.46,2.29l10.37,4.5ZM26,68l1.23-7.28a1.2,1.2,0,0,0-.41-1.11.87.87,0,0,1-.32-.68.89.89,0,1,1,1.55.58,1.2,1.2,0,0,0-.28.95l1,7.54ZM75.9,73.27A1.7,1.7,0,0,1,74.2,75H40.58a1.71,1.71,0,0,1-1.71-1.7V56l16.76,7.27a1.15,1.15,0,0,0,.94,0L75.9,54.9ZM20.46,45.42c8.63-2.69,29.35-10.49,35-12.63l36.59,12.5-36,15.6L32.35,50.58l20-2.64a7.25,7.25,0,0,0,3.7.87c2.76,0,4.85-1.1,4.85-2.56s-2.09-2.56-4.85-2.56c-2.38,0-4.26.82-4.73,2L28.1,48.74Zm32,.83c0-.56,1.43-1.37,3.66-1.37s3.66.81,3.66,1.37-1.43,1.37-3.66,1.37S52.44,46.81,52.44,46.25Z"/></g></svg>