<svg xmlns="http://www.w3.org/2000/svg" viewBox="0 0 37.5 35.02"><defs><style>.cls-1{fill:#fff;stroke:#fff;stroke-miterlimit:10;}</style></defs><g id="activo"><path id="Контур_30" data-name="Контур 30" class="cls-1" d="M18.43,22.57H11.54l-1.4,4.6a.35.35,0,0,1-.36.26H6.29c-.2,0-.27-.1-.21-.32L12,9.94c.06-.18.12-.38.18-.61a3.48,3.48,0,0,0,.12-1,.2.2,0,0,1,.16-.21h4.79q.21,0,.24.15l6.78,18.89c.06.2,0,.29-.18.29H20.24a.27.27,0,0,1-.3-.2ZM12.58,19.4h5c-.12-.4-.53-1.32-.69-1.82s-.37-.89-.55-1.45l-.54-1.7c-.18-.57-.34-1.12-.49-1.64s-.29-1-.41-1.45h0a22.07,22.07,0,0,1-.62,2.39c-.28.89-.56,1.81-.85,2.74s-.59,2.13-.86,2.93Z"/><path id="Контур_31" data-name="Контур 31" class="cls-1" d="M28.32,11.21a2.16,2.16,0,0,1-1.64-.65,2.36,2.36,0,0,1-.62-1.7,2.18,2.18,0,0,1,.67-1.66,2.34,2.34,0,0,1,1.65-.64,2.22,2.22,0,0,1,1.68.64,2.32,2.32,0,0,1,.62,1.66,2.34,2.34,0,0,1-.65,1.7A2.26,2.26,0,0,1,28.32,11.21ZM26.39,27.14V13.51q0-.27.24-.27H30c.16,0,.23.09.23.27V27.14c0,.2-.07.3-.23.3H26.66Q26.39,27.44,26.39,27.14Z"/></g></svg>