<svg xmlns="http://www.w3.org/2000/svg" xmlns:xlink="http://www.w3.org/1999/xlink" viewBox="0 0 90.48 51.6"><defs><style>.cls-1{fill:none;}.cls-2{clip-path:url(#clip-path);}.cls-3{fill:#fff;}</style><clipPath id="clip-path"><rect id="SVGID" class="cls-1" x="-677.36" y="-578.14" width="1400" height="393.31"/></clipPath></defs><g id="contacto"><g class="cls-2"><image width="4933" height="3243" transform="translate(-678.04 -778.27) scale(0.28)" xlink:href="_MG_766dd1.png"/></g><path class="cls-3" d="M73.81,40.75c-1.84.35-3.66.74-5.48,1A50.19,50.19,0,0,1,55,42a61.87,61.87,0,0,1-13.9-3.17A65.69,65.69,0,0,1,20.85,27.4a53.27,53.27,0,0,1-10.09-11A45.93,45.93,0,0,1,6.3,8.11a32.65,32.65,0,0,0-1.76-3.3c-.24-.43-.36-.82,0-1.23.08-.08,0-.3,0-.45a2.57,2.57,0,0,1-.11-.75.7.7,0,0,1,.43-.47.66.66,0,0,1,.57.26A4.9,4.9,0,0,1,6,3.28,20.38,20.38,0,0,0,9.9,9.84,59.14,59.14,0,0,0,24.15,22.07a91.11,91.11,0,0,0,13.77,7c3.27,1.35,6.54,2.73,9.87,3.92a49.2,49.2,0,0,0,17.08,3.4,22.87,22.87,0,0,0,8.64-1.71.86.86,0,0,0,.39-.55,27.48,27.48,0,0,1,2.39-6.35.8.8,0,0,1,1.39-.2q4.06,4.35,8.08,8.76c.58.64.52,1-.09,1.54-2.73,2.36-5.45,4.73-8.23,7a18.86,18.86,0,0,1-3.12,1.93,1.43,1.43,0,0,1-1.14-.08c-.18-.1-.24-.61-.2-.91.23-1.55.52-3.1.79-4.65C73.79,41.07,73.8,40.9,73.81,40.75Zm-60-24a.54.54,0,0,0,.08.21,61.67,61.67,0,0,0,6.92,7.44,61,61,0,0,0,14.7,9.8,62.77,62.77,0,0,0,18,5.4,64.83,64.83,0,0,0,19.86-.21c1.26-.21,1.93.45,1.81,1.71s-.16,2.28-.25,3.57a91.2,91.2,0,0,0,9.2-7.53l-6.82-7.4c-.71,1.94-1.37,3.72-2,5.5-.35,1-.89,1.1-1.65.29l-.42.26a12.35,12.35,0,0,1-4.34,1.8,23.53,23.53,0,0,1-7.63.26,63.32,63.32,0,0,1-10.72-2.28,117.6,117.6,0,0,1-18.57-7.22,82.35,82.35,0,0,1-14.27-8.53C16.32,18.83,15.08,17.78,13.78,16.74Z"/></g></svg>