<svg xmlns="http://www.w3.org/2000/svg" viewBox="0 0 50 50"><defs><style>.cls-1{fill:#8368cf;}</style></defs><g id="activo"><path class="cls-1" d="M25,44.81A19.81,19.81,0,1,1,44.81,25,19.84,19.84,0,0,1,25,44.81ZM25,7.33A17.67,17.67,0,1,0,42.67,25,17.68,17.68,0,0,0,25,7.33Z"/><path class="cls-1" d="M32.52,21.74c-5.42,0-5.42,5.39-5.42,5.42a5,5,0,0,0,5.42,5.4s4.36.25,4.79-3.19a.51.51,0,0,0-.5-.57H35.29a.51.51,0,0,0-.48.35c-.13.45-.59,1.17-2.21,1.17a2.28,2.28,0,0,1-2.43-1.88.49.49,0,0,1,.5-.57H37a.51.51,0,0,0,.5-.49C37.51,25.94,37.25,21.74,32.52,21.74ZM30.47,26a.3.3,0,0,1-.28-.39,2.4,2.4,0,0,1,2.38-1.78,2,2,0,0,1,2.12,1.83.29.29,0,0,1-.29.34ZM24,24.72a.21.21,0,0,1,0-.38,2.49,2.49,0,0,0,1.32-2.43c0-2.53-1.76-3.76-4-3.76h-7a.37.37,0,0,0-.37.37V31.89a.37.37,0,0,0,.37.37h7s4.48.14,4.48-4.17C25.74,28.09,25.89,25.36,24,24.72Zm-6.82-3.8a.27.27,0,0,1,.27-.26h3.84s1,0,1,1.47-.58,1.68-1.25,1.68H17.42a.27.27,0,0,1-.27-.27Zm3.9,8.84H17.42a.27.27,0,0,1-.27-.27V26.25a.27.27,0,0,1,.27-.27h3.84s1.49,0,1.48,1.94C22.74,29.57,21.63,29.74,21.05,29.76Zm8.43-11v1.21a.26.26,0,0,0,.27.26H35a.26.26,0,0,0,.27-.26V18.71a.27.27,0,0,0-.27-.26H29.75A.27.27,0,0,0,29.48,18.71Z"/></g></svg>