<svg xmlns="http://www.w3.org/2000/svg" viewBox="0 0 37.03 36.05"><path d="M18.51,35a17,17,0,1,1,17-17A17,17,0,0,1,18.51,35Zm0-32.2A15.19,15.19,0,1,0,33.7,18,15.2,15.2,0,0,0,18.51,2.84Z" style="fill:#fff"/><path d="M25,15.22c-4.65,0-4.65,4.64-4.65,4.66A4.3,4.3,0,0,0,25,24.52s3.75.21,4.12-2.74a.43.43,0,0,0-.43-.49h-1.3a.42.42,0,0,0-.41.3c-.12.39-.52,1-1.91,1A2,2,0,0,1,23,21a.43.43,0,0,1,.43-.49h5.41a.43.43,0,0,0,.43-.42C29.27,18.83,29,15.22,25,15.22Zm-1.76,3.65a.26.26,0,0,1-.24-.33A2.07,2.07,0,0,1,25,17a1.71,1.71,0,0,1,1.82,1.58.25.25,0,0,1-.25.29Zm-5.58-1.08a.18.18,0,0,1,0-.34,2.12,2.12,0,0,0,1.13-2.08c0-2.17-1.51-3.23-3.43-3.23h-6a.32.32,0,0,0-.32.32V24a.32.32,0,0,0,.32.32h6s3.85.11,3.85-3.59C19.15,20.68,19.28,18.33,17.63,17.79Zm-5.86-3.27a.23.23,0,0,1,.23-.23h3.3s.85,0,.85,1.26S15.65,17,15.08,17H12a.23.23,0,0,1-.23-.23Zm3.35,7.59H12a.23.23,0,0,1-.23-.23V19.1a.23.23,0,0,1,.23-.23h3.3s1.28,0,1.27,1.67C16.57,22,15.62,22.1,15.12,22.11Zm7.24-9.49v1a.24.24,0,0,0,.23.23h4.55a.23.23,0,0,0,.23-.23v-1a.23.23,0,0,0-.23-.23H22.59A.24.24,0,0,0,22.36,12.62Z" style="fill:#fff"/></svg>