<svg xmlns="http://www.w3.org/2000/svg" viewBox="0 0 112.2 111.96"><defs><style>.cls-1{fill:#8368cf;}.cls-2{fill:#081329;}</style></defs><g id="about-me"><circle class="cls-1" cx="56.1" cy="55.98" r="52.14"/><path class="cls-2" d="M33.87,32.67V83.12a7.29,7.29,0,0,0,7.44,7.12H74.13c4.1,0,7.44-2.94,7.44-6.56V38a6.3,6.3,0,0,0-2.86-5.18v-.19a7.3,7.3,0,0,0-7.44-7.13h-30A7.3,7.3,0,0,0,33.87,32.67Zm2.38,0a4.92,4.92,0,0,1,5.06-4.75h30a4.92,4.92,0,0,1,5.06,4.75v.86a1.19,1.19,0,0,0,.61,1A4,4,0,0,1,79.19,38V83.68c0,2.31-2.27,4.18-5.06,4.18H41.31a4.91,4.91,0,0,1-5.06-4.74Z"/><path class="cls-2" d="M42,36.22a1.15,1.15,0,0,0,.75.27h5.85V56.4a1.17,1.17,0,0,0,.72,1.09,1.1,1.1,0,0,0,.47.1,1.17,1.17,0,0,0,.82-.33l4.93-4.7,5.17,4.72a1.18,1.18,0,0,0,1.28.21,1.2,1.2,0,0,0,.71-1.09V36.49H74.31a1.17,1.17,0,0,0,1.09-.72,4.94,4.94,0,0,0,0-4,4.3,4.3,0,0,0-3.17-2.11.93.93,0,0,0-.23,0H42.59c-.25.05-2.41.48-2.87,2.22C39.2,33.88,41.34,35.64,42,36.22Zm.88-4.16H71.84a2.07,2.07,0,0,1,1.42.86,2,2,0,0,1,.14,1.19H61.55a1.19,1.19,0,0,0-1.19,1.19V53.7l-4-3.65a1.19,1.19,0,0,0-.8-.31,1.17,1.17,0,0,0-.82.33L51,53.62V35.3a1.19,1.19,0,0,0-1.19-1.19h-6.6C42,33,42,32.53,42,32.53A1.68,1.68,0,0,1,42.92,32.06Z"/><path class="cls-2" d="M53.15,45.31l-.28,1.63a.58.58,0,0,0,.24.58.61.61,0,0,0,.35.11.52.52,0,0,0,.27-.07l1.47-.76,1.46.76a.6.6,0,0,0,.63,0,.59.59,0,0,0,.23-.58l-.28-1.63,1.19-1.15a.6.6,0,0,0,.15-.61.59.59,0,0,0-.48-.41l-1.64-.24-.73-1.48a.6.6,0,0,0-1.07,0l-.73,1.48-1.63.24a.58.58,0,0,0-.48.41.6.6,0,0,0,.15.61ZM54.41,44a.58.58,0,0,0,.45-.33L55.2,43l.33.68A.61.61,0,0,0,56,44l.75.11-.54.52a.62.62,0,0,0-.17.53l.13.75-.67-.35a.58.58,0,0,0-.28-.07.55.55,0,0,0-.28.07l-.67.35.13-.75a.62.62,0,0,0-.17-.53l-.55-.52Z"/></g></svg>