<svg xmlns="http://www.w3.org/2000/svg" viewBox="0 0 112.2 111.96"><defs><style>.cls-1{fill:#8368cf;}.cls-2{fill:#081329;}</style></defs><g id="about-me"><circle class="cls-1" cx="56.1" cy="55.98" r="52.14"/><path class="cls-2" d="M68.41,85.29a.94.94,0,0,1-.81,1L53.44,88.5a1,1,0,0,1-1.09-.76l-.2-1.3a1,1,0,0,1,.81-1l14.17-2.16a.93.93,0,0,1,1.08.76Z"/><path class="cls-2" d="M67.54,90a.86.86,0,0,1-.63,1L55.49,92.76a.85.85,0,0,1-.9-.79l-.2-1.29a.87.87,0,0,1,.63-1l11.42-1.74a.86.86,0,0,1,.9.79Z"/><path class="cls-2" d="M64.43,92.69a3.07,3.07,0,0,1-6.07.93"/><path class="cls-2" d="M68.5,80.6,51.15,83.25a2.26,2.26,0,0,1-2.35-2.16A2.91,2.91,0,0,1,49,79.47c-1.08-4.16-4.37-7.41-6.79-9.8a27.06,27.06,0,0,1-2.37-2.51,21.54,21.54,0,0,1-4.2-18.59,21,21,0,0,1,3.3-7.23,20.21,20.21,0,0,1,5.72-5.42,19.84,19.84,0,0,1,15.68-2.39A20.37,20.37,0,0,1,67.4,37a21,21,0,0,1,5.31,5.92,21.62,21.62,0,0,1,3,13.11,21,21,0,0,1-.73,3.86H75l-.45,1.16c-.11.28-.21.57-.32.85A28.37,28.37,0,0,1,72.73,65c-1.57,2.92-3.7,6.87-3.58,11.12a2.83,2.83,0,0,1,.8,1.75C70.21,79.56,69.41,80.46,68.5,80.6ZM51,81.08l16.82-2.56a1.47,1.47,0,0,0,0-.33,1.27,1.27,0,0,0-.1-.41l-.63-.1L67,76.83c-.38-5.08,2-9.58,3.8-12.86a25.42,25.42,0,0,0,1.39-2.82v0c.11-.26.21-.53.3-.79v0a19.19,19.19,0,0,0-6.43-21.6,18.27,18.27,0,0,0-6.32-3.1,17.71,17.71,0,0,0-14,2.13,18,18,0,0,0-5.11,4.85,18.67,18.67,0,0,0-3,6.49,19.34,19.34,0,0,0,3.78,16.73l0,0a26.17,26.17,0,0,0,2.18,2.31c2.69,2.65,6.38,6.29,7.48,11.27l.12.52-.34.4a.72.72,0,0,0,0,.43A1,1,0,0,0,51,81.08Z"/><path class="cls-2" d="M51.43,27.75a1.08,1.08,0,0,1-1.23-.9l-1.32-8.63A1.08,1.08,0,0,1,49.79,17a1.07,1.07,0,0,1,1.22.9l1.32,8.63A1.08,1.08,0,0,1,51.43,27.75Z"/><path class="cls-2" d="M88.74,47.77l-8.63,1.31A1.08,1.08,0,1,1,79.78,47l8.64-1.31a1.08,1.08,0,0,1,.32,2.13Z"/><path class="cls-2" d="M30.44,56.65,21.81,58a1.08,1.08,0,1,1-.33-2.13l8.63-1.32a1.09,1.09,0,0,1,1.23.91A1.07,1.07,0,0,1,30.44,56.65Z"/><path class="cls-2" d="M69.7,30a1.12,1.12,0,0,1-.73-.15,1.07,1.07,0,0,1-.35-1.48L73.2,21A1.08,1.08,0,1,1,75,22.1l-4.59,7.43A1.08,1.08,0,0,1,69.7,30Z"/><path class="cls-2" d="M34.44,35.4a1.12,1.12,0,0,1-.87-.25L27,29.42a1.08,1.08,0,0,1,1.42-1.63L35,33.52a1.08,1.08,0,0,1,.1,1.52A1.06,1.06,0,0,1,34.44,35.4Z"/></g></svg>