<svg xmlns="http://www.w3.org/2000/svg" viewBox="0 0 37.5 40.47"><defs><style>.cls-1{fill:none;stroke:#fff;stroke-miterlimit:10;}.cls-2{fill:#fff;}</style></defs><g id="desing"><path class="cls-1" d="M31.39,9H6.22A1.13,1.13,0,0,1,6,9c-.16,0-.19.07-.17.2s0,.3,0,.44L6.22,14c.16,1.92.34,3.84.51,5.77.15,1.6.28,3.2.43,4.8l.51,5.65c.14,1.66.29,3.33.44,5,0,.3,0,.3.3.38,3.29.91,6.57,1.81,9.85,2.73a1.54,1.54,0,0,0,.95,0l9.91-2.74c.26-.07.25-.08.28-.33.06-.74.12-1.47.2-2.21.1-1.23.22-2.47.33-3.71.08-1,.17-1.94.26-2.91.1-1.24.22-2.49.33-3.74.08-1,.17-1.92.26-2.88.1-1.23.22-2.46.33-3.68.08-1,.17-2,.26-2.94.11-1.28.23-2.55.33-3.83C31.73,9,31.73,9,31.39,9Z"/><path class="cls-2" d="M23.61,3.3l1.16,1.27c.21.23.42.47.64.69a.41.41,0,0,1,.14.34c0,.28,0,.55,0,.83s0,.23-.23.23H21.57c-.15,0-.22,0-.21-.2s0-.57,0-.85.07-.2.21-.19h1.74c0-.11-.06-.15-.11-.2-.56-.59-1.13-1.19-1.7-1.77a.44.44,0,0,1-.14-.34c0-.26,0-.53,0-.8s0-.23.25-.23h3.64c.35,0,.3,0,.3.3s0,.5,0,.74-.05.18-.19.18H23.61Z"/><path class="cls-2" d="M18.33,5.36,17,4l-.51-.54a.35.35,0,0,1-.11-.26c0-.29,0-.59,0-.88s0-.2.22-.2h3.76c.16,0,.21.05.2.21s0,.57,0,.86c0,.12,0,.16-.17.16H18.64a1.38,1.38,0,0,0,.29.36l1.44,1.57a.54.54,0,0,1,.18.44c0,.25,0,.51,0,.77s0,.22-.24.22H16.56c-.17,0-.2-.06-.2-.2s0-.55,0-.83,0-.21.2-.21h1.74Z"/><path class="cls-2" d="M12,4.37V2.3c0-.22,0-.22.23-.22h3.22c.22,0,.22,0,.23.21s0,.67,0,1c0,.15-.05.18-.19.18H13.74c-.22,0-.24,0-.24.24,0,.46,0,.91,0,1.36,0,.15.05.19.19.19H15.4c.24,0,.24,0,.25.25s0,.65,0,1c0,.14,0,.19-.19.19H12.15c-.18,0-.18-.08-.18-.22Z"/><path class="cls-2" d="M27,14.53a6.9,6.9,0,0,1-.06,1,16.56,16.56,0,0,1-.2,1.89.23.23,0,0,1-.12.12.6.6,0,0,0-.11.06h0c-.49.23-1,.44-1.5.67-1.36.58-2.71,1.2-4.07,1.76l-.06,0-.07,0-.17.08c-.38.15-.76.32-1.13.5-.08,0-.16.08-.15.17s.12.09.2.1A3.2,3.2,0,0,0,20,21c2,0,4.06,0,6.09,0,.37,0,.38,0,.35.35q-.13,1.67-.3,3.33c-.16,1.88-.34,3.76-.49,5.65,0,.49-.06.49-.54.63-2,.55-4,1.09-5.95,1.66a.2.2,0,0,0-.09.05l0,0a.13.13,0,0,0-.05.06l-3.15-.89-3.22-.89c-.29-.08-.28-.08-.31-.38-.13-1.51-.26-3-.4-4.53,0-.26,0-.28.23-.28h2.78c.23,0,.24,0,.27.25.06.7.13,1.41.19,2.11,0,.16,0,.25.21.29l3.23.86a.5.5,0,0,0,.17,0h.18l1.08-.3,2.17-.58a.27.27,0,0,0,.23-.25V28c.08-.84.15-1.69.23-2.53,0-.38,0-.76.1-1.14,0-.15,0-.2-.18-.2H19a0,0,0,0,1-.05,0h-7.1c-.12,0-.16-.06-.17-.18l-.24-2.85c0-.08-.06-.18.05-.24l1.18-.52L16,19l.17,0,2.48-1.07.36-.13c0-.07.14-.06.18-.14l-.18,0-.32,0H11.55a1.92,1.92,0,0,0-.24,0c-.16,0-.2-.06-.21-.21l-.24-2.74c0-.36,0-.32.29-.32H19a.12.12,0,0,0,.05.05h0s0,0,.05,0a1.46,1.46,0,0,0,.3,0h7.27C26.77,14.39,26.93,14.34,27,14.53Z"/></g></svg>