<svg xmlns="http://www.w3.org/2000/svg" viewBox="0 0 37.5 35.02"><defs><style>.cls-1{fill:#fff;}</style></defs><g id="activo"><path class="cls-1" d="M12.42,23.17a5.69,5.69,0,0,1-.05-11.31.38.38,0,0,0,.13,0,.49.49,0,0,1,.42-.12h5.45a1,1,0,0,1,.34.05.22.22,0,0,1,.1.09,1.26,1.26,0,0,1,.07.58c0,1.44,0,2.88,0,4.32,0,.38,0,.76,0,1.15a.51.51,0,0,1-.1.39v4.94a.6.6,0,0,1-.45.11c-1.76,0-3.51,0-5.27,0A.83.83,0,0,1,12.42,23.17Z"/><path class="cls-1" d="M18.75,11.81H12.5A5.61,5.61,0,0,1,7.85,8.41,5.69,5.69,0,0,1,12.21.49a3,3,0,0,1,.42,0,.31.31,0,0,1,.13,0h5.88a.31.31,0,0,1,.13,0h0a.68.68,0,0,1,.11.46v10.4C18.88,11.5,18.91,11.68,18.75,11.81Z"/><path class="cls-1" d="M18.75,11.81c0-.15,0-.3,0-.45q0-5.44,0-10.89c2.14,0,4.28-.14,6.4,0A5.52,5.52,0,0,1,30,5a5.69,5.69,0,0,1-4.67,6.81l-.34.06a2.69,2.69,0,0,1-1.13.1H19.31a1,1,0,0,1-.54-.09Z"/><path class="cls-1" d="M12.42,23.17c2.12.13,4.23,0,6.34,0,0,2.08.07,4.17,0,6.25a5.65,5.65,0,0,1-4.46,5A5.72,5.72,0,1,1,12,23.28Z"/><path class="cls-1" d="M23.9,11.83H25a8.43,8.43,0,0,1,1.57.41,5.7,5.7,0,1,1-7.77,6.17.67.67,0,0,0-.06-.12V16.76a5.08,5.08,0,0,1,1.66-3.41A4.92,4.92,0,0,1,23.9,11.83Z"/><path class="cls-1" d="M18.77.47H12.63c.08-.07.17,0,.26,0h5.62C18.6.42,18.69.39,18.77.47Z"/></g></svg>