<svg xmlns="http://www.w3.org/2000/svg" viewBox="0 0 89.88 86.76"><defs><style>.cls-1{fill:#fff;}</style></defs><g id="footer"><path class="cls-1" d="M53.89,63.37c.75-.16,1.53-.31,2.3-.5a28.5,28.5,0,0,0,10-4.25A18.46,18.46,0,0,0,74,46.9a22.78,22.78,0,0,0,.35-6.49,22.59,22.59,0,0,0-1.69-7.2,18.81,18.81,0,0,0-3.5-5.42l-.13-.14a13.8,13.8,0,0,0,.14-10.81,15.21,15.21,0,0,0-.91-1.62.44.44,0,0,0-.44-.21,16.7,16.7,0,0,0-9.43,3.12,36.08,36.08,0,0,0-2.77,2.34.34.34,0,0,1-.39.1A27.44,27.44,0,0,0,48,19.22a41,41,0,0,0-6.65.05,26.61,26.61,0,0,0-6.71,1.38.3.3,0,0,1-.39-.09,17.38,17.38,0,0,0-9.42-5.25A26.3,26.3,0,0,0,22,15a.55.55,0,0,0-.39.2,9.74,9.74,0,0,0-1.75,4.44,13.48,13.48,0,0,0,.51,6.4,18,18,0,0,0,.76,1.71c-.28.32-.62.67-.93,1.05a20,20,0,0,0-4.5,10.27,22.17,22.17,0,0,0,.56,9.41,18.39,18.39,0,0,0,7.13,9.87,27.33,27.33,0,0,0,9.33,4.25c1.11.28,2.23.52,3.33.78-.18.51-.39,1-.53,1.55a14.65,14.65,0,0,0-.39,3.73.51.51,0,0,1-.43.59,12.28,12.28,0,0,1-4.89.47,11,11,0,0,1-4.53-1.42,9,9,0,0,1-3.11-3,8.77,8.77,0,0,0-5.47-4.08,4.49,4.49,0,0,0-2.33,0,2.45,2.45,0,0,0-.45.17.53.53,0,0,0-.24.78,4.41,4.41,0,0,0,.5.64,3,3,0,0,0,.55.47,12.27,12.27,0,0,1,4.15,5.17,17,17,0,0,0,1.47,2.84,12,12,0,0,0,7.74,4.68A18.06,18.06,0,0,0,35,75.69l.16,0v5.58a3.71,3.71,0,0,1-1.34,2.91,2.56,2.56,0,0,1-2.68.54A42.45,42.45,0,0,1,7.9,65.48,41.08,41.08,0,0,1,2.84,51,42.52,42.52,0,0,1,9.7,20.53,42.64,42.64,0,0,1,48.51,2,42.67,42.67,0,0,1,85.93,32.78a42.53,42.53,0,0,1-6.54,36.71A41.64,41.64,0,0,1,64.11,82.43c-1.68.84-3.44,1.49-5.17,2.21a2.77,2.77,0,0,1-3.4-1.08,3.94,3.94,0,0,1-.77-2.35q0-6.39,0-12.78a13.87,13.87,0,0,0-.32-3.52C54.31,64.39,54.08,63.9,53.89,63.37Z"/></g></svg>