<svg xmlns="http://www.w3.org/2000/svg" viewBox="0 0 37.5 40.47"><defs><style>.cls-1{fill:none;stroke:#fff;stroke-miterlimit:10;}.cls-2{fill:#fff;}</style></defs><g id="desing"><path class="cls-1" d="M31.36,9.14H6.22c-.45,0-.46,0-.42.46.13,1.46.27,2.92.4,4.38.14,1.66.29,3.32.44,5,.18,2.11.38,4.23.57,6.33.14,1.65.28,3.3.43,4.95s.3,3.39.46,5.09c0,.36,0,.29.32.38l10.07,2.8a.9.9,0,0,0,.46,0l6.89-1.9,3.27-.91c.25-.07.25-.07.28-.34s0-.31,0-.47c.12-1.23.23-2.45.34-3.68.09-1,.17-2,.26-2.94.12-1.4.25-2.78.38-4.18s.25-2.92.38-4.39q.25-2.79.5-5.58c.15-1.54.28-3.07.41-4.59C31.74,9.07,31.74,9.14,31.36,9.14Z"/><path class="cls-2" d="M21.41,3.45c.28-.46.54-.87.79-1.3a.36.36,0,0,1,.37-.21c.35,0,.7,0,1.06,0s.25,0,.25.26V5.69c0,.16,0,.32,0,.47s-.05.15-.16.15H22.57c-.14,0-.16-.06-.16-.18V4.2c-.22.27-.36.53-.52.76l-.5.77-.95-1.46c-.09.05-.05.13-.06.19V6.08c0,.23,0,.23-.22.23h-1c-.13,0-.19,0-.19-.18s0-.48,0-.71V2.2c0-.26,0-.26.24-.26s.73,0,1.1,0a.28.28,0,0,1,.3.17c.24.41.49.81.74,1.21Z"/><path class="cls-2" d="M13.66,4.15V6.08c0,.23,0,.23-.25.23h-1c-.15,0-.21,0-.2-.2,0-.35,0-.71,0-1.06,0-.15,0-.22-.19-.21-.32,0-.64,0-1,0-.15,0-.18.06-.18.19V6.11c0,.14,0,.21-.19.21a9.91,9.91,0,0,0-1.09,0c-.18,0-.19-.07-.19-.21,0-.29,0-.57,0-.86V2.18c0-.27,0-.24.24-.24h1c.26,0,.25,0,.25.26v1c0,.12,0,.18.16.17h1c.11,0,.15,0,.15-.15V2.11c0-.13,0-.17.17-.17.37,0,.75,0,1.12,0,.17,0,.19.06.19.2Z"/><path class="cls-2" d="M16.3,1.94h1.8c.15,0,.22,0,.21.19,0,.35,0,.71,0,1.06s0,.21-.23.21h-.76c-.33,0-.29,0-.29.28V6a1.08,1.08,0,0,0,0,.18q0,.16-.15.15H15.72c-.13,0-.16-.05-.16-.18V3.63c0-.25,0-.23-.25-.23h-.82c-.15,0-.22,0-.21-.19,0-.37,0-.73,0-1.09,0-.16.05-.18.19-.18Z"/><path class="cls-2" d="M24.58,6.31V2.08c0-.09,0-.14.13-.14h1.21c.13,0,.14.07.14.17V3.59c0,.34,0,.69,0,1s0,.23.22.23h1.54c.31,0,.28,0,.28.3v1c0,.1,0,.17-.14.16Z"/><path class="cls-2" d="M26.82,14.64c0,.93-.14,1.86-.23,2.79a.18.18,0,0,1-.18.16,2.14,2.14,0,0,1-.36,0H19.37a1.13,1.13,0,0,0-.52.06s0,0,0,0h0s0,0,0,0l-4.37,0c-.13,0-.19,0-.17.18a1.77,1.77,0,0,1,0,.23c.09.9.17,1.8.25,2.7,0,.22,0,.22.26.22h2.84l1.18,0s0,0,0,0a.25.25,0,0,0,.13,0h0a1.82,1.82,0,0,0,.33,0h6.49c.14,0,.28,0,.4,0h0c.12.15.07.32.06.49-.1,1.08-.19,2.17-.29,3.26-.18,1.87-.32,3.74-.51,5.61-.05.42-.06.43-.45.54l-6,1.67h0l-.07,0a.27.27,0,0,0-.11.1l-2.1-.6L12.4,31.07c-.25-.07-.24-.08-.27-.34q-.18-2.14-.39-4.29c-.05-.56-.06-.56.52-.56h2.45c.25,0,.26,0,.28.24l.18,2c0,.33,0,.33.34.42l3.3.89,0,0c.06,0,.11,0,.14,0H19c1-.24,2-.56,3-.8a.61.61,0,0,0,.5-.63c.09-1.11.19-2.24.3-3.35,0-.44,0-.53-.48-.53H19.22a.61.61,0,0,0-.35.06l0,0h0a.62.62,0,0,1-.23,0H11.81c-.09,0-.18,0-.26,0-.07-.75-.13-1.5-.2-2.26l-.21-2.35c-.1-1-.19-2.08-.28-3.12l-.18-2c.11-.08.23,0,.34,0h7.81l.1.07a1,1,0,0,0,.34,0h7.17c.12,0,.25,0,.34.06Z"/></g></svg>