<svg xmlns="http://www.w3.org/2000/svg" viewBox="0 0 50 50"><defs><style>.cls-1{fill:#8368cf;}</style></defs><g id="activo"><path class="cls-1" d="M25,44.71A19.71,19.71,0,1,1,44.71,25,19.73,19.73,0,0,1,25,44.71ZM25,7.16A17.84,17.84,0,1,0,42.84,25,17.86,17.86,0,0,0,25,7.16ZM31.65,17a1.46,1.46,0,1,0,1.45,1.46A1.46,1.46,0,0,0,31.65,17Zm-6.49,1.87A6.13,6.13,0,1,0,31.29,25,6.13,6.13,0,0,0,25.16,18.87Zm0,10.05A3.92,3.92,0,1,1,29.09,25,3.93,3.93,0,0,1,25.16,28.92Zm12.36-9a7.46,7.46,0,0,0-7.47-7.47H20.19a7.46,7.46,0,0,0-7.47,7.47v9.86a7.46,7.46,0,0,0,7.47,7.47h9.86a7.46,7.46,0,0,0,7.47-7.47Zm-2.34,9.86a5.12,5.12,0,0,1-5.13,5.13H20.19a5.12,5.12,0,0,1-5.13-5.13V19.91a5.12,5.12,0,0,1,5.13-5.13h9.86a5.12,5.12,0,0,1,5.13,5.13Z"/></g></svg>