<svg xmlns="http://www.w3.org/2000/svg" viewBox="0 0 37.5 40.47"><defs><style>.cls-1{fill:none;stroke:#fff;stroke-miterlimit:10;}.cls-2{fill:#fff;}</style></defs><g id="desing"><path class="cls-1" d="M18.76,9h12.6c.38,0,.37,0,.34.39-.09,1-.17,1.94-.26,2.91s-.18,2-.27,3c-.06.76-.13,1.52-.2,2.27l-.21,2.3c-.07.78-.13,1.57-.2,2.35l-.27,3c-.07.75-.13,1.49-.2,2.24s-.15,1.61-.22,2.41-.13,1.55-.2,2.33c-.09,1-.2,2-.28,3.08a.27.27,0,0,1-.25.29l-5.89,1.63L19,38.35a.9.9,0,0,1-.54,0L9.81,36l-1.4-.38c-.26-.07-.27-.07-.29-.35-.08-.83-.15-1.66-.23-2.5l-.27-2.91c-.07-.75-.13-1.49-.19-2.24-.1-1-.19-2.06-.28-3.09C7.08,23.76,7,23,7,22.31c-.1-1-.2-2.1-.29-3.15-.06-.71-.12-1.42-.19-2.12-.11-1.29-.23-2.57-.34-3.86-.09-.95-.17-1.9-.25-2.85,0-.37-.06-.75-.1-1.12,0-.14,0-.21.16-.2H18.76Z"/><path class="cls-2" d="M21.11,3.29l.43.48c.45.49.9,1,1.36,1.48a.41.41,0,0,1,.14.36c0,.29,0,.57,0,.86s-.05.18-.18.18c-.41,0-.81,0-1.22,0H19.07c-.21,0-.21,0-.22-.21V5.67c0-.26,0-.26.25-.26h1.71c0-.1,0-.13-.09-.18L19,3.42a.34.34,0,0,1-.13-.25c0-.32,0-.63,0-.95,0-.11,0-.16.16-.15h3.87c.11,0,.16,0,.16.14v1c0,.11-.05.13-.14.13H21.11Z"/><path class="cls-2" d="M18.15,4.37v2c0,.23,0,.24-.22.24H14.68c-.2,0-.21,0-.21-.22,0-.43,0-.86,0-1.3,0-.13,0-.19.17-.19h1.22c.11,0,.16,0,.15.15s0,.17.14.15h0c.42,0,.42,0,.42-.38V2.29c0-.22,0-.22.21-.22H17.9c.25,0,.25,0,.25.27Z"/><path class="cls-2" d="M17.92,32.61l-1.3-.35L12.21,31C12,31,12,31,11.93,30.7c-.11-1.24-.21-2.47-.32-3.71,0-.29-.06-.59-.09-.88s0-.27.22-.27H14c.2,0,.2,0,.22.22.06.69.11,1.39.17,2.09,0,.23,0,.23.24.29l.58.14c.17,0,.19,0,.18-.15,0-.41,0-.83,0-1.24l-.09-3-.12-3.43c0-1.21-.08-2.42-.13-3.63,0-.77-.06-1.53-.09-2.3v-.3c0-.07,0-.1.11-.11h2.66c.26,0,.26,0,.26.27s0,.53,0,.79V32.61Z"/><path class="cls-2" d="M19.33,19.35V14.56c0-.1.05-.15.14-.15H26.6c.14,0,.17.06.16.18l-.06.68c-.06.65-.12,1.31-.17,2,0,.42,0,.42-.46.42H22.75a.13.13,0,0,0-.14.14v3c0,.22,0,.22.25.22H26c.21,0,.22,0,.21.22,0,.47-.08.94-.13,1.41l-.15,1.68c-.08.79-.15,1.59-.22,2.38s-.13,1.45-.19,2.18-.13,1.27-.17,1.91c0,.18-.09.23-.24.27l-2.73.76-2.7.74-.18,0c-.08,0-.13,0-.13-.11V29.54c0-.31,0-.31.31-.39L22,28.5c.16,0,.23-.1.24-.27.08-1,.16-2,.25-2.94,0-.3,0-.61.08-.91,0-.11,0-.14-.12-.14H19.64c-.31,0-.31,0-.31-.31Z"/></g></svg>