<svg xmlns="http://www.w3.org/2000/svg" viewBox="0 0 36 35.23"><defs><style>.cls-1{fill:#fff;}</style></defs><g id="home"><path class="cls-1" d="M18,34.62a17,17,0,1,1,17-17A17,17,0,0,1,18,34.62ZM18,2.44A15.18,15.18,0,1,0,33.17,17.62,15.19,15.19,0,0,0,18,2.44Z"/><path class="cls-1" d="M27.61,18.91v6.35a.27.27,0,0,1-.28.28H24.05a.27.27,0,0,1-.28-.28v-5.9c0-1.56-.56-2.62-1.95-2.62a2.11,2.11,0,0,0-2,1.41,2.61,2.61,0,0,0-.13.93v6.18a.28.28,0,0,1-.28.28H16.16a.27.27,0,0,1-.28-.28c0-1.57,0-9.2,0-11a.29.29,0,0,1,.29-.29h3.27a.29.29,0,0,1,.28.28v1.36l0,0h0v0a3.81,3.81,0,0,1,3.47-1.91c2.53,0,4.42,1.65,4.42,5.2ZM10.19,25.54h3.27a.28.28,0,0,0,.29-.28v-11a.29.29,0,0,0-.29-.28H10.19a.29.29,0,0,0-.29.28v11A.28.28,0,0,0,10.19,25.54Z"/><circle class="cls-1" cx="11.71" cy="10.45" r="2.06"/></g></svg>