<svg xmlns="http://www.w3.org/2000/svg" viewBox="0 0 50 50"><defs><style>.cls-1{fill:#8368cf;}</style></defs><g id="activo"><path class="cls-1" d="M25,44.81A19.81,19.81,0,1,1,44.81,25,19.84,19.84,0,0,1,25,44.81ZM25,7.33A17.67,17.67,0,1,0,42.67,25,17.68,17.68,0,0,0,25,7.33Z"/><path class="cls-1" d="M36.2,26.51V33.9a.33.33,0,0,1-.33.33H32.05a.33.33,0,0,1-.33-.33V27c0-1.81-.65-3.05-2.27-3.05a2.45,2.45,0,0,0-2.3,1.64A3,3,0,0,0,27,26.71V33.9a.33.33,0,0,1-.33.33H22.86a.33.33,0,0,1-.34-.33c0-1.83.05-10.71,0-12.8a.34.34,0,0,1,.33-.34h3.81a.33.33,0,0,1,.33.33v1.58l0,0h0v0a4.45,4.45,0,0,1,4-2.22c3,0,5.16,1.92,5.16,6.06ZM15.9,34.23h3.82a.33.33,0,0,0,.33-.33V21.09a.33.33,0,0,0-.33-.33H15.9a.33.33,0,0,0-.33.33V33.9A.33.33,0,0,0,15.9,34.23Z"/><circle class="cls-1" cx="17.67" cy="16.65" r="2.4"/></g></svg>