<svg xmlns="http://www.w3.org/2000/svg" viewBox="0 0 37.03 36.05"><path d="M18.51,35a17,17,0,1,1,17-17A17,17,0,0,1,18.51,35Zm0-32.2A15.19,15.19,0,1,0,33.7,18,15.2,15.2,0,0,0,18.51,2.84Z" style="fill:#fff"/><path d="M28.13,19.32v6.36a.28.28,0,0,1-.28.28H24.57a.28.28,0,0,1-.28-.28V19.77c0-1.56-.56-2.62-1.95-2.62a2.1,2.1,0,0,0-2,1.41,2.61,2.61,0,0,0-.13.93v6.18A.28.28,0,0,1,20,26H16.67a.28.28,0,0,1-.28-.29c0-1.57,0-9.2,0-11a.29.29,0,0,1,.29-.29H20a.28.28,0,0,1,.28.29V16a.05.05,0,0,1,0,0h0v0a3.85,3.85,0,0,1,3.47-1.91c2.54,0,4.43,1.66,4.43,5.21ZM10.69,26H14a.29.29,0,0,0,.29-.28v-11a.29.29,0,0,0-.29-.29H10.69a.29.29,0,0,0-.28.29v11A.29.29,0,0,0,10.69,26Z" style="fill:#fff"/><circle cx="12.22" cy="10.85" r="2.06" style="fill:#fff"/></svg>