<svg xmlns="http://www.w3.org/2000/svg" viewBox="0 0 37.5 35.02"><defs><style>.cls-1{fill:#fff;stroke:#fff;stroke-miterlimit:10;}</style></defs><g id="activo"><path id="Контур_44" data-name="Контур 44" class="cls-1" d="M5.51,26.91v-19q0-.21.18-.21H6.82l1.41,0,1.61,0,1.69,0a11.22,11.22,0,0,1,3.81.57,6.54,6.54,0,0,1,2.49,1.52,5.86,5.86,0,0,1,1.36,2.1,6.77,6.77,0,0,1,.41,2.4,6.61,6.61,0,0,1-1.1,3.93,6.17,6.17,0,0,1-3,2.25,11.86,11.86,0,0,1-4.17.7h-.92l-.81,0v5.87a.24.24,0,0,1-.2.27.08.08,0,0,1-.07,0H5.72Q5.51,27.15,5.51,26.91ZM9.62,11.24v6.17l.71,0h1a7,7,0,0,0,2.13-.3,3.29,3.29,0,0,0,1.52-1,2.87,2.87,0,0,0,.58-1.91,3,3,0,0,0-.43-1.64,2.81,2.81,0,0,0-1.3-1.06,5.54,5.54,0,0,0-2.17-.37H10.38A7.32,7.32,0,0,0,9.62,11.24Z"/><path id="Контур_45" data-name="Контур 45" class="cls-1" d="M31.2,16.21a10.69,10.69,0,0,0-2.14-.62A9.07,9.07,0,0,0,27,15.35a4.19,4.19,0,0,0-1.12.13,1,1,0,0,0-.58.38.89.89,0,0,0-.15.5.75.75,0,0,0,.18.48,2,2,0,0,0,.62.49,11.89,11.89,0,0,0,1.31.61A13.09,13.09,0,0,1,30.1,19.3a4.28,4.28,0,0,1,1.46,1.53A4,4,0,0,1,32,22.74a4.28,4.28,0,0,1-.71,2.46,4.71,4.71,0,0,1-2.07,1.65,8.4,8.4,0,0,1-3.36.6,11.74,11.74,0,0,1-2.51-.24,9.37,9.37,0,0,1-2-.59.41.41,0,0,1-.21-.36V23a.19.19,0,0,1,.08-.16.13.13,0,0,1,.16,0,8.74,8.74,0,0,0,2.42.91,9.36,9.36,0,0,0,2.17.28,3.37,3.37,0,0,0,1.54-.27A.82.82,0,0,0,28,23a1,1,0,0,0-.44-.75,7.39,7.39,0,0,0-1.82-.86,11.12,11.12,0,0,1-2.64-1.34,4.59,4.59,0,0,1-1.4-1.57,4.09,4.09,0,0,1-.43-1.89,4.17,4.17,0,0,1,.62-2.23,4.44,4.44,0,0,1,1.94-1.7,6.09,6.09,0,0,1,3-.76,19.27,19.27,0,0,1,2.52,0,8.38,8.38,0,0,1,2,.66.24.24,0,0,1,.18.16.83.83,0,0,1,0,.22v3a.17.17,0,0,1-.09.17.17.17,0,0,1-.21,0Z"/></g></svg>