<svg xmlns="http://www.w3.org/2000/svg" viewBox="0 0 50 50"><defs><style>.cls-1,.cls-2{fill:#8368cf;}.cls-2{fill-rule:evenodd;}</style></defs><g id="activo"><path class="cls-1" d="M25,44.84A19.84,19.84,0,1,1,44.84,25,19.86,19.86,0,0,1,25,44.84ZM25,7.29A17.71,17.71,0,1,0,42.71,25,17.74,17.74,0,0,0,25,7.29Z"/><path class="cls-1" d="M36.4,17.76a9.87,9.87,0,0,1-2.33.67c.37-.07.93-.75,1.15-1A4.29,4.29,0,0,0,36,16s0-.09,0-.12a.13.13,0,0,0-.12,0,12,12,0,0,1-2.78,1.06.18.18,0,0,1-.19-.05,1.9,1.9,0,0,0-.24-.25,4.88,4.88,0,0,0-1.34-.82,4.56,4.56,0,0,0-2.07-.33A4.75,4.75,0,0,0,27.3,16a5.07,5.07,0,0,0-1.58,1.29,5,5,0,0,0-.94,1.88,5.18,5.18,0,0,0-.05,2c0,.11,0,.12-.1.11a14.82,14.82,0,0,1-9.53-4.85c-.11-.13-.17-.13-.26,0a4.82,4.82,0,0,0,.82,5.71c.19.17.38.35.59.51a4.69,4.69,0,0,1-1.84-.51c-.11-.07-.17,0-.18.09a2.57,2.57,0,0,0,0,.55,4.91,4.91,0,0,0,3,3.9,2.66,2.66,0,0,0,.61.18,5.17,5.17,0,0,1-1.8.06c-.13,0-.18,0-.13.17a5.08,5.08,0,0,0,3.79,3.17c.17,0,.34,0,.52.07,0,0,0,0,0,0-.43.65-1.91,1.13-2.59,1.37a9.27,9.27,0,0,1-3.94.51c-.21,0-.25,0-.31,0s0,.08.06.14c.27.18.54.33.82.48A13,13,0,0,0,16.9,34a14,14,0,0,0,13.59-3.18c2.79-2.77,3.76-6.59,3.76-10.41,0-.15.18-.23.28-.31a8.83,8.83,0,0,0,1.84-1.92.54.54,0,0,0,.12-.37v0C36.49,17.7,36.5,17.72,36.4,17.76Z"/><path class="cls-2" d="M20.23,34.44Z"/><path class="cls-2" d="M21,34.46s.41,0,0,0C21,34.44,21.06,34.46,21,34.46Z"/><path class="cls-2" d="M29.19,15.5a.09.09,0,0,1-.1,0Z"/></g></svg>