<svg xmlns="http://www.w3.org/2000/svg" viewBox="0 0 112.2 111.96"><defs><style>.cls-1{fill:#8368cf;}.cls-2{fill:#081329;}</style></defs><g id="about-me"><circle class="cls-1" cx="56.1" cy="55.98" r="52.14"/><path class="cls-2" d="M78.88,25.44a4,4,0,0,0-4,4v2.7A6.1,6.1,0,0,0,65,36.57H56.56a6.1,6.1,0,0,0-11-3.21,6.06,6.06,0,0,0-8.67-1.22v-2.7a4,4,0,0,0-8,0V75.63a5.87,5.87,0,0,0,3.06,10.89H80.29a5.87,5.87,0,0,0,2.59-11.15V29.44A4,4,0,0,0,78.88,25.44ZM77.24,50.11V29.44a1.64,1.64,0,0,1,3.27,0V74.77H77.24Zm-6.11-16.9A3.75,3.75,0,1,1,67.38,37,3.76,3.76,0,0,1,71.13,33.21Zm-20.67,0A3.75,3.75,0,1,1,46.72,37,3.75,3.75,0,0,1,50.46,33.21Zm-4.93,7.35a6.1,6.1,0,0,0,11-2.81h8.55a6.1,6.1,0,0,0,9.81,4v3.51a6.09,6.09,0,0,0-9.15,2,6.11,6.11,0,0,0-11.5,2.47H36.86V41.78a6.06,6.06,0,0,0,8.67-1.22Zm14.8,30.23a6.12,6.12,0,0,0,6.08-5.53h8.47v9.5h-38V69.49a6,6,0,0,0,3.74,1.3,6.13,6.13,0,0,0,6.09-5.53h7.55A6.12,6.12,0,0,0,60.33,70.79Zm-3.75-6.12a3.75,3.75,0,1,1,3.75,3.75A3.75,3.75,0,0,1,56.58,64.67Zm9.83-.59a6.11,6.11,0,0,0-12.17,0H46.69a6.1,6.1,0,0,0-9.83-4.24V50.9H54.27A6.11,6.11,0,0,0,65.73,53a6.09,6.09,0,0,0,9.15,2v9.15Zm-9.83-14a3.75,3.75,0,1,1,3.75,3.75A3.75,3.75,0,0,1,56.58,50.11Zm14.55,3.75a3.75,3.75,0,1,1,3.75-3.75A3.75,3.75,0,0,1,71.13,53.86ZM40.6,33.21A3.75,3.75,0,0,1,44.35,37h0a3.75,3.75,0,1,1-3.75-3.75Zm0,27.71a3.75,3.75,0,1,1-3.75,3.75A3.75,3.75,0,0,1,40.6,60.92ZM31.22,29.44a1.64,1.64,0,0,1,3.27,0V74.76H31.91a5.32,5.32,0,0,0-.69,0ZM83.8,80.64a3.52,3.52,0,0,1-3.51,3.51H31.91a3.52,3.52,0,0,1,0-7H80.29A3.52,3.52,0,0,1,83.8,80.64Z"/></g></svg>