<svg xmlns="http://www.w3.org/2000/svg" viewBox="0 0 37.5 35.02"><defs><style>.cls-1{fill:#fff;stroke:#fff;stroke-miterlimit:10;}</style></defs><g id="activo"><path id="Контур_58" data-name="Контур 58" class="cls-1" d="M20.11,8.52l-5.54,8.92L20.5,27.1a.31.31,0,0,1,0,.23c0,.07-.09.11-.21.13H16.09a.68.68,0,0,1-.63-.3c-.4-.77-.79-1.49-1.19-2.25s-.82-1.55-1.27-2.34-.89-1.6-1.32-2.41h0c-.4.79-.81,1.59-1.24,2.38L9.14,24.91c-.41.79-.84,1.51-1.28,2.28a.42.42,0,0,1-.42.27H3.36a.11.11,0,0,1-.13-.11h0a.31.31,0,0,1,0-.21L9,17.74,3.42,8.49c-.06-.08-.07-.14,0-.19a.25.25,0,0,1,.18-.08h4.2a.62.62,0,0,1,.27,0,.69.69,0,0,1,.18.16c.36.8.75,1.37,1.19,2.16s.88,1.58,1.33,2.35S11.6,14.5,12,15.3h0c.4-.82.8-1.61,1.21-2.39s.82-1.55,1.25-2.34.84-1.33,1.24-2.11a.39.39,0,0,1,.12-.19.47.47,0,0,1,.24,0H20a.18.18,0,0,1,.21.13A.18.18,0,0,1,20.11,8.52Z"/><path id="Контур_59" data-name="Контур 59" class="cls-1" d="M28.36,28.09a9.26,9.26,0,0,1-4-.83,6.34,6.34,0,0,1-2.78-2.52,8.09,8.09,0,0,1-1-4.22,7.73,7.73,0,0,1,1-3.9,7.32,7.32,0,0,1,2.95-2.86,9.51,9.51,0,0,1,4.68-1.08l.38,0,.72,0V7.47a.47.47,0,0,1,.4-.54h2.89a.54.54,0,0,1,.54.54v17c0,.33,0,.7,0,1.1s.06.75.08,1.07a.41.41,0,0,1-.05.18.37.37,0,0,1-.13.12,13.73,13.73,0,0,1-2.88.89A15.22,15.22,0,0,1,28.36,28.09Zm1.9-3.69V16.26a5.62,5.62,0,0,0-.57-.09l-.61,0a4.58,4.58,0,0,0-2.09.48,3.84,3.84,0,0,0-2.18,3.72,5.4,5.4,0,0,0,.32,1.91A3.61,3.61,0,0,0,26,23.56a3.19,3.19,0,0,0,1.25.75,4.76,4.76,0,0,0,1.54.23c.28,0,.53,0,.77,0A3.67,3.67,0,0,0,30.26,24.4Z"/></g></svg>