<svg xmlns="http://www.w3.org/2000/svg" xmlns:xlink="http://www.w3.org/1999/xlink" viewBox="0 0 1400 3081.32"><defs><style>.cls-1{fill:none;}.cls-2{fill:#8368cf;}.cls-3{fill:#20c9ac;}.cls-4{clip-path:url(#clip-path);}</style><clipPath id="clip-path"><rect class="cls-1" x="-1420" y="121.64" width="1400" height="396.3"/></clipPath></defs><g id="footer"><path class="cls-2" d="M182,2746.13a1.52,1.52,0,0,1-1.13,1.82,1.6,1.6,0,0,1-1-.1l-25.51,35.09a.87.87,0,0,1,.18.36,1,1,0,0,1-1.61.9l-5.88,2.64a1,1,0,0,1-1.89.28l-7.07-1.22a.93.93,0,0,1-.67.57,1,1,0,0,1-.91-.27l-10,8.62a.19.19,0,0,1,0,.1,1,1,0,0,1-1.87.43.45.45,0,0,1,0-.12L93,2788.55a1.47,1.47,0,0,1-1,.84,1.51,1.51,0,0,1-1.8-1.13h0l-53,.45a.93.93,0,0,1-.73.83,1,1,0,1,1-.43-1.87,1,1,0,0,1,1.13.66l53-.44a1.45,1.45,0,0,1,1.15-1.43,1.52,1.52,0,0,1,1.82,1.13,1.62,1.62,0,0,1,0,.62l31.59,6.66a.94.94,0,0,1,.66-.65l3.21-30.14a1.51,1.51,0,0,1-1.11-2.53l-21-18.08a1.05,1.05,0,0,1-.46.23,1.12,1.12,0,1,1,.72-.5l21.11,18.1a1.2,1.2,0,0,1,.45-.19A1.51,1.51,0,0,1,129,2764l-3.24,30.17a.91.91,0,0,1,.56.28l10-8.58a.39.39,0,0,1-.05-.14,1,1,0,1,1,1.87-.43.47.47,0,0,1,0,.16l7,1.2a1,1,0,0,1,.73-.75,1,1,0,0,1,1.07.51l5.77-2.59a.25.25,0,0,1,0-.12.94.94,0,0,1,.72-1.15,1,1,0,0,1,.63.07l25.51-35a1.65,1.65,0,0,1-.5-.82l-20.17,4.53a1,1,0,0,1-.7.65,1,1,0,0,1-1.15-.72,1,1,0,0,1,.08-.65l-12.66-19.32a1,1,0,0,1-.43-1.88l7-39.76a1.25,1.25,0,0,1-.76-.89,1.29,1.29,0,1,1,2.51-.58,1.27,1.27,0,0,1-1,1.55.86.86,0,0,1-.39,0l-7,39.66a.92.92,0,0,1,.77.73,1,1,0,0,1-.38,1l12.54,19.16a1,1,0,0,1,.39-.18,1,1,0,0,1,1.15.72l0,.08,20.11-4.51a1.47,1.47,0,0,1,1.15-1.4A1.5,1.5,0,0,1,182,2746.13Z"/><path class="cls-2" d="M1004.42,2446.12s1.23,17.26-11,17.07c0,0,11.19,1.08,12.49,16.93,0,0-1.3-15.85,10.87-16.56C1016.8,2463.56,1005.17,2460.26,1004.42,2446.12Z"/><path class="cls-2" d="M58.26,324.85s1.23,17.27-11,17.07c0,0,11.18,1.08,12.48,16.93,0,0-1.3-15.85,10.87-16.56C70.64,342.29,59,339,58.26,324.85Z"/><path class="cls-2" d="M1281.57,335.83A10.13,10.13,0,1,1,1291.7,346,10.14,10.14,0,0,1,1281.57,335.83Zm10.13,9.95a10,10,0,1,0-10-9.95A9.94,9.94,0,0,0,1291.7,345.78Z"/><path class="cls-2" d="M1179.16,861.52l-14.9,7.88a7.22,7.22,0,0,0-5.78-.83l-11.83-11.21,7.7,14.21.14-.08a7.19,7.19,0,0,0-.78,6.55l-11.22,11.84,14.9-7.81,0-.05a7.18,7.18,0,0,0,5.48.29l-.1.11L1175,894l-8.25-15a7.19,7.19,0,0,0,.68-5.39l.11.11Z"/><path class="cls-2" d="M391.88,1976.11a133.4,133.4,0,0,0,73.62,17.59c3.61-.19,3.15-6.62-.45-6.43a128.26,128.26,0,0,1-70.68-17.1c-3.18-1.83-5.65,4.13-2.49,5.94Z"/><path class="cls-2" d="M478,1992.35l.51-1.84a2.72,2.72,0,0,0,0-1.27,2.49,2.49,0,0,0-.41-1.13,2.07,2.07,0,0,0-.77-.81,2,2,0,0,0-1-.45h-.75a2.68,2.68,0,0,0-1.36.62l-.54.58a3.72,3.72,0,0,0-.64,1.56l-.51,1.84a2.72,2.72,0,0,0,0,1.27,2.55,2.55,0,0,0,.4,1.13,2.17,2.17,0,0,0,.78.81,1.89,1.89,0,0,0,1,.45h.75a2.79,2.79,0,0,0,1.36-.63l.53-.58a3.61,3.61,0,0,0,.65-1.56Z"/><path class="cls-2" d="M484.35,1993.45l16.74-1c1.47-.09,2.76-2,2.58-3.63a2.85,2.85,0,0,0-3-2.8l-16.75,1c-1.47.09-2.75,2-2.57,3.63a2.85,2.85,0,0,0,3,2.8Z"/><path class="cls-2" d="M532,1978.25,513.19,1981a3.41,3.41,0,0,0-2.58,3.63,2.81,2.81,0,0,0,3,2.8l18.85-2.74a3.4,3.4,0,0,0,2.57-3.63,2.81,2.81,0,0,0-3-2.8Z"/><path class="cls-2" d="M1135.64,1515.76c18.38,4.41,49,5.38,63.77-8.48,2.13-2,.58-6.22-2.48-6-9.16.69-17.77,5.47-26.79,7.56-11.1,2.58-22.65,3.21-34,3.32-2,0-2.54,3.1-.49,3.59Z"/><path class="cls-2" d="M1137.06,197.65l-.14,0,.87-.11h-.36l.86.11a1,1,0,0,1-.33-.09l.77.33a2.08,2.08,0,0,1-.38-.22l.66.5a1.88,1.88,0,0,1-.34-.35l.51.66a2.11,2.11,0,0,1-.31-.52l.33.78a2.72,2.72,0,0,1-.17-.62l.11.86a2.26,2.26,0,0,1,0-.52l-.12.86a1.55,1.55,0,0,1,.12-.42l-.33.77a2.28,2.28,0,0,1,.17-.3l-.5.66a1.18,1.18,0,0,1,.25-.25l-.66.51a1.92,1.92,0,0,1,.31-.18l-.78.33a1.89,1.89,0,0,1,.34-.09l-.87.11h.37l-.86-.11a2.09,2.09,0,0,1,.43.11l-.78-.32a2.15,2.15,0,0,1,.49.28l-.66-.5a2.19,2.19,0,0,1,.43.43l-.51-.65a2.22,2.22,0,0,1,.3.49l-.33-.78a1.84,1.84,0,0,1,.14.51l-.12-.87a1.88,1.88,0,0,1,0,.41l.11-.87a1.36,1.36,0,0,1-.1.36l.33-.77a1.49,1.49,0,0,1-.18.3l.51-.66,0,0a3.65,3.65,0,0,0-.95,2.3,2.42,2.42,0,0,0,.28,1.25,2.34,2.34,0,0,0,.67,1.05,3.27,3.27,0,0,0,2.3.95l.87-.11a3.35,3.35,0,0,0,1.43-.84,6.52,6.52,0,0,0,.64-.85,6.07,6.07,0,0,0,.43-1,4,4,0,0,0,.2-1.33,3.81,3.81,0,0,0-.07-.67,5.2,5.2,0,0,0-.11-.67,2.41,2.41,0,0,0-.08-.25c-.14-.33-.26-.67-.43-1a1.82,1.82,0,0,0-.15-.23,10.61,10.61,0,0,0-.65-.85,6.47,6.47,0,0,0-1-.85,1.92,1.92,0,0,0-.46-.27,7,7,0,0,0-1-.4,7.59,7.59,0,0,0-1.08-.16h-.37c-.32,0-.65.07-1,.14a3.29,3.29,0,0,0-.62.23,4.91,4.91,0,0,0-.62.28,4.6,4.6,0,0,0-1,.82,5,5,0,0,0-1,1.8,5.34,5.34,0,0,0-.21,1.29,5.41,5.41,0,0,0,.13,1.33,2.07,2.07,0,0,0,.12.49c.12.33.26.66.41,1l.12.22a6,6,0,0,0,.4.55,5.52,5.52,0,0,0,.43.53,4.69,4.69,0,0,0,1.07.82,3.9,3.9,0,0,0,1.24.48,4.85,4.85,0,0,0,2.24,0,3.67,3.67,0,0,0,1.94-1.49,2.44,2.44,0,0,0,.39-1.21,2.61,2.61,0,0,0-.06-1.3l-.33-.78a3.33,3.33,0,0,0-1.17-1.16l-.77-.33a3.18,3.18,0,0,0-1.73,0Z"/><path class="cls-2" d="M143.21,193.61l-.14,0,.87-.12a1.09,1.09,0,0,1-.36,0l.86.12a2,2,0,0,1-.33-.09l.78.33a1.6,1.6,0,0,1-.38-.23l.65.51a1.88,1.88,0,0,1-.34-.35l.51.66a2.31,2.31,0,0,1-.31-.52l.33.77a2.64,2.64,0,0,1-.17-.61l.12.86a1.81,1.81,0,0,1,0-.52l-.12.86a2.11,2.11,0,0,1,.12-.43l-.33.78a1.49,1.49,0,0,1,.18-.3l-.51.66a1.18,1.18,0,0,1,.25-.25l-.66.51a1.39,1.39,0,0,1,.31-.18l-.77.33a1.15,1.15,0,0,1,.33-.1l-.86.12h.37l-.87-.12a1.62,1.62,0,0,1,.43.12l-.78-.33a2.18,2.18,0,0,1,.49.29l-.66-.51a3.05,3.05,0,0,1,.44.44l-.51-.66a3.1,3.1,0,0,1,.29.5l-.33-.78a1.78,1.78,0,0,1,.14.5l-.11-.86a2.67,2.67,0,0,1,0,.4l.11-.86a1.58,1.58,0,0,1-.09.36l.32-.78a1.92,1.92,0,0,1-.18.31l.51-.66,0,0a3.14,3.14,0,0,0-.67,3.55,2.55,2.55,0,0,0,.67,1.05,3.27,3.27,0,0,0,2.3.95l.87-.12a3.18,3.18,0,0,0,1.43-.83,7.64,7.64,0,0,0,.65-.85,5.77,5.77,0,0,0,.42-1,3.72,3.72,0,0,0,.2-1.32,3.62,3.62,0,0,0-.07-.67,4.92,4.92,0,0,0-.1-.67l-.09-.25a9.56,9.56,0,0,0-.43-1c0-.08-.09-.15-.14-.23q-.31-.44-.66-.84a6,6,0,0,0-1-.86,2.51,2.51,0,0,0-.45-.26,7.56,7.56,0,0,0-1-.4,6.71,6.71,0,0,0-1.08-.16,1.13,1.13,0,0,0-.26,0h-.11a7.8,7.8,0,0,0-1,.13,3.32,3.32,0,0,0-.62.24,3.37,3.37,0,0,0-.61.28,4.17,4.17,0,0,0-1,.82,4.87,4.87,0,0,0-1,1.79,5.42,5.42,0,0,0-.21,1.3,5.28,5.28,0,0,0,.13,1.32,2,2,0,0,0,.12.49c.12.34.26.67.41,1l.12.22a5.61,5.61,0,0,0,.41.55,4.33,4.33,0,0,0,.43.53,5,5,0,0,0,1.06.82,4.56,4.56,0,0,0,1.24.48,5,5,0,0,0,2.24,0,2.41,2.41,0,0,0,1.1-.59,2.3,2.3,0,0,0,.84-.91,2.38,2.38,0,0,0,.39-1.21,2.46,2.46,0,0,0-.06-1.29l-.33-.78a3.33,3.33,0,0,0-1.16-1.17l-.78-.32a3.18,3.18,0,0,0-1.73,0Z"/><path class="cls-2" d="M89.88,80.59l-.13,0,.86-.12a2.16,2.16,0,0,1-.36,0l.87.11a1,1,0,0,1-.34-.09l.78.33a1.57,1.57,0,0,1-.38-.22l.65.51a2.81,2.81,0,0,1-.34-.35l.51.65a2.47,2.47,0,0,1-.31-.52l.33.78a2.72,2.72,0,0,1-.17-.62L92,82a1.88,1.88,0,0,1,0-.53l-.11.87a1.6,1.6,0,0,1,.11-.43l-.33.77a1.75,1.75,0,0,1,.18-.29L91.3,83a2,2,0,0,1,.25-.25l-.65.51a1.49,1.49,0,0,1,.3-.18l-.77.33a2,2,0,0,1,.33-.09l-.86.12a1.15,1.15,0,0,1,.37,0l-.87-.12a1.62,1.62,0,0,1,.43.12l-.78-.33a2.15,2.15,0,0,1,.49.28l-.66-.5a2.56,2.56,0,0,1,.44.43l-.51-.65a3,3,0,0,1,.29.49l-.33-.77a1.69,1.69,0,0,1,.14.5L88.8,82a1.87,1.87,0,0,1,0,.41l.12-.87a1.89,1.89,0,0,1-.1.36l.32-.77a1.49,1.49,0,0,1-.18.3l.51-.66,0,0a2.48,2.48,0,0,0-.68,1,3,3,0,0,0,0,2.51,2.39,2.39,0,0,0,.68,1,3.23,3.23,0,0,0,2.29,1l.87-.11A3.2,3.2,0,0,0,94,85.41a6.82,6.82,0,0,0,.65-.85,6,6,0,0,0,.42-1,4,4,0,0,0,.21-1.33,5.1,5.1,0,0,0-.08-.67,5.16,5.16,0,0,0-.1-.67l-.09-.25a8.56,8.56,0,0,0-.43-1,1.76,1.76,0,0,0-.14-.23,10.74,10.74,0,0,0-.66-.85,6.39,6.39,0,0,0-1-.85,2.4,2.4,0,0,0-.46-.27,7.56,7.56,0,0,0-1-.4,8,8,0,0,0-1.08-.16H89.9c-.32,0-.65.07-1,.14a3.56,3.56,0,0,0-.62.23,3.77,3.77,0,0,0-.61.29,4.13,4.13,0,0,0-1,.82,4.72,4.72,0,0,0-1,1.79,4.92,4.92,0,0,0-.22,1.3,5.85,5.85,0,0,0,.13,1.32,2.7,2.7,0,0,0,.12.49c.12.33.26.66.41,1l.12.23c.12.19.27.37.41.55a5.15,5.15,0,0,0,.43.52,4.43,4.43,0,0,0,1.06.82,4.09,4.09,0,0,0,1.24.48,4.85,4.85,0,0,0,2.24,0,2.48,2.48,0,0,0,1.11-.58,2.95,2.95,0,0,0,1.22-2.12,2.4,2.4,0,0,0-.06-1.3l-.33-.77a3.25,3.25,0,0,0-1.16-1.17l-.78-.33a3.38,3.38,0,0,0-1.73,0Z"/><path class="cls-2" d="M1106.78,268.59l-.13,0,.86-.12h-.36l.87.12a1.89,1.89,0,0,1-.34-.09l.78.32a1.57,1.57,0,0,1-.38-.22l.65.51a2.81,2.81,0,0,1-.34-.35l.51.65a2.47,2.47,0,0,1-.31-.52l.33.78a2.72,2.72,0,0,1-.17-.62l.12.87a1.88,1.88,0,0,1,0-.53l-.11.87a1.6,1.6,0,0,1,.11-.43l-.33.78a1.49,1.49,0,0,1,.18-.3l-.51.65a2,2,0,0,1,.25-.25l-.65.51a1.49,1.49,0,0,1,.3-.18l-.77.33a2,2,0,0,1,.33-.09l-.86.12a1.15,1.15,0,0,1,.37,0l-.87-.12a1.62,1.62,0,0,1,.43.12l-.78-.33a1.86,1.86,0,0,1,.49.29l-.66-.51a2.29,2.29,0,0,1,.44.44l-.51-.66a3,3,0,0,1,.29.49l-.33-.77a1.69,1.69,0,0,1,.14.5l-.11-.87a1.41,1.41,0,0,1,0,.41l.12-.86a1.4,1.4,0,0,1-.1.35l.32-.77a1.49,1.49,0,0,1-.18.3l.51-.65,0,0a2.48,2.48,0,0,0-.68,1.05,3,3,0,0,0,0,2.51,2.39,2.39,0,0,0,.68,1,3.3,3.3,0,0,0,2.29,1l.87-.12a3.2,3.2,0,0,0,1.43-.84,4.32,4.32,0,0,0,1.07-1.83,4,4,0,0,0,.21-1.33,5.1,5.1,0,0,0-.08-.67,5.16,5.16,0,0,0-.1-.67l-.09-.25a8.56,8.56,0,0,0-.43-1,1.76,1.76,0,0,0-.14-.23,10.74,10.74,0,0,0-.66-.85,6.39,6.39,0,0,0-1-.85,2.4,2.4,0,0,0-.46-.27,7.56,7.56,0,0,0-1-.4,8,8,0,0,0-1.08-.16h-.37c-.32,0-.65.07-1,.14a3.56,3.56,0,0,0-.62.23,4.85,4.85,0,0,0-.61.29,4.13,4.13,0,0,0-1,.82,4.85,4.85,0,0,0-1,1.79,4.92,4.92,0,0,0-.22,1.3,5.85,5.85,0,0,0,.13,1.32,2.7,2.7,0,0,0,.12.49c.12.33.26.66.41,1l.12.23c.12.19.27.37.41.55a5.15,5.15,0,0,0,.43.52,4.43,4.43,0,0,0,1.06.82,4.09,4.09,0,0,0,1.24.48,4.85,4.85,0,0,0,2.24,0,2.48,2.48,0,0,0,1.11-.58,2.95,2.95,0,0,0,1.22-2.12,2.4,2.4,0,0,0-.06-1.3l-.33-.77a3.25,3.25,0,0,0-1.16-1.17l-.78-.33a3.38,3.38,0,0,0-1.73,0Z"/><path class="cls-2" d="M1336.1,1174.43l-.14,0,.87-.12a1.09,1.09,0,0,1-.36,0l.86.12a2,2,0,0,1-.33-.09l.78.33a1.9,1.9,0,0,1-.39-.23l.66.51a1.88,1.88,0,0,1-.34-.35l.51.66a2.17,2.17,0,0,1-.31-.53l.33.78a2.58,2.58,0,0,1-.17-.62l.11.87a2.35,2.35,0,0,1,0-.53l-.12.87a1.62,1.62,0,0,1,.12-.43l-.33.78a1.49,1.49,0,0,1,.18-.3l-.51.66a1.18,1.18,0,0,1,.25-.25l-.66.5a1.34,1.34,0,0,1,.31-.17l-.77.32a1.59,1.59,0,0,1,.33-.09l-.87.12a1.21,1.21,0,0,1,.38,0l-.87-.12a1.62,1.62,0,0,1,.43.12l-.78-.33a2.18,2.18,0,0,1,.49.29l-.66-.51a2.24,2.24,0,0,1,.43.44l-.5-.66a2.72,2.72,0,0,1,.29.5l-.33-.78a1.78,1.78,0,0,1,.14.5l-.11-.86a2.67,2.67,0,0,1,0,.4l.11-.86a1.21,1.21,0,0,1-.1.36l.33-.78a1.92,1.92,0,0,1-.18.31l.51-.66,0,0a3.14,3.14,0,0,0-.67,3.55,2.55,2.55,0,0,0,.67,1,3.32,3.32,0,0,0,2.3,1l.87-.12a3.18,3.18,0,0,0,1.43-.83,7.76,7.76,0,0,0,.65-.86,5.67,5.67,0,0,0,.42-1,3.74,3.74,0,0,0,.2-1.33,3.81,3.81,0,0,0-.07-.67c0-.21,0-.45-.1-.66l-.09-.25a8.7,8.7,0,0,0-.43-1,1.76,1.76,0,0,0-.14-.23c-.21-.29-.43-.58-.66-.84a6,6,0,0,0-1-.86,1.89,1.89,0,0,0-.46-.26,9,9,0,0,0-1-.41,6.68,6.68,0,0,0-1.08-.15l-.26,0-.12,0a7.9,7.9,0,0,0-1,.13,3.32,3.32,0,0,0-.62.24,3.37,3.37,0,0,0-.61.28,4.17,4.17,0,0,0-1,.82,4.87,4.87,0,0,0-1,1.79,5.34,5.34,0,0,0-.21,1.3,5.28,5.28,0,0,0,.13,1.32,2.07,2.07,0,0,0,.12.49c.12.34.26.66.41,1l.12.23c.12.19.27.37.41.55a4.25,4.25,0,0,0,.42.53,4.94,4.94,0,0,0,1.07.81,4.28,4.28,0,0,0,1.24.49,5,5,0,0,0,2.24,0,2.51,2.51,0,0,0,1.1-.59,2.37,2.37,0,0,0,.84-.91,2.41,2.41,0,0,0,.39-1.21,2.57,2.57,0,0,0-.06-1.29l-.33-.78a3.28,3.28,0,0,0-1.17-1.17l-.77-.33a3.38,3.38,0,0,0-1.73,0Z"/><path class="cls-2" d="M291.44,877.07l-.13,0,.86-.12h-.36l.87.11a1,1,0,0,1-.34-.09l.78.33a1.79,1.79,0,0,1-.38-.22l.66.51a2.32,2.32,0,0,1-.35-.35l.51.65a3,3,0,0,1-.31-.52l.33.78a2.72,2.72,0,0,1-.17-.62l.12.87a2.35,2.35,0,0,1,0-.53l-.11.87a1.6,1.6,0,0,1,.11-.43l-.33.77a1.75,1.75,0,0,1,.18-.29l-.51.65a2,2,0,0,1,.25-.25l-.65.51a1.57,1.57,0,0,1,.31-.18l-.78.33.33-.09-.86.12a1.15,1.15,0,0,1,.37,0l-.87-.12a1.62,1.62,0,0,1,.43.12l-.77-.33a2.31,2.31,0,0,1,.48.28l-.66-.5a2.56,2.56,0,0,1,.44.43l-.51-.65a2.43,2.43,0,0,1,.29.49l-.33-.77a2.07,2.07,0,0,1,.15.5l-.12-.87a1.41,1.41,0,0,1,0,.41l.12-.87a1.36,1.36,0,0,1-.1.36l.33-.77a1.53,1.53,0,0,1-.19.3l.51-.66,0,0a3.15,3.15,0,0,0-.68,3.56,2.48,2.48,0,0,0,.68,1,3.25,3.25,0,0,0,2.3,1l.86-.11a3.2,3.2,0,0,0,1.43-.84,4.32,4.32,0,0,0,1.07-1.83,4,4,0,0,0,.21-1.33,5.1,5.1,0,0,0-.08-.67,3.87,3.87,0,0,0-.1-.67,2.5,2.5,0,0,0-.09-.25,7.1,7.1,0,0,0-.43-1,1.76,1.76,0,0,0-.14-.23,10.74,10.74,0,0,0-.66-.85,6.39,6.39,0,0,0-1-.85,2.4,2.4,0,0,0-.46-.27,7.56,7.56,0,0,0-1-.4,8,8,0,0,0-1.08-.16h-.37c-.32,0-.65.07-1,.14a3.56,3.56,0,0,0-.62.23,3.77,3.77,0,0,0-.61.29,4.13,4.13,0,0,0-1,.82,4.85,4.85,0,0,0-1,1.79A5.36,5.36,0,0,0,287,878a5.85,5.85,0,0,0,.13,1.32,2.7,2.7,0,0,0,.12.49c.12.33.26.66.41,1l.12.22a5.75,5.75,0,0,0,.41.56c.14.17.27.36.43.52a4.43,4.43,0,0,0,1.06.82,4.09,4.09,0,0,0,1.24.48,4.85,4.85,0,0,0,2.24,0,2.48,2.48,0,0,0,1.11-.58,2.95,2.95,0,0,0,1.22-2.12,2.4,2.4,0,0,0-.06-1.3l-.33-.77A3.25,3.25,0,0,0,294,877.4l-.78-.33a3.38,3.38,0,0,0-1.73,0Z"/><path class="cls-2" d="M122.21,699.56l-.14,0,.86-.12h-.35l.86.12a1.39,1.39,0,0,1-.33-.1l.77.33a2.08,2.08,0,0,1-.38-.22l.66.51a2.24,2.24,0,0,1-.34-.35l.5.65a2.43,2.43,0,0,1-.3-.52l.33.78a2.29,2.29,0,0,1-.17-.62l.11.87a2.35,2.35,0,0,1,0-.53l-.12.87a1.62,1.62,0,0,1,.12-.43l-.33.78a1.11,1.11,0,0,1,.17-.3l-.51.65a2.06,2.06,0,0,1,.26-.25l-.66.51a1.92,1.92,0,0,1,.31-.18l-.78.33a1.89,1.89,0,0,1,.34-.09l-.87.12a1.15,1.15,0,0,1,.37,0l-.86-.12a1.62,1.62,0,0,1,.43.12l-.78-.33a2,2,0,0,1,.49.29l-.66-.51a2.56,2.56,0,0,1,.43.44l-.51-.66a2.48,2.48,0,0,1,.3.49l-.33-.77a2.05,2.05,0,0,1,.14.5l-.12-.87a1.41,1.41,0,0,1,0,.41l.12-.86a1.4,1.4,0,0,1-.1.35l.33-.77a1.49,1.49,0,0,1-.18.3l.5-.65,0,0a2.46,2.46,0,0,0-.67,1.05,3.34,3.34,0,0,0,.67,3.55,3.31,3.31,0,0,0,2.3,1l.86-.12a3.29,3.29,0,0,0,1.44-.84,5.91,5.91,0,0,0,.64-.85,7.1,7.1,0,0,0,.43-1,4.29,4.29,0,0,0,.2-1.33,5.08,5.08,0,0,0-.07-.67,5.2,5.2,0,0,0-.11-.67c0-.08,0-.16-.08-.25-.14-.33-.26-.67-.43-1a1.82,1.82,0,0,0-.15-.23,10.61,10.61,0,0,0-.65-.85,6.47,6.47,0,0,0-1-.85,1.92,1.92,0,0,0-.46-.27,7,7,0,0,0-1-.4,7.81,7.81,0,0,0-1.08-.16h-.37c-.32,0-.65.07-1,.14a3,3,0,0,0-.62.23,4.39,4.39,0,0,0-.62.29,4.08,4.08,0,0,0-1,.82,4.74,4.74,0,0,0-1,1.79,4.9,4.9,0,0,0-.21,1.3,5.85,5.85,0,0,0,.12,1.32,2.72,2.72,0,0,0,.13.49c.12.33.26.66.41,1a1.27,1.27,0,0,0,.12.23,5.12,5.12,0,0,0,.4.55c.14.17.27.36.43.52a4.69,4.69,0,0,0,1.07.82,3.9,3.9,0,0,0,1.24.48,4.8,4.8,0,0,0,2.23,0,2.38,2.38,0,0,0,1.11-.58,2.54,2.54,0,0,0,.84-.91,2.43,2.43,0,0,0,.38-1.21,2.5,2.5,0,0,0-.05-1.3l-.33-.77a3.28,3.28,0,0,0-1.17-1.17l-.78-.33a3.34,3.34,0,0,0-1.72,0Z"/><circle class="cls-2" cx="232.22" cy="1521.43" r="0.81"/><circle class="cls-2" cx="309.29" cy="819.7" r="0.81"/><circle class="cls-2" cx="318.34" cy="1449.72" r="0.81"/><circle class="cls-2" cx="94.91" cy="489.89" r="0.81"/><circle class="cls-2" cx="1162.43" cy="1204.49" r="0.81"/><circle class="cls-2" cx="58.15" cy="190.74" r="0.81"/><circle class="cls-2" cx="71.12" cy="249.16" r="0.81"/><circle class="cls-2" cx="319.15" cy="1542.15" r="0.81"/><circle class="cls-2" cx="263.34" cy="1380.99" r="0.81"/><circle class="cls-2" cx="1108.03" cy="1234.62" r="0.81"/><circle class="cls-2" cx="1181.3" cy="1256.26" r="0.81"/><circle class="cls-2" cx="272.54" cy="628.61" r="0.81"/><circle class="cls-2" cx="1088.64" cy="168.58" r="0.81"/><circle class="cls-2" cx="1171.49" cy="167.77" r="0.81"/><circle class="cls-2" cx="1045.78" cy="178.43" r="0.81"/><circle class="cls-2" cx="1029.35" cy="280.85" r="0.81"/><circle class="cls-2" cx="1184.6" cy="448.47" r="0.81"/><circle class="cls-2" cx="1108.03" cy="1116.42" r="0.81"/><circle class="cls-2" cx="247.43" cy="818.89" r="0.81"/><circle class="cls-2" cx="137.96" cy="245.82" r="0.81"/><circle class="cls-2" cx="1173.11" cy="251.19" r="0.81"/><circle class="cls-2" cx="1197.95" cy="1169.64" r="0.81"/><circle class="cls-2" cx="72.74" cy="689.16" r="0.81"/><circle class="cls-2" cx="100.92" cy="565.72" r="0.81"/><circle class="cls-2" cx="91.19" cy="628.61" r="0.81"/><path class="cls-2" d="M1312.56,250.6a10.13,10.13,0,1,1-10.12-10.13A10.12,10.12,0,0,1,1312.56,250.6Zm-10.12-10a10,10,0,1,0,10,10A10,10,0,0,0,1302.44,240.64Z"/><path class="cls-2" d="M1357.84,288.41a10.13,10.13,0,1,1-10.13-10.12A10.13,10.13,0,0,1,1357.84,288.41Zm-10.13-10a10,10,0,1,0,10,10A10,10,0,0,0,1347.71,278.46Z"/><circle class="cls-2" cx="199.99" cy="602.48" r="0.81"/><circle class="cls-2" cx="1126.46" cy="348.03" r="0.81"/><circle class="cls-2" cx="1162.43" cy="1103.55" r="0.81"/><circle class="cls-2" cx="326.15" cy="1408.4" r="0.81"/><circle class="cls-2" cx="116.29" cy="399.46" r="0.81"/><circle class="cls-2" cx="991.55" cy="204.06" r="0.81"/><circle class="cls-2" cx="1173.92" cy="336.15" r="0.81"/><circle class="cls-2" cx="155.47" cy="614.04" r="0.81"/><circle class="cls-2" cx="281.68" cy="1470.52" r="0.81"/><path class="cls-2" d="M981.33,688.56l-.13,0,.86-.12a1.09,1.09,0,0,1-.36,0l.87.12a1.89,1.89,0,0,1-.34-.09l.78.33a1.6,1.6,0,0,1-.38-.23l.65.51a2.26,2.26,0,0,1-.34-.35l.51.66a2.75,2.75,0,0,1-.31-.52l.33.77a2.64,2.64,0,0,1-.17-.61l.12.86a1.81,1.81,0,0,1,0-.52l-.11.86a1.6,1.6,0,0,1,.11-.43l-.33.78a1.49,1.49,0,0,1,.18-.3l-.51.66a1.18,1.18,0,0,1,.25-.25l-.65.51a1.14,1.14,0,0,1,.3-.18l-.77.33a1.39,1.39,0,0,1,.33-.1l-.86.12h.37l-.87-.12a1.62,1.62,0,0,1,.43.12l-.78-.33a2.18,2.18,0,0,1,.49.29l-.66-.51a2.62,2.62,0,0,1,.44.44l-.51-.66a3.1,3.1,0,0,1,.29.5l-.33-.78a1.78,1.78,0,0,1,.14.5l-.11-.86a1.78,1.78,0,0,1,0,.4l.12-.86a2.42,2.42,0,0,1-.1.36l.32-.78a1.92,1.92,0,0,1-.18.31l.51-.66,0,0a2.39,2.39,0,0,0-.68,1,2.59,2.59,0,0,0-.28,1.26,2.55,2.55,0,0,0,.28,1.25,2.48,2.48,0,0,0,.68,1,3.23,3.23,0,0,0,2.29,1l.87-.12a3.18,3.18,0,0,0,1.43-.83,6.92,6.92,0,0,0,.65-.86,5.36,5.36,0,0,0,.42-1,4,4,0,0,0,.21-1.32,4.72,4.72,0,0,0-.08-.67,4.92,4.92,0,0,0-.1-.67l-.09-.25a9.56,9.56,0,0,0-.43-1c0-.08-.09-.15-.14-.23a10.59,10.59,0,0,0-.66-.84,6,6,0,0,0-1-.86,3,3,0,0,0-.46-.26,7.56,7.56,0,0,0-1-.4,5.75,5.75,0,0,0-1.08-.16,1.13,1.13,0,0,0-.26,0h-.11a8.06,8.06,0,0,0-1,.13,3.61,3.61,0,0,0-.62.24,3.71,3.71,0,0,0-.61.28,4.38,4.38,0,0,0-1,.82,4.72,4.72,0,0,0-1,1.79,4.92,4.92,0,0,0-.22,1.3,5.8,5.8,0,0,0,.13,1.32,2.51,2.51,0,0,0,.12.49c.12.34.26.67.41,1l.12.22c.12.19.27.37.41.55a4.33,4.33,0,0,0,.43.53,4.66,4.66,0,0,0,1.06.81,4.4,4.4,0,0,0,1.24.49,5,5,0,0,0,2.24,0,2.49,2.49,0,0,0,1.11-.59,3.34,3.34,0,0,0,1.16-3.41l-.33-.78a3.25,3.25,0,0,0-1.16-1.17l-.78-.32a3.18,3.18,0,0,0-1.73,0Z"/><circle class="cls-2" cx="1079.87" cy="744.39" r="0.81"/><circle class="cls-2" cx="1070.39" cy="622.08" r="0.81"/><circle class="cls-2" cx="1160.83" cy="659.52" r="0.81"/><circle class="cls-2" cx="1114.34" cy="698.2" r="0.81"/><circle class="cls-2" cx="1185.41" cy="764.16" r="0.81"/><circle class="cls-2" cx="1173.11" cy="553.59" r="0.81"/><path class="cls-2" d="M1171.8,1026.48l-.14,0,.87-.12a1.09,1.09,0,0,1-.36,0l.87.12a1.89,1.89,0,0,1-.34-.09l.78.33a1.6,1.6,0,0,1-.38-.23l.65.51a2.26,2.26,0,0,1-.34-.35l.51.66a2.75,2.75,0,0,1-.31-.52l.33.77a2.58,2.58,0,0,1-.17-.62l.12.87a1.82,1.82,0,0,1,0-.52l-.11.86a1.6,1.6,0,0,1,.11-.43l-.33.78a1.49,1.49,0,0,1,.18-.3l-.51.66a1.18,1.18,0,0,1,.25-.25l-.65.5a1.11,1.11,0,0,1,.3-.17l-.77.33a1.39,1.39,0,0,1,.33-.1l-.86.12a1.53,1.53,0,0,1,.37,0l-.87-.12a1.62,1.62,0,0,1,.43.12l-.78-.33a2.18,2.18,0,0,1,.49.29l-.66-.51a3.05,3.05,0,0,1,.44.44l-.51-.66a3.1,3.1,0,0,1,.29.5l-.33-.78a1.78,1.78,0,0,1,.14.5l-.11-.86a1.78,1.78,0,0,1,0,.4l.12-.86a2.42,2.42,0,0,1-.1.36l.32-.78a1.92,1.92,0,0,1-.18.31l.51-.66,0,0a2.46,2.46,0,0,0-.67,1,3,3,0,0,0,0,2.51,2.55,2.55,0,0,0,.67,1,3.27,3.27,0,0,0,2.3,1l.87-.12a3.18,3.18,0,0,0,1.43-.83,7.76,7.76,0,0,0,.65-.86,5.36,5.36,0,0,0,.42-1,4,4,0,0,0,.21-1.32,4.72,4.72,0,0,0-.08-.67,4.92,4.92,0,0,0-.1-.67l-.09-.25a8.7,8.7,0,0,0-.43-1c0-.08-.09-.15-.14-.23q-.32-.43-.66-.84a5.67,5.67,0,0,0-1-.86,2.51,2.51,0,0,0-.45-.26,7.56,7.56,0,0,0-1-.4,5.75,5.75,0,0,0-1.08-.16,1.13,1.13,0,0,0-.26,0h-.11a8.06,8.06,0,0,0-1,.13,3.61,3.61,0,0,0-.62.24,3.37,3.37,0,0,0-.61.28,4.38,4.38,0,0,0-1,.82,4.72,4.72,0,0,0-1,1.79,4.92,4.92,0,0,0-.22,1.3,5.8,5.8,0,0,0,.13,1.32,2.07,2.07,0,0,0,.12.49,9.59,9.59,0,0,0,.41,1l.12.23c.12.19.27.37.41.55a4.33,4.33,0,0,0,.43.53,4.66,4.66,0,0,0,1.06.81,4.4,4.4,0,0,0,1.24.49,5,5,0,0,0,2.24,0,2.41,2.41,0,0,0,1.1-.59,3.33,3.33,0,0,0,1.17-3.41l-.33-.78a3.33,3.33,0,0,0-1.16-1.17l-.78-.32a3.18,3.18,0,0,0-1.73,0Z"/><circle class="cls-2" cx="1080.68" cy="878.44" r="0.81"/><circle class="cls-2" cx="1081.49" cy="961.52" r="0.81"/><circle class="cls-2" cx="1050" cy="910.5" r="0.81"/><circle class="cls-2" cx="1141.68" cy="939.44" r="0.81"/><circle class="cls-2" cx="1106.48" cy="1022.79" r="0.81"/><path class="cls-2" d="M1331.85,554.2h.13l-.86-.11a2.25,2.25,0,0,1,.35.09l-.81-.33a1.11,1.11,0,0,1,.3.17l-.66-.52a1.88,1.88,0,0,1,.31.32l-.51-.66a1.76,1.76,0,0,1,.24.42l-.31-.77a3,3,0,0,1,.15.59l-.11-.84a2.29,2.29,0,0,1,0,.64l.12-.86a3.18,3.18,0,0,1-.13.51l.33-.81a1.5,1.5,0,0,1-.22.39l.52-.67a1.14,1.14,0,0,1-.25.24l.67-.5a1.65,1.65,0,0,1-.32.18l.77-.32a1.89,1.89,0,0,1-.34.09l.83-.11h-.34l.86.11a2,2,0,0,1-.35-.09l.8.33a1.79,1.79,0,0,1-.38-.22l.66.52a2.16,2.16,0,0,1-.39-.41l.5.67a2.43,2.43,0,0,1-.31-.54l.32.77a2.73,2.73,0,0,1-.15-.56l.11.84a2.26,2.26,0,0,1,0-.52l-.12.86a1.9,1.9,0,0,1,.11-.39l-.34.8a1.5,1.5,0,0,1,.19-.32l-.52.67a1.23,1.23,0,0,1,.26-.25l-.66.5,0,0a2.46,2.46,0,0,0,.92-.83,3.39,3.39,0,0,0,.28-3.61,3.3,3.3,0,0,0-2-1.52l-.87-.11a3.22,3.22,0,0,0-1.6.43,8.7,8.7,0,0,0-.85.65,6,6,0,0,0-.66.84,4,4,0,0,0-.54,1.23,3.79,3.79,0,0,0-.11.66,5.05,5.05,0,0,0-.07.68,2.28,2.28,0,0,0,0,.26,9.32,9.32,0,0,0,.15,1.06,2,2,0,0,0,.08.26c.12.34.26.67.41,1a6,6,0,0,0,.77,1.09,2.67,2.67,0,0,0,.37.38,8.6,8.6,0,0,0,.85.65,7.47,7.47,0,0,0,1,.43l.24.08.11,0a8,8,0,0,0,1,.12,4.76,4.76,0,0,0,.66-.06,3.93,3.93,0,0,0,.67-.12,4.26,4.26,0,0,0,1.17-.53,4.66,4.66,0,0,0,1.47-1.46,5.31,5.31,0,0,0,.55-1.19,6,6,0,0,0,.22-1.32,2.77,2.77,0,0,0,0-.5c0-.35-.08-.71-.14-1a1.83,1.83,0,0,0-.06-.25,5,5,0,0,0-.25-.64,4.85,4.85,0,0,0-.27-.62,4.48,4.48,0,0,0-.82-1.07,4.18,4.18,0,0,0-1.07-.79,4.85,4.85,0,0,0-2.16-.56,2.33,2.33,0,0,0-1.22.27,2.53,2.53,0,0,0-1,.66,2.45,2.45,0,0,0-.69,1.07,2.48,2.48,0,0,0-.28,1.26l.11.84a3.42,3.42,0,0,0,.82,1.43l.67.52a3.24,3.24,0,0,0,1.67.45Z"/><circle class="cls-2" cx="1201.92" cy="343.83" r="0.81"/><circle class="cls-2" cx="1270.7" cy="482.64" r="0.81"/><circle class="cls-2" cx="1368.68" cy="271.84" r="0.81"/><circle class="cls-2" cx="1222.17" cy="262.89" r="0.81"/><circle class="cls-2" cx="1291.7" cy="250.38" r="0.81"/><circle class="cls-2" cx="1346.9" cy="408.75" r="0.81"/><circle class="cls-2" cx="1243.6" cy="180.68" r="0.81"/><circle class="cls-2" cx="1286.38" cy="725.42" r="0.81"/><circle class="cls-2" cx="1367.34" cy="640.55" r="0.81"/><circle class="cls-2" cx="1320.85" cy="679.24" r="0.81"/><circle class="cls-2" cx="1270.7" cy="129.23" r="0.81"/><circle class="cls-2" cx="1359.2" cy="110.1" r="0.81"/><circle class="cls-2" cx="1305.18" cy="83.04" r="0.81"/><path class="cls-2" d="M136.51,998.58l-.13,0,.86-.11h-.36l.87.11a1.89,1.89,0,0,1-.34-.09l.78.33a1.48,1.48,0,0,1-.38-.23l.66.51a2.32,2.32,0,0,1-.35-.35l.51.66a2.7,2.7,0,0,1-.3-.52l.32.77a2.51,2.51,0,0,1-.17-.61l.12.86a1.81,1.81,0,0,1,0-.52l-.12.86a2.09,2.09,0,0,1,.11-.43l-.32.78a1.28,1.28,0,0,1,.17-.3l-.51.66a1.54,1.54,0,0,1,.26-.25l-.66.51a1.92,1.92,0,0,1,.31-.18l-.78.33a1,1,0,0,1,.33-.09l-.86.11h.37l-.86-.11a2,2,0,0,1,.42.11l-.77-.33a2.92,2.92,0,0,1,.48.29l-.65-.51a3,3,0,0,1,.43.44l-.51-.66a2.1,2.1,0,0,1,.29.5l-.32-.78a2.85,2.85,0,0,1,.14.5l-.12-.86a1.41,1.41,0,0,1,0,.41l.12-.87a1.48,1.48,0,0,1-.1.36l.33-.78a1.44,1.44,0,0,1-.19.31l.51-.66,0,0a3.14,3.14,0,0,0-.67,3.55,2.4,2.4,0,0,0,.67,1,3.25,3.25,0,0,0,2.3,1l.86-.12a3.27,3.27,0,0,0,1.44-.83,7.56,7.56,0,0,0,.64-.85,7.1,7.1,0,0,0,.43-1,4.29,4.29,0,0,0,.2-1.33,4.74,4.74,0,0,0-.07-.67,5.2,5.2,0,0,0-.11-.67,1.06,1.06,0,0,0-.09-.25,9.47,9.47,0,0,0-.42-1l-.15-.23c-.2-.28-.42-.57-.65-.84a6,6,0,0,0-1-.86,3,3,0,0,0-.46-.26,7.56,7.56,0,0,0-1-.4,6.54,6.54,0,0,0-1.08-.16,1,1,0,0,0-.25,0h-.12c-.32,0-.65.07-1,.13a4.67,4.67,0,0,0-.62.24,4.78,4.78,0,0,0-.61.28,4.6,4.6,0,0,0-1,.82,4.85,4.85,0,0,0-1,1.79,5.44,5.44,0,0,0-.22,1.3,6.59,6.59,0,0,0,.13,1.33,4.37,4.37,0,0,0,.12.49c.12.33.27.66.42,1a1.19,1.19,0,0,0,.12.22,4.29,4.29,0,0,0,.4.55,5.52,5.52,0,0,0,.43.53,4.54,4.54,0,0,0,1.07.82,4.5,4.5,0,0,0,1.23.48,5,5,0,0,0,2.24,0,2.52,2.52,0,0,0,1.11-.58,2.57,2.57,0,0,0,.84-.92,2.46,2.46,0,0,0,.38-1.2,2.4,2.4,0,0,0-.06-1.3l-.32-.78a3.18,3.18,0,0,0-1.17-1.16l-.78-.33a3.18,3.18,0,0,0-1.73,0Z"/><path class="cls-2" d="M83.19,885.56l-.14,0,.86-.12a1,1,0,0,1-.35,0l.86.12a1.59,1.59,0,0,1-.33-.09l.77.32a1.63,1.63,0,0,1-.38-.22l.66.51a2.24,2.24,0,0,1-.34-.35l.5.66a2.78,2.78,0,0,1-.3-.53l.33.78a2.6,2.6,0,0,1-.18-.62l.12.87a2.35,2.35,0,0,1,0-.53l-.12.87a2.09,2.09,0,0,1,.11-.43l-.32.78a1.11,1.11,0,0,1,.17-.3l-.51.66a1.6,1.6,0,0,1,.26-.26l-.66.51a1.92,1.92,0,0,1,.31-.18l-.78.33a1.89,1.89,0,0,1,.34-.09l-.87.12a1.15,1.15,0,0,1,.37,0l-.86-.12a1.62,1.62,0,0,1,.43.12l-.78-.33a2,2,0,0,1,.49.29l-.66-.51a2.56,2.56,0,0,1,.43.44l-.51-.66a2.48,2.48,0,0,1,.3.49l-.33-.77a2.19,2.19,0,0,1,.14.5L82.1,887a1.34,1.34,0,0,1,0,.4l.12-.86a1.61,1.61,0,0,1-.1.36l.33-.78a1.17,1.17,0,0,1-.19.3l.51-.65,0,0a3.34,3.34,0,0,0,0,4.59,3.31,3.31,0,0,0,2.3,1l.86-.12a3.19,3.19,0,0,0,1.44-.84,6.75,6.75,0,0,0,.64-.85,7.1,7.1,0,0,0,.43-1,4.29,4.29,0,0,0,.2-1.33,5.08,5.08,0,0,0-.07-.67,5.2,5.2,0,0,0-.11-.67c0-.08,0-.16-.08-.25-.14-.32-.26-.67-.43-1l-.15-.23a10.61,10.61,0,0,0-.65-.85,6.47,6.47,0,0,0-1-.85,2.64,2.64,0,0,0-.46-.27,9.26,9.26,0,0,0-1-.4,7.81,7.81,0,0,0-1.08-.16H83.2c-.32,0-.65.07-1,.14a2.82,2.82,0,0,0-.63.24,3.71,3.71,0,0,0-.61.28,4.6,4.6,0,0,0-1,.82,4.85,4.85,0,0,0-1,1.79,4.9,4.9,0,0,0-.21,1.3,5.85,5.85,0,0,0,.12,1.32,2.72,2.72,0,0,0,.13.49c.12.33.26.66.41,1a1.27,1.27,0,0,0,.12.23,5.12,5.12,0,0,0,.4.55,5.4,5.4,0,0,0,.43.52,4.48,4.48,0,0,0,1.07.82,4.17,4.17,0,0,0,1.24.49,4.8,4.8,0,0,0,2.23,0,2.38,2.38,0,0,0,1.11-.58,2.54,2.54,0,0,0,.84-.91,3.77,3.77,0,0,0,.33-2.51l-.33-.77a3.28,3.28,0,0,0-1.17-1.17l-.78-.33a3.34,3.34,0,0,0-1.72,0Z"/><path class="cls-2" d="M115.51,1504.53l-.14,0,.87-.12a1.09,1.09,0,0,1-.36,0l.87.12a1.89,1.89,0,0,1-.34-.09l.78.32a1.3,1.3,0,0,1-.38-.22l.65.51a2.81,2.81,0,0,1-.34-.35l.51.66a2.82,2.82,0,0,1-.31-.53l.33.78a2.58,2.58,0,0,1-.17-.62l.12.87a1.88,1.88,0,0,1,0-.53l-.11.87a1.6,1.6,0,0,1,.11-.43l-.33.78a1.49,1.49,0,0,1,.18-.3l-.51.66a1.54,1.54,0,0,1,.25-.26l-.65.51a1.11,1.11,0,0,1,.3-.17l-.77.32.33-.09-.86.12a1.15,1.15,0,0,1,.37,0l-.87-.12a1.62,1.62,0,0,1,.43.12l-.78-.33a1.86,1.86,0,0,1,.49.29l-.66-.51a2.62,2.62,0,0,1,.44.44l-.51-.66a3,3,0,0,1,.29.49l-.33-.77a1.78,1.78,0,0,1,.14.5l-.11-.86a1.78,1.78,0,0,1,0,.4l.12-.86a2.42,2.42,0,0,1-.1.36l.32-.78a1.49,1.49,0,0,1-.18.3l.51-.65,0,0a2.46,2.46,0,0,0-.67,1,3,3,0,0,0,0,2.51,2.46,2.46,0,0,0,.67,1,3.28,3.28,0,0,0,2.3,1l.87-.12a3.11,3.11,0,0,0,1.43-.84,6.82,6.82,0,0,0,.65-.85,5.67,5.67,0,0,0,.42-1,4,4,0,0,0,.21-1.33,5.1,5.1,0,0,0-.08-.67,5.16,5.16,0,0,0-.1-.67l-.09-.24a8.7,8.7,0,0,0-.43-1,1.76,1.76,0,0,0-.14-.23c-.21-.29-.43-.58-.66-.84a5.67,5.67,0,0,0-1-.86,2.56,2.56,0,0,0-.45-.27,9.26,9.26,0,0,0-1-.4,8,8,0,0,0-1.08-.16h-.37c-.32,0-.65.07-1,.14a3.61,3.61,0,0,0-.62.24,3.37,3.37,0,0,0-.61.28,4.38,4.38,0,0,0-1,.82,4.72,4.72,0,0,0-1,1.79,4.92,4.92,0,0,0-.22,1.3,5.8,5.8,0,0,0,.13,1.32,2.07,2.07,0,0,0,.12.49c.12.33.26.66.41,1l.12.23c.12.19.27.37.41.55a5.25,5.25,0,0,0,.43.53,4.66,4.66,0,0,0,1.06.81,4.4,4.4,0,0,0,1.24.49,4.85,4.85,0,0,0,2.24,0,3.14,3.14,0,0,0,2.33-2.7,2.5,2.5,0,0,0-.06-1.3l-.33-.77a3.33,3.33,0,0,0-1.16-1.17l-.78-.33a3.38,3.38,0,0,0-1.73,0Z"/><circle class="cls-2" cx="88.22" cy="1294.87" r="0.81"/><circle class="cls-2" cx="51.46" cy="995.71" r="0.81"/><circle class="cls-2" cx="64.42" cy="1054.13" r="0.81"/><circle class="cls-2" cx="131.27" cy="1050.79" r="0.81"/><circle class="cls-2" cx="66.04" cy="1494.13" r="0.81"/><circle class="cls-2" cx="94.23" cy="1370.7" r="0.81"/><circle class="cls-2" cx="84.49" cy="1433.59" r="0.81"/><circle class="cls-2" cx="109.59" cy="1204.43" r="0.81"/><circle class="cls-2" cx="148.77" cy="1419.01" r="0.81"/><path class="cls-2" d="M1354.74,1502.31l-.14,0,.87-.12a1.09,1.09,0,0,1-.36,0l.87.12a1.89,1.89,0,0,1-.34-.09l.78.32a1.3,1.3,0,0,1-.38-.22l.65.51a2.81,2.81,0,0,1-.34-.35l.51.66a2.82,2.82,0,0,1-.31-.53l.33.78a2.58,2.58,0,0,1-.17-.62l.12.87a1.88,1.88,0,0,1,0-.53l-.11.87a1.6,1.6,0,0,1,.11-.43l-.33.78a1.49,1.49,0,0,1,.18-.3l-.51.66a1.54,1.54,0,0,1,.25-.26l-.65.51a1.11,1.11,0,0,1,.3-.17l-.77.32.33-.09-.86.12a1.15,1.15,0,0,1,.37,0l-.87-.12a1.62,1.62,0,0,1,.43.12l-.78-.33a1.86,1.86,0,0,1,.49.29l-.66-.51a2.62,2.62,0,0,1,.44.44l-.51-.66a3,3,0,0,1,.29.49l-.33-.77a1.78,1.78,0,0,1,.14.5l-.11-.86a1.78,1.78,0,0,1,0,.4l.12-.86a2.42,2.42,0,0,1-.1.36l.32-.78a1.49,1.49,0,0,1-.18.3l.51-.65,0,0a2.46,2.46,0,0,0-.67,1,3,3,0,0,0,0,2.51,2.46,2.46,0,0,0,.67,1,3.28,3.28,0,0,0,2.3,1l.87-.12a3.11,3.11,0,0,0,1.43-.84,6.82,6.82,0,0,0,.65-.85,5.67,5.67,0,0,0,.42-1,4,4,0,0,0,.21-1.33,5.1,5.1,0,0,0-.08-.67,5.16,5.16,0,0,0-.1-.67l-.09-.24a8.7,8.7,0,0,0-.43-1,1.76,1.76,0,0,0-.14-.23c-.21-.29-.43-.58-.66-.84a5.67,5.67,0,0,0-1-.86,2.56,2.56,0,0,0-.45-.27,9.26,9.26,0,0,0-1-.4,8,8,0,0,0-1.08-.16h-.37c-.32,0-.65.07-1,.14a3.61,3.61,0,0,0-.62.24,3.37,3.37,0,0,0-.61.28,4.38,4.38,0,0,0-1,.82,4.72,4.72,0,0,0-1,1.79,4.92,4.92,0,0,0-.22,1.3,5.8,5.8,0,0,0,.13,1.32,2.07,2.07,0,0,0,.12.49c.12.33.26.66.41,1l.12.23c.12.19.27.37.41.55a5.25,5.25,0,0,0,.43.53,4.66,4.66,0,0,0,1.06.81,4.4,4.4,0,0,0,1.24.49,4.85,4.85,0,0,0,2.24,0,3.34,3.34,0,0,0,2.27-4l-.33-.77a3.33,3.33,0,0,0-1.16-1.17l-.78-.33a3.38,3.38,0,0,0-1.73,0Z"/><path class="cls-2" d="M1301.41,1389.3l-.13,0,.86-.11h-.36l.87.11a1.89,1.89,0,0,1-.34-.09l.78.33a1.48,1.48,0,0,1-.38-.23l.66.51a1.93,1.93,0,0,1-.35-.35l.51.66a3.4,3.4,0,0,1-.31-.52l.33.77a2.51,2.51,0,0,1-.17-.61l.12.86a2.26,2.26,0,0,1,0-.52l-.11.86a1.53,1.53,0,0,1,.11-.42l-.33.77a2.38,2.38,0,0,1,.18-.3l-.51.66a1.48,1.48,0,0,1,.25-.25l-.65.51a1.57,1.57,0,0,1,.31-.18l-.78.33a1,1,0,0,1,.33-.09l-.86.11a2.28,2.28,0,0,1,.37,0l-.87-.11a2.09,2.09,0,0,1,.43.11l-.77-.32a2.31,2.31,0,0,1,.48.28l-.66-.51a2.62,2.62,0,0,1,.44.44l-.51-.66a2.5,2.5,0,0,1,.29.5l-.33-.78a2.15,2.15,0,0,1,.15.51l-.12-.87a1.41,1.41,0,0,1,0,.41l.12-.87a1.36,1.36,0,0,1-.1.36l.32-.78a1.39,1.39,0,0,1-.18.31l.51-.66,0,0a2.42,2.42,0,0,0-.68,1,2.93,2.93,0,0,0,0,2.5,2.42,2.42,0,0,0,.68,1,3.25,3.25,0,0,0,2.3,1l.86-.11a3.29,3.29,0,0,0,1.43-.84,6.6,6.6,0,0,0,.65-.85,6,6,0,0,0,.42-1,4,4,0,0,0,.21-1.33,4.91,4.91,0,0,0-.08-.67,5.16,5.16,0,0,0-.1-.67l-.09-.25a9.56,9.56,0,0,0-.43-1l-.14-.23c-.21-.28-.42-.57-.66-.84a6,6,0,0,0-1-.86,3,3,0,0,0-.46-.26,7.56,7.56,0,0,0-1-.4,6.71,6.71,0,0,0-1.08-.16h-.37c-.32,0-.65.07-1,.13a4.67,4.67,0,0,0-.62.24,4.78,4.78,0,0,0-.61.28,4.38,4.38,0,0,0-1,.82,4.85,4.85,0,0,0-1,1.79,5.53,5.53,0,0,0-.22,1.3,5.94,5.94,0,0,0,.13,1.33,2.92,2.92,0,0,0,.12.49c.12.33.26.66.41,1l.12.22a5.61,5.61,0,0,0,.41.55,5.52,5.52,0,0,0,.43.53,4.63,4.63,0,0,0,2.3,1.3,5,5,0,0,0,2.24,0,2.58,2.58,0,0,0,1.11-.58,2.5,2.5,0,0,0,.83-.91,2.44,2.44,0,0,0,.39-1.21,2.4,2.4,0,0,0-.06-1.3l-.33-.78a3.22,3.22,0,0,0-1.16-1.16l-.78-.33a3.18,3.18,0,0,0-1.73,0Z"/><path class="cls-2" d="M1333.74,2008.27l-.14,0,.87-.11h-.36l.86.11a1,1,0,0,1-.33-.09l.77.33a2.08,2.08,0,0,1-.38-.22l.66.5a1.88,1.88,0,0,1-.34-.35l.5.66a2.43,2.43,0,0,1-.3-.52l.33.78a2.29,2.29,0,0,1-.17-.62l.11.86a2.26,2.26,0,0,1,0-.52l-.12.86a1.55,1.55,0,0,1,.12-.42l-.33.77a2.28,2.28,0,0,1,.17-.3l-.51.66a1.54,1.54,0,0,1,.26-.25l-.66.51a1.92,1.92,0,0,1,.31-.18l-.78.33a1.89,1.89,0,0,1,.34-.09l-.87.11h.37l-.86-.11a2.09,2.09,0,0,1,.43.11l-.78-.32a2.15,2.15,0,0,1,.49.28l-.66-.51a2.55,2.55,0,0,1,.43.44l-.51-.66a2.55,2.55,0,0,1,.3.5l-.33-.78a1.84,1.84,0,0,1,.14.51l-.12-.87a1.88,1.88,0,0,1,0,.41l.11-.87a1.36,1.36,0,0,1-.1.36l.33-.77a1.83,1.83,0,0,1-.18.3l.5-.66,0,0a2.4,2.4,0,0,0-.67,1,2.93,2.93,0,0,0,0,2.5,2.34,2.34,0,0,0,.67,1,3.25,3.25,0,0,0,2.3,1l.86-.11a3.33,3.33,0,0,0,1.44-.84,6.52,6.52,0,0,0,.64-.85,7.1,7.1,0,0,0,.43-1,4.29,4.29,0,0,0,.2-1.33,3.71,3.71,0,0,0-.07-.67,5.2,5.2,0,0,0-.11-.67,2.41,2.41,0,0,0-.08-.25c-.14-.33-.26-.67-.43-1a1.82,1.82,0,0,0-.15-.23,10.61,10.61,0,0,0-.65-.85,6.47,6.47,0,0,0-1-.85,1.92,1.92,0,0,0-.46-.27,7,7,0,0,0-1-.4,6.54,6.54,0,0,0-1.08-.16h-.37c-.32,0-.65.07-1,.13a3.8,3.8,0,0,0-.62.24,3.69,3.69,0,0,0-1.61,1.1,4.7,4.7,0,0,0-1.25,3.09,5.41,5.41,0,0,0,.13,1.33,2.19,2.19,0,0,0,.12.49c.12.33.26.66.41,1a.94.94,0,0,0,.12.22c.12.2.27.37.4.55a5.52,5.52,0,0,0,.43.53,4.69,4.69,0,0,0,1.07.82,4.15,4.15,0,0,0,1.24.48,5,5,0,0,0,2.24,0,2.39,2.39,0,0,0,1.1-.58,2.53,2.53,0,0,0,.84-.91,2.43,2.43,0,0,0,.38-1.21,2.49,2.49,0,0,0,0-1.3l-.33-.78a3.25,3.25,0,0,0-1.17-1.16l-.77-.33a3.18,3.18,0,0,0-1.73,0Z"/><circle class="cls-2" cx="1306.45" cy="1798.6" r="0.81"/><circle class="cls-2" cx="1269.68" cy="1499.44" r="0.81"/><circle class="cls-2" cx="1282.65" cy="1557.86" r="0.81"/><circle class="cls-2" cx="1349.49" cy="1554.53" r="0.81"/><circle class="cls-2" cx="1284.27" cy="1997.87" r="0.81"/><circle class="cls-2" cx="1312.45" cy="1874.43" r="0.81"/><circle class="cls-2" cx="1302.72" cy="1937.32" r="0.81"/><circle class="cls-2" cx="1327.82" cy="1708.17" r="0.81"/><circle class="cls-2" cx="1367" cy="1922.75" r="0.81"/><path class="cls-2" d="M1359.56,2515.18l-.13,0,.86-.11a1.45,1.45,0,0,1-.36,0l.87.12a1.89,1.89,0,0,1-.34-.09l.78.33a1.6,1.6,0,0,1-.38-.23l.65.51a2.26,2.26,0,0,1-.34-.35l.51.66a2.75,2.75,0,0,1-.31-.52l.33.77a2.51,2.51,0,0,1-.17-.61l.12.86a1.81,1.81,0,0,1,0-.52l-.11.86a1.6,1.6,0,0,1,.11-.43l-.33.78a1.83,1.83,0,0,1,.18-.3l-.51.66a1.48,1.48,0,0,1,.25-.25l-.65.51a1.49,1.49,0,0,1,.3-.18l-.77.33a1,1,0,0,1,.33-.09l-.86.11a2.28,2.28,0,0,1,.37,0l-.87-.11a2.09,2.09,0,0,1,.43.11l-.78-.33a2.64,2.64,0,0,1,.49.29l-.66-.51a2.62,2.62,0,0,1,.44.44l-.51-.66a3.1,3.1,0,0,1,.29.5l-.33-.78a1.78,1.78,0,0,1,.14.5l-.11-.86a1.87,1.87,0,0,1,0,.41l.12-.87a2.12,2.12,0,0,1-.1.36l.32-.78a1.92,1.92,0,0,1-.18.31l.51-.66,0,0a2.36,2.36,0,0,0-.68,1,2.93,2.93,0,0,0,0,2.5,2.42,2.42,0,0,0,.68,1.05,3.23,3.23,0,0,0,2.29.95l.87-.12a3.18,3.18,0,0,0,1.43-.83,7.64,7.64,0,0,0,.65-.85,6,6,0,0,0,.42-1,4,4,0,0,0,.21-1.33,4.72,4.72,0,0,0-.08-.67,5.16,5.16,0,0,0-.1-.67l-.09-.25a9.56,9.56,0,0,0-.43-1c0-.08-.09-.15-.14-.23a10.59,10.59,0,0,0-.66-.84,6,6,0,0,0-1-.86,3,3,0,0,0-.46-.26,7.56,7.56,0,0,0-1-.4,6.71,6.71,0,0,0-1.08-.16,1.13,1.13,0,0,0-.26,0h-.11a8.06,8.06,0,0,0-1,.13,4.67,4.67,0,0,0-.62.24,4.78,4.78,0,0,0-.61.28,4.38,4.38,0,0,0-1,.82,4.72,4.72,0,0,0-1,1.79,5,5,0,0,0-.22,1.3,5.94,5.94,0,0,0,.13,1.33,2.19,2.19,0,0,0,.12.49c.12.33.26.66.41,1l.12.22a5.61,5.61,0,0,0,.41.55,4.33,4.33,0,0,0,.43.53,4.63,4.63,0,0,0,2.3,1.3,5,5,0,0,0,2.24,0,2.58,2.58,0,0,0,1.11-.58,2.46,2.46,0,0,0,.83-.92,3.58,3.58,0,0,0,.33-2.5l-.33-.78a3.22,3.22,0,0,0-1.16-1.16l-.78-.33a3.18,3.18,0,0,0-1.73,0Z"/><path class="cls-2" d="M1367.31,2456.71l-.14,0,.87-.11a2.16,2.16,0,0,1-.36,0l.86.11a2,2,0,0,1-.33-.09l.77.33a1.68,1.68,0,0,1-.38-.23l.66.51a1.88,1.88,0,0,1-.34-.35l.51.66a2.31,2.31,0,0,1-.31-.52l.33.77a2.51,2.51,0,0,1-.17-.61l.11.86a2.26,2.26,0,0,1,0-.52l-.12.86a1.55,1.55,0,0,1,.12-.42l-.33.77a2.28,2.28,0,0,1,.17-.3l-.5.66a1.18,1.18,0,0,1,.25-.25l-.66.51a1.92,1.92,0,0,1,.31-.18l-.78.33a1,1,0,0,1,.34-.09l-.87.11h.37l-.86-.11a2.09,2.09,0,0,1,.43.11l-.78-.33a2.64,2.64,0,0,1,.49.29l-.66-.51a2.55,2.55,0,0,1,.43.44l-.51-.66a2.55,2.55,0,0,1,.3.5l-.33-.78a1.75,1.75,0,0,1,.14.51l-.12-.87a1.88,1.88,0,0,1,0,.41l.11-.87a1.36,1.36,0,0,1-.1.36l.33-.78a1.92,1.92,0,0,1-.18.31l.51-.66,0,0a3.36,3.36,0,0,0,0,4.6,3.25,3.25,0,0,0,2.3.95l.87-.11a3.35,3.35,0,0,0,1.43-.84,6.52,6.52,0,0,0,.64-.85,6.07,6.07,0,0,0,.43-1,4,4,0,0,0,.2-1.33,3.71,3.71,0,0,0-.07-.67,5.2,5.2,0,0,0-.11-.67,1.83,1.83,0,0,0-.08-.25c-.14-.33-.26-.67-.43-1,0-.07-.09-.15-.15-.23-.2-.28-.42-.57-.65-.84a6,6,0,0,0-1-.86,2.28,2.28,0,0,0-.46-.26,7,7,0,0,0-1-.4,6.39,6.39,0,0,0-1.08-.16,1,1,0,0,0-.25,0h-.12c-.32,0-.65.07-1,.13a3.8,3.8,0,0,0-.62.24,3.69,3.69,0,0,0-1.61,1.1,4.87,4.87,0,0,0-1,1.79,5.5,5.5,0,0,0-.21,1.3,5.41,5.41,0,0,0,.13,1.33,2.19,2.19,0,0,0,.12.49c.12.33.26.66.41,1a2.39,2.39,0,0,0,.12.22c.12.2.27.37.4.55a5.52,5.52,0,0,0,.43.53,5,5,0,0,0,1.07.82,4.44,4.44,0,0,0,1.24.48,5,5,0,0,0,2.24,0,3.62,3.62,0,0,0,1.94-1.5,2.37,2.37,0,0,0,.39-1.2,2.6,2.6,0,0,0-.06-1.3l-.33-.78a3.25,3.25,0,0,0-1.17-1.16l-.77-.33a3.18,3.18,0,0,0-1.73,0Z"/><path class="cls-2" d="M1356.13,3078.79l-.13,0,.86-.11a2.16,2.16,0,0,1-.36,0l.87.11a1,1,0,0,1-.34-.09l.78.33a1.79,1.79,0,0,1-.38-.22l.66.5a1.93,1.93,0,0,1-.35-.35l.51.66a2.43,2.43,0,0,1-.3-.52l.32.78a2.72,2.72,0,0,1-.17-.62l.12.86a2.25,2.25,0,0,1,0-.52l-.11.86a2,2,0,0,1,.11-.42l-.32.77a1.52,1.52,0,0,1,.17-.3l-.51.66a1.54,1.54,0,0,1,.26-.25l-.66.51a1.57,1.57,0,0,1,.31-.18l-.78.33a2,2,0,0,1,.33-.09l-.86.11h.37l-.86-.11a2,2,0,0,1,.42.11l-.77-.32a2.31,2.31,0,0,1,.48.28l-.65-.5a2.5,2.5,0,0,1,.43.43l-.51-.65a1.86,1.86,0,0,1,.29.49l-.32-.78a3,3,0,0,1,.14.51l-.12-.87a1.41,1.41,0,0,1,0,.41l.12-.87a1.36,1.36,0,0,1-.1.36l.33-.77a1.17,1.17,0,0,1-.19.3l.51-.66,0,0a2.46,2.46,0,0,0-.67,1,3.36,3.36,0,0,0,.67,3.55,3.25,3.25,0,0,0,2.3.95l.86-.11a3.39,3.39,0,0,0,1.44-.84,7.56,7.56,0,0,0,.64-.85,7.1,7.1,0,0,0,.43-1,4.29,4.29,0,0,0,.2-1.33c0-.22,0-.45-.07-.67a5.2,5.2,0,0,0-.11-.67,1.25,1.25,0,0,0-.09-.25,7.1,7.1,0,0,0-.43-1,1.76,1.76,0,0,0-.14-.23,10.61,10.61,0,0,0-.65-.85,6.47,6.47,0,0,0-1-.85,2.4,2.4,0,0,0-.46-.27,7.56,7.56,0,0,0-1-.4,6.54,6.54,0,0,0-1.08-.16h-.37c-.32,0-.65.07-1,.14a3.56,3.56,0,0,0-.62.23,4.78,4.78,0,0,0-.61.28,4.91,4.91,0,0,0-1,.82,5,5,0,0,0-1,1.8,5.37,5.37,0,0,0-.22,1.29,6.59,6.59,0,0,0,.13,1.33,3.89,3.89,0,0,0,.12.49c.12.33.27.66.42,1a1.51,1.51,0,0,0,.11.22,4.62,4.62,0,0,0,.41.55,5.52,5.52,0,0,0,.43.53,4.29,4.29,0,0,0,1.07.82,3.94,3.94,0,0,0,1.23.48,4.85,4.85,0,0,0,2.24,0,2.42,2.42,0,0,0,1.11-.58,2.86,2.86,0,0,0,1.22-2.12,2.4,2.4,0,0,0-.06-1.3l-.32-.78a3.33,3.33,0,0,0-1.17-1.16l-.78-.33a3.18,3.18,0,0,0-1.73,0Z"/><circle class="cls-2" cx="1274.5" cy="2512.31" r="0.81"/><circle class="cls-2" cx="1287.47" cy="2570.73" r="0.81"/><circle class="cls-2" cx="1354.31" cy="2567.39" r="0.81"/><circle class="cls-2" cx="1289.09" cy="3010.73" r="0.81"/><circle class="cls-2" cx="1307.54" cy="2950.19" r="0.81"/><circle class="cls-2" cx="1371.82" cy="2935.61" r="0.81"/><path class="cls-2" d="M1340.8,2785.71a20.26,20.26,0,1,1-20.26-20.26A20.26,20.26,0,0,1,1340.8,2785.71Zm-20.26-19.91a19.91,19.91,0,1,0,19.91,19.91A19.91,19.91,0,0,0,1320.54,2765.8Z"/><path class="cls-2" d="M1295.35,2745.25a10.13,10.13,0,1,1-10.13-10.13A10.13,10.13,0,0,1,1295.35,2745.25Zm-10.13-10a10,10,0,1,0,10,10A10,10,0,0,0,1285.22,2735.29Z"/><path class="cls-2" d="M1335.78,2683.23a10.13,10.13,0,1,1-10.13-10.13A10.14,10.14,0,0,1,1335.78,2683.23Zm-10.13-9.95a9.95,9.95,0,1,0,9.95,9.95A10,10,0,0,0,1325.65,2673.28Z"/><circle class="cls-2" cx="1303.54" cy="2735.12" r="0.81"/><circle class="cls-2" cx="1286.03" cy="2691.99" r="0.81"/><circle class="cls-2" cx="1340.8" cy="2746.06" r="0.81"/><path class="cls-2" d="M58,1886.36l-.14,0,.87-.12a1.09,1.09,0,0,1-.36,0l.86.12-.33-.09.78.32a1.3,1.3,0,0,1-.38-.22l.65.51a2.24,2.24,0,0,1-.34-.35l.51.66a2.37,2.37,0,0,1-.31-.53l.33.78a2.58,2.58,0,0,1-.17-.62l.12.87a1.88,1.88,0,0,1,0-.53l-.12.87a2.11,2.11,0,0,1,.12-.43l-.33.78a1.49,1.49,0,0,1,.18-.3l-.51.66a1.54,1.54,0,0,1,.25-.26l-.66.51a1.92,1.92,0,0,1,.31-.18l-.77.33a1.59,1.59,0,0,1,.33-.09l-.86.12a1.15,1.15,0,0,1,.37,0l-.87-.12a1.62,1.62,0,0,1,.43.12l-.78-.33a1.86,1.86,0,0,1,.49.29l-.66-.51a2.62,2.62,0,0,1,.44.44l-.51-.66a3,3,0,0,1,.29.49l-.33-.77a1.78,1.78,0,0,1,.14.5l-.11-.86a2.67,2.67,0,0,1,0,.4l.11-.86a1.21,1.21,0,0,1-.1.36l.33-.78a1.49,1.49,0,0,1-.18.3l.51-.65,0,0a3.34,3.34,0,0,0,0,4.59,3.28,3.28,0,0,0,2.3,1l.87-.12a3.11,3.11,0,0,0,1.43-.84,6.82,6.82,0,0,0,.65-.85,6,6,0,0,0,.42-1,3.77,3.77,0,0,0,.2-1.33,3.81,3.81,0,0,0-.07-.67,5.16,5.16,0,0,0-.1-.67l-.09-.24a8.7,8.7,0,0,0-.43-1,1.76,1.76,0,0,0-.14-.23c-.21-.29-.43-.58-.66-.85a6.47,6.47,0,0,0-1-.85,2.56,2.56,0,0,0-.45-.27,9.26,9.26,0,0,0-1-.4,8,8,0,0,0-1.08-.16h-.37c-.32,0-.66.07-1,.14a3.32,3.32,0,0,0-.62.24,3.37,3.37,0,0,0-.61.28,4.17,4.17,0,0,0-1,.82,4.87,4.87,0,0,0-1,1.79,5.34,5.34,0,0,0-.21,1.3,5.28,5.28,0,0,0,.13,1.32,2.07,2.07,0,0,0,.12.49c.12.33.26.66.41,1l.12.23c.12.19.27.37.41.55s.27.37.42.53a4.94,4.94,0,0,0,1.07.81,4.28,4.28,0,0,0,1.24.49,4.85,4.85,0,0,0,2.24,0,3.14,3.14,0,0,0,2.33-2.7,2.61,2.61,0,0,0-.06-1.3l-.33-.77a3.33,3.33,0,0,0-1.16-1.17l-.78-.33a3.38,3.38,0,0,0-1.73,0Z"/><path class="cls-2" d="M120.45,1663.14l-.14,0,.87-.12a1.09,1.09,0,0,1-.36,0l.86.12-.33-.09.77.32a1.63,1.63,0,0,1-.38-.22l.66.51a1.88,1.88,0,0,1-.34-.35l.5.66a2.78,2.78,0,0,1-.3-.53l.33.78a2.19,2.19,0,0,1-.17-.62l.11.87a2.35,2.35,0,0,1,0-.53l-.12.87a1.62,1.62,0,0,1,.12-.43l-.33.78a1.46,1.46,0,0,1,.17-.3l-.51.66a1.6,1.6,0,0,1,.26-.26l-.66.51a1.34,1.34,0,0,1,.31-.17l-.78.32a1.89,1.89,0,0,1,.34-.09l-.87.12a1.15,1.15,0,0,1,.37,0l-.86-.12a1.62,1.62,0,0,1,.43.12l-.78-.33a2,2,0,0,1,.49.29l-.66-.51a2.56,2.56,0,0,1,.43.44l-.51-.66a2.48,2.48,0,0,1,.3.49l-.33-.77a2.19,2.19,0,0,1,.14.5l-.12-.86a1.34,1.34,0,0,1,0,.4l.12-.86a1.61,1.61,0,0,1-.1.36l.33-.78a1.92,1.92,0,0,1-.18.31l.5-.66,0,0a3.34,3.34,0,0,0,0,4.59,3.26,3.26,0,0,0,2.3,1l.86-.12a3.14,3.14,0,0,0,1.44-.84,5.91,5.91,0,0,0,.64-.85,6.61,6.61,0,0,0,.43-1,4.25,4.25,0,0,0,.2-1.33,5.08,5.08,0,0,0-.07-.67,5.2,5.2,0,0,0-.11-.67,2.25,2.25,0,0,0-.08-.24c-.14-.33-.26-.68-.43-1a1.82,1.82,0,0,0-.15-.23,8.94,8.94,0,0,0-.65-.84,6,6,0,0,0-1-.86,2.32,2.32,0,0,0-.46-.27,8.48,8.48,0,0,0-1-.4,7.81,7.81,0,0,0-1.08-.16h-.25l-.12,0a7.64,7.64,0,0,0-1,.13,3.07,3.07,0,0,0-.62.24,3.46,3.46,0,0,0-.62.28,4.33,4.33,0,0,0-1,.82,4.74,4.74,0,0,0-1,1.79,4.9,4.9,0,0,0-.21,1.3,5.79,5.79,0,0,0,.12,1.32,2.72,2.72,0,0,0,.13.49c.12.33.26.66.41,1a1,1,0,0,0,.12.23,5.12,5.12,0,0,0,.4.55,5.52,5.52,0,0,0,.43.53,4.94,4.94,0,0,0,1.07.81,4.17,4.17,0,0,0,1.24.49,4.8,4.8,0,0,0,2.23,0,2.38,2.38,0,0,0,1.11-.58,2.54,2.54,0,0,0,.84-.91,2.4,2.4,0,0,0,.38-1.21,2.5,2.5,0,0,0,0-1.3l-.33-.77a3.28,3.28,0,0,0-1.17-1.17l-.78-.33a3.34,3.34,0,0,0-1.72,0Z"/><circle class="cls-2" cx="83.14" cy="2014.49" r="0.81"/><circle class="cls-2" cx="46.38" cy="1715.33" r="0.81"/><circle class="cls-2" cx="59.35" cy="1773.75" r="0.81"/><circle class="cls-2" cx="126.19" cy="1770.41" r="0.81"/><circle class="cls-2" cx="89.15" cy="2090.31" r="0.81"/><circle class="cls-2" cx="104.51" cy="1924.05" r="0.81"/><path class="cls-2" d="M141.67,2515.92l-.14,0,.87-.11a2.16,2.16,0,0,1-.36,0l.86.11a2,2,0,0,1-.33-.09l.77.33a2.14,2.14,0,0,1-.38-.23l.66.51a1.88,1.88,0,0,1-.34-.35l.51.66a2.31,2.31,0,0,1-.31-.52l.33.77a2.51,2.51,0,0,1-.17-.61l.11.86a2.26,2.26,0,0,1,0-.52l-.12.86a1.62,1.62,0,0,1,.12-.43l-.33.78a1.78,1.78,0,0,1,.17-.3l-.5.66a1.18,1.18,0,0,1,.25-.25l-.66.51a1.92,1.92,0,0,1,.31-.18l-.78.33a1,1,0,0,1,.34-.09l-.87.11a2.28,2.28,0,0,1,.37,0l-.86-.11a2.09,2.09,0,0,1,.43.11l-.78-.33a2.64,2.64,0,0,1,.49.29l-.66-.51a2.55,2.55,0,0,1,.43.44l-.51-.66a2.55,2.55,0,0,1,.3.5l-.33-.78a1.78,1.78,0,0,1,.14.5l-.12-.86a1.88,1.88,0,0,1,0,.41l.11-.87a1.48,1.48,0,0,1-.1.36l.33-.78a1.92,1.92,0,0,1-.18.31l.51-.66,0,0a2.34,2.34,0,0,0-.67,1.05,3.36,3.36,0,0,0,.67,3.55,3.25,3.25,0,0,0,2.3,1l.87-.12a3.23,3.23,0,0,0,1.43-.83,6.52,6.52,0,0,0,.64-.85,6.07,6.07,0,0,0,.43-1,4,4,0,0,0,.2-1.33,3.62,3.62,0,0,0-.07-.67,5.2,5.2,0,0,0-.11-.67,1.83,1.83,0,0,0-.08-.25c-.14-.33-.26-.67-.43-1,0-.08-.09-.15-.15-.23-.2-.28-.42-.57-.65-.84a6,6,0,0,0-1-.86,2.28,2.28,0,0,0-.46-.26,7,7,0,0,0-1-.4,6.39,6.39,0,0,0-1.08-.16,1,1,0,0,0-.25,0h-.12c-.32,0-.65.07-1,.13a3.8,3.8,0,0,0-.62.24,3.69,3.69,0,0,0-1.61,1.1,4.87,4.87,0,0,0-1,1.79,5.16,5.16,0,0,0-.08,2.63,2.19,2.19,0,0,0,.12.49c.12.33.26.66.41,1a2.39,2.39,0,0,0,.12.22c.12.2.27.37.4.55a5.52,5.52,0,0,0,.43.53,5,5,0,0,0,1.07.82,4.44,4.44,0,0,0,1.24.48,5,5,0,0,0,2.24,0,3.62,3.62,0,0,0,1.94-1.5,2.37,2.37,0,0,0,.39-1.2,2.6,2.6,0,0,0-.06-1.3l-.33-.78a3.18,3.18,0,0,0-1.17-1.16l-.77-.33a3.18,3.18,0,0,0-1.73,0Z"/><path class="cls-2" d="M83.4,2427.69l-.13,0,.86-.12a1.09,1.09,0,0,1-.36,0l.87.12a1.89,1.89,0,0,1-.34-.09l.78.33a1.83,1.83,0,0,1-.38-.23l.66.51a1.93,1.93,0,0,1-.35-.35l.51.66a2.5,2.5,0,0,1-.3-.53l.32.78a2.58,2.58,0,0,1-.17-.62l.12.87a2.27,2.27,0,0,1,0-.52l-.11.86a1.6,1.6,0,0,1,.11-.43l-.33.78a1.49,1.49,0,0,1,.18-.3l-.51.66a1.23,1.23,0,0,1,.26-.25l-.66.5a1.17,1.17,0,0,1,.31-.17l-.78.32a2,2,0,0,1,.33-.09l-.86.12a1.15,1.15,0,0,1,.37,0l-.87-.12a1.62,1.62,0,0,1,.43.12l-.77-.33a2.36,2.36,0,0,1,.48.29l-.65-.51a3,3,0,0,1,.43.44l-.51-.66a2.25,2.25,0,0,1,.29.5l-.33-.78a2.21,2.21,0,0,1,.15.5l-.12-.86a1.34,1.34,0,0,1,0,.4l.12-.86a1.61,1.61,0,0,1-.1.36l.33-.78a1.44,1.44,0,0,1-.19.31l.51-.66,0,0a2.48,2.48,0,0,0-.68,1,3.33,3.33,0,0,0,.68,3.56,3.3,3.3,0,0,0,2.3.95l.86-.12a3.27,3.27,0,0,0,1.44-.83,7.67,7.67,0,0,0,.64-.86,5.67,5.67,0,0,0,.42-1,4,4,0,0,0,.21-1.33c0-.22,0-.45-.07-.66a4.93,4.93,0,0,0-.11-.67,1.06,1.06,0,0,0-.09-.25,7.22,7.22,0,0,0-.43-1c0-.08-.09-.15-.14-.23-.21-.29-.42-.57-.65-.84a6.44,6.44,0,0,0-1-.86,2.35,2.35,0,0,0-.46-.26,7.56,7.56,0,0,0-1-.4,5.63,5.63,0,0,0-1.08-.16,1.07,1.07,0,0,0-.25,0h-.12a8.06,8.06,0,0,0-1,.13,3.61,3.61,0,0,0-.62.24,3.71,3.71,0,0,0-.61.28,4.6,4.6,0,0,0-1,.82,4.85,4.85,0,0,0-1,1.79,5.36,5.36,0,0,0-.22,1.3,6.42,6.42,0,0,0,.13,1.32,2.7,2.7,0,0,0,.12.49c.12.34.27.66.41,1l.12.23c.12.19.27.37.41.55a5.52,5.52,0,0,0,.43.53,4.5,4.5,0,0,0,1.07.81,4.22,4.22,0,0,0,1.23.49,5,5,0,0,0,2.24,0,2.49,2.49,0,0,0,1.11-.59,2.43,2.43,0,0,0,.83-.91,3.6,3.6,0,0,0,.33-2.5l-.33-.78a3.18,3.18,0,0,0-1.16-1.17l-.78-.33a3.38,3.38,0,0,0-1.73,0Z"/><path class="cls-2" d="M120.66,3021.87l-.13,0,.86-.12a1.09,1.09,0,0,1-.36,0l.87.12a1.89,1.89,0,0,1-.34-.09l.78.32a1.45,1.45,0,0,1-.38-.22l.66.51a2.89,2.89,0,0,1-.35-.35l.51.66a2.78,2.78,0,0,1-.3-.53l.32.78a2.58,2.58,0,0,1-.17-.62l.12.87a2.35,2.35,0,0,1,0-.53l-.11.87a2.09,2.09,0,0,1,.11-.43l-.32.78a1.11,1.11,0,0,1,.17-.3l-.51.66a1.6,1.6,0,0,1,.26-.26l-.66.51a1.17,1.17,0,0,1,.31-.17l-.78.32a2,2,0,0,1,.33-.09l-.86.12a1.15,1.15,0,0,1,.37,0l-.86-.12a1.55,1.55,0,0,1,.42.12l-.77-.33a2,2,0,0,1,.48.29l-.65-.51a2.56,2.56,0,0,1,.43.44l-.51-.66a2,2,0,0,1,.29.49l-.32-.77a2.85,2.85,0,0,1,.14.5l-.12-.86a1.34,1.34,0,0,1,0,.4l.12-.86a1.61,1.61,0,0,1-.1.36l.33-.78a1.17,1.17,0,0,1-.19.3l.51-.65,0,0a3.34,3.34,0,0,0,0,4.59,3.26,3.26,0,0,0,2.3,1l.86-.12a3.19,3.19,0,0,0,1.44-.84,6.75,6.75,0,0,0,.64-.85,6.61,6.61,0,0,0,.43-1,4.25,4.25,0,0,0,.2-1.33,5.08,5.08,0,0,0-.07-.67,5.2,5.2,0,0,0-.11-.67,1.17,1.17,0,0,0-.09-.24,7.22,7.22,0,0,0-.43-1,1.76,1.76,0,0,0-.14-.23,8.94,8.94,0,0,0-.65-.84,6,6,0,0,0-1-.86,3.07,3.07,0,0,0-.46-.27,9.26,9.26,0,0,0-1-.4,7.81,7.81,0,0,0-1.08-.16h-.37c-.32,0-.65.07-1,.14a3.61,3.61,0,0,0-.62.24,3.71,3.71,0,0,0-.61.28,4.6,4.6,0,0,0-1,.82,4.85,4.85,0,0,0-1,1.79,5.36,5.36,0,0,0-.22,1.3,6.42,6.42,0,0,0,.13,1.32,3.89,3.89,0,0,0,.12.49c.12.33.27.66.42,1a2.4,2.4,0,0,0,.11.23c.12.19.27.37.41.55s.27.37.43.53a4.5,4.5,0,0,0,1.07.81,4.22,4.22,0,0,0,1.23.49,4.85,4.85,0,0,0,2.24,0,2.42,2.42,0,0,0,1.11-.58,2.54,2.54,0,0,0,.84-.91,2.5,2.5,0,0,0,.38-1.21,2.4,2.4,0,0,0-.06-1.3l-.32-.77a3.28,3.28,0,0,0-1.17-1.17l-.78-.33a3.38,3.38,0,0,0-1.73,0Z"/><circle class="cls-2" cx="56.61" cy="2513.05" r="0.81"/><circle class="cls-2" cx="68.77" cy="2633.28" r="0.81"/><circle class="cls-2" cx="136.42" cy="2568.13" r="0.81"/><circle class="cls-2" cx="71.65" cy="3080.59" r="0.81"/><circle class="cls-2" cx="77.87" cy="2887.92" r="0.81"/><circle class="cls-2" cx="147.1" cy="2935.54" r="0.81"/><circle class="cls-2" cx="1285.58" cy="936.34" r="0.81"/><circle class="cls-2" cx="1274.17" cy="1054.27" r="0.81"/><circle class="cls-2" cx="1372.15" cy="843.47" r="0.81"/><circle class="cls-2" cx="1295.17" cy="822.02" r="0.81"/><circle class="cls-2" cx="1350.37" cy="980.38" r="0.81"/><circle class="cls-2" cx="1370.81" cy="1212.18" r="0.81"/><circle class="cls-2" cx="1324.32" cy="1250.87" r="0.81"/><circle class="cls-2" cx="1174.31" cy="2011.98" r="0.81"/><circle class="cls-2" cx="1128.56" cy="1985.38" r="0.81"/><circle class="cls-2" cx="1075.15" cy="2007.74" r="0.81"/><circle class="cls-2" cx="1190.34" cy="2541.24" r="0.81"/><circle class="cls-2" cx="1127.75" cy="2494.53" r="0.81"/><circle class="cls-2" cx="1091.18" cy="2537.01" r="0.81"/><circle class="cls-2" cx="1192.77" cy="2424.79" r="0.81"/><circle class="cls-2" cx="1164.55" cy="2478.11" r="0.81"/><circle class="cls-2" cx="1098.82" cy="2428.69" r="0.81"/><circle class="cls-2" cx="1334.35" cy="2456.9" r="0.81"/><circle class="cls-2" cx="1288.6" cy="2430.31" r="0.81"/><circle class="cls-2" cx="1235.18" cy="2452.67" r="0.81"/><circle class="cls-2" cx="223.38" cy="2839.18" r="0.81"/><circle class="cls-2" cx="203.55" cy="2979.59" r="0.81"/><circle class="cls-2" cx="258.64" cy="2996.51" r="0.81"/><circle class="cls-2" cx="195.97" cy="2901.78" r="0.81"/><circle class="cls-2" cx="321.52" cy="2967.68" r="0.81"/><circle class="cls-2" cx="355.99" cy="2921.5" r="0.81"/><rect class="cls-3" x="333.28" y="490.14" width="1.79" height="1275.78"/><rect class="cls-3" x="333.28" y="1765.92" width="1.79" height="1243.92"/><path class="cls-3" d="M357.35,1388.79l-16.61-2.88a7.22,7.22,0,0,0-4.06-4.19l-2.51-16.1-2.59,15.94.16,0a7.16,7.16,0,0,0-4.62,4.7l-16.12,2.5,16.56,3v-.07a7.24,7.24,0,0,0,4.16,3.59l-.14,0,2.59,16.69,2.64-16.89a7.23,7.23,0,0,0,3.84-3.85v.16Z"/></g><g id="desing"><g class="cls-4"><image width="4128" height="2322" transform="translate(-1534.27 -345.31) scale(0.45)" xlink:href="20180914_134200gggg.png"/></g></g></svg>