<svg xmlns="http://www.w3.org/2000/svg" viewBox="0 0 1400 3081.32"><rect x="331.43" y="280.81" width="1.79" height="1275.78" style="fill:#20c9ac"/><rect x="331.43" y="1556.59" width="1.79" height="1243.92" style="fill:#20c9ac"/><path d="M185.41,2763.57a1.51,1.51,0,0,1-1.13,1.82,1.53,1.53,0,0,1-1-.1l-25.51,35.1a.82.82,0,0,1,.18.36,1,1,0,0,1-.72,1.15.93.93,0,0,1-.89-.26l-5.88,2.65a.93.93,0,0,1-.75.95,1,1,0,0,1-1.14-.67l-7.07-1.23a.89.89,0,0,1-.67.57,1,1,0,0,1-.91-.27l-10,8.63a.3.3,0,0,1,0,.1,1,1,0,0,1-1.88.43.53.53,0,0,1,0-.12L96.45,2806a1.51,1.51,0,0,1-2.84-.29h0l-53,.46a.94.94,0,0,1-.73.83,1,1,0,0,1-1.15-.73,1,1,0,0,1,1.86-.48l53-.45a1.47,1.47,0,0,1,1.15-1.43,1.51,1.51,0,0,1,1.82,1.14,1.57,1.57,0,0,1,0,.61l31.58,6.66a1,1,0,0,1,.67-.65l3.2-30.14a1.51,1.51,0,0,1-1.11-2.53l-21-18.07a1.18,1.18,0,0,1-.45.22,1.14,1.14,0,1,1,.85-1.36,1.12,1.12,0,0,1-.14.86l21.11,18.1a1.49,1.49,0,0,1,.45-.19,1.51,1.51,0,0,1,.73,2.92l-3.24,30.17a1,1,0,0,1,.56.29l10-8.59a.34.34,0,0,1,0-.14,1,1,0,0,1,.72-1.15,1,1,0,0,1,1.15.72.35.35,0,0,1,0,.17l7,1.2a1,1,0,0,1,.73-.76,1,1,0,0,1,1.07.51l5.77-2.59a.25.25,0,0,1,0-.11.94.94,0,0,1,.72-1.15.91.91,0,0,1,.63.07l25.51-35a1.56,1.56,0,0,1-.49-.83l-20.18,4.53a1,1,0,0,1-.7.65,1,1,0,0,1-1.15-.72,1,1,0,0,1,.08-.65l-12.66-19.32a1,1,0,0,1-1.12-.73,1,1,0,0,1,.69-1.14l7-39.77a1.23,1.23,0,0,1-.76-.89,1.29,1.29,0,1,1,2.52-.57,1.28,1.28,0,0,1-1,1.54.91.91,0,0,1-.4,0l-7,39.65a.94.94,0,0,1,.77.73,1,1,0,0,1-.38,1l12.55,19.16a.89.89,0,0,1,.38-.18,1,1,0,0,1,1.16.72l0,.09,20.1-4.51a1.48,1.48,0,0,1,1.15-1.41A1.5,1.5,0,0,1,185.41,2763.57Z" style="fill:#8368cf"/><path d="M1007.85,2463.56s1.23,17.27-11,17.07c0,0,11.19,1.09,12.49,16.93,0,0-1.3-15.84,10.87-16.55C1020.23,2481,1008.6,2477.71,1007.85,2463.56Z" style="fill:#8368cf"/><path d="M61.69,342.3s1.23,17.26-11,17.06c0,0,11.18,1.09,12.49,16.93,0,0-1.31-15.84,10.86-16.55C74.07,359.74,62.44,356.44,61.69,342.3Z" style="fill:#8368cf"/><path d="M1285,353.27a10.13,10.13,0,1,1,10.13,10.13A10.13,10.13,0,0,1,1285,353.27Zm10.13,10a10,10,0,1,0-10-10A10,10,0,0,0,1295.13,363.23Z" style="fill:#8368cf"/><path d="M1182.59,879l-14.9,7.88a7.22,7.22,0,0,0-5.78-.82l-11.83-11.21,7.7,14.2.14-.08a7.22,7.22,0,0,0-.78,6.55l-11.22,11.84,14.91-7.8,0,0a7.23,7.23,0,0,0,5.48.29l-.09.11,12.26,11.61-8.25-15a7.24,7.24,0,0,0,.69-5.39l.1.12Z" style="fill:#8368cf"/><path d="M1139.07,1533.21c18.38,4.41,49,5.38,63.77-8.49,2.13-2,.58-6.21-2.47-6-9.17.69-17.78,5.47-26.8,7.57-11.1,2.57-22.65,3.2-34,3.31-2,0-2.54,3.1-.49,3.6Z" style="fill:#8368cf"/><path d="M1316,268a10.13,10.13,0,1,1-10.13-10.13A10.14,10.14,0,0,1,1316,268Zm-10.13-10a10,10,0,1,0,10,10A10,10,0,0,0,1305.87,258.09Z" style="fill:#8368cf"/><path d="M1361.27,305.86a10.13,10.13,0,1,1-10.13-10.13A10.14,10.14,0,0,1,1361.27,305.86Zm-10.13-10a10,10,0,1,0,9.95,10A10,10,0,0,0,1351.14,295.9Z" style="fill:#8368cf"/><path d="M1344.23,2803.15A20.26,20.26,0,1,1,1324,2782.9,20.26,20.26,0,0,1,1344.23,2803.15ZM1324,2783.24a19.91,19.91,0,1,0,19.91,19.91A19.92,19.92,0,0,0,1324,2783.24Z" style="fill:#8368cf"/><path d="M1298.78,2762.69a10.13,10.13,0,1,1-10.13-10.13A10.12,10.12,0,0,1,1298.78,2762.69Zm-10.13-10a10,10,0,1,0,10,10A10,10,0,0,0,1288.65,2752.74Z" style="fill:#8368cf"/><path d="M355.51,1432l-16.61-2.89a7.21,7.21,0,0,0-4.06-4.18l-2.51-16.11-2.59,16,.15,0a7.22,7.22,0,0,0-4.62,4.7L309.15,1432l16.57,2.94v-.06a7.24,7.24,0,0,0,4.15,3.58l-.13,0,2.59,16.69,2.64-16.9a7.22,7.22,0,0,0,3.84-3.84v.15Z" style="fill:#20c9ac"/></svg>