<svg xmlns="http://www.w3.org/2000/svg" viewBox="0 0 1400 3081.32"><path d="M174.82,2705.74a1.51,1.51,0,0,1-1.13,1.81,1.53,1.53,0,0,1-1-.1l-25.51,35.1a.82.82,0,0,1,.18.36,1,1,0,0,1-.72,1.15.93.93,0,0,1-.89-.26l-5.88,2.65a1,1,0,0,1-1.89.28l-7.07-1.23a.89.89,0,0,1-.67.57.93.93,0,0,1-.91-.27l-10,8.63a.19.19,0,0,1,0,.1,1,1,0,1,1-1.87.43.49.49,0,0,1,0-.12l-31.67-6.69a1.47,1.47,0,0,1-1,.84,1.5,1.5,0,0,1-1.8-1.13h0l-53,.46a.94.94,0,0,1-.73.83,1,1,0,0,1-.43-1.88,1,1,0,0,1,1.13.67l53-.44a1.47,1.47,0,0,1,1.15-1.44,1.51,1.51,0,0,1,1.82,1.14,1.57,1.57,0,0,1,0,.61l31.59,6.66a1,1,0,0,1,.66-.65l3.21-30.14a1.51,1.51,0,0,1-1.11-2.53l-21-18.07a1.33,1.33,0,0,1-.46.23,1.14,1.14,0,1,1,.86-1.37,1.11,1.11,0,0,1-.14.86l21.11,18.11a1.22,1.22,0,0,1,.45-.2,1.51,1.51,0,0,1,.73,2.93l-3.24,30.16a1,1,0,0,1,.56.29l10-8.58a.44.44,0,0,1,0-.15,1,1,0,0,1,.72-1.15,1,1,0,0,1,1.15.72.52.52,0,0,1,0,.17l7,1.2a1,1,0,0,1,.73-.76,1,1,0,0,1,1.07.51l5.77-2.59a.25.25,0,0,1,0-.11.94.94,0,0,1,.72-1.15.91.91,0,0,1,.63.07l25.51-35a1.64,1.64,0,0,1-.5-.83l-20.17,4.53a1,1,0,0,1-1.85-.07,1,1,0,0,1,.08-.65l-12.66-19.32a1,1,0,0,1-.43-1.87l7-39.77a1.21,1.21,0,0,1-.76-.89,1.29,1.29,0,1,1,2.51-.57,1.26,1.26,0,0,1-1,1.54.86.86,0,0,1-.39,0l-7,39.65a1,1,0,0,1,.77.73,1,1,0,0,1-.38,1l12.54,19.16a1,1,0,0,1,.39-.18,1,1,0,0,1,1.15.72l0,.09,20.11-4.51a1.48,1.48,0,0,1,1.15-1.41A1.5,1.5,0,0,1,174.82,2705.74Z" style="fill:#8368cf"/><path d="M997.26,2405.73s1.23,17.26-11,17.06c0,0,11.19,1.09,12.49,16.93,0,0-1.3-15.84,10.87-16.55C1009.64,2423.17,998,2419.87,997.26,2405.73Z" style="fill:#8368cf"/><path d="M51.1,284.46s1.23,17.26-11,17.06c0,0,11.18,1.09,12.48,16.93,0,0-1.3-15.84,10.87-16.55C63.48,301.9,51.85,298.6,51.1,284.46Z" style="fill:#8368cf"/><path d="M1274.41,295.43a10.13,10.13,0,1,1,10.13,10.13A10.13,10.13,0,0,1,1274.41,295.43Zm10.13,10a10,10,0,1,0-10-10A10,10,0,0,0,1284.54,305.39Z" style="fill:#8368cf"/><path d="M1172,821.12,1157.1,829a7.22,7.22,0,0,0-5.78-.82L1139.49,817l7.7,14.2.14-.08a7.19,7.19,0,0,0-.78,6.55l-11.22,11.84,14.9-7.8,0,0a7.22,7.22,0,0,0,5.48.29l-.1.11,12.27,11.61-8.25-15a7.19,7.19,0,0,0,.68-5.39l.11.12Z" style="fill:#8368cf"/><path d="M1128.48,1475.37c18.38,4.41,49,5.38,63.77-8.49,2.13-2,.58-6.21-2.48-6-9.16.69-17.77,5.47-26.79,7.57-11.1,2.57-22.65,3.2-34,3.31-2,0-2.54,3.1-.49,3.6Z" style="fill:#8368cf"/><path d="M1328.94,1134l-.14,0,.87-.11h-.36l.86.11a1.35,1.35,0,0,1-.33-.09l.78.33a1.54,1.54,0,0,1-.39-.23l.66.51a1.88,1.88,0,0,1-.34-.35l.51.66a2.11,2.11,0,0,1-.31-.52l.33.78a2.72,2.72,0,0,1-.17-.62l.11.86a2.26,2.26,0,0,1,0-.52l-.12.86a1.55,1.55,0,0,1,.12-.42l-.33.77a2.38,2.38,0,0,1,.18-.3l-.51.66a1.48,1.48,0,0,1,.25-.25l-.66.51a1.92,1.92,0,0,1,.31-.18l-.77.33a.9.9,0,0,1,.33-.09l-.87.11h.38l-.87-.11a2.09,2.09,0,0,1,.43.11l-.78-.32a2.15,2.15,0,0,1,.49.28l-.66-.51a2.55,2.55,0,0,1,.43.44l-.5-.66a3.1,3.1,0,0,1,.29.5l-.33-.78a1.84,1.84,0,0,1,.14.51l-.11-.87a2.81,2.81,0,0,1,0,.41l.11-.87a1.07,1.07,0,0,1-.1.36l.33-.77a1.83,1.83,0,0,1-.18.3l.51-.66,0,0a2.49,2.49,0,0,0-.67,1,3.36,3.36,0,0,0,.67,3.55,3.27,3.27,0,0,0,2.3,1l.87-.11a3.29,3.29,0,0,0,1.43-.84,7.64,7.64,0,0,0,.65-.85,6,6,0,0,0,.42-1,3.77,3.77,0,0,0,.2-1.33,3.71,3.71,0,0,0-.07-.67c0-.22,0-.45-.1-.67l-.09-.25a9.56,9.56,0,0,0-.43-1l-.14-.22c-.21-.29-.43-.58-.66-.85a6,6,0,0,0-1-.85,1.92,1.92,0,0,0-.46-.27,7.41,7.41,0,0,0-1-.4,6.71,6.71,0,0,0-1.08-.16H1329c-.31,0-.65.07-1,.13a4.6,4.6,0,0,0-2.23,1.34,4.83,4.83,0,0,0-1,1.8,5.34,5.34,0,0,0-.21,1.29,5.41,5.41,0,0,0,.13,1.33,2.19,2.19,0,0,0,.12.49c.12.33.26.66.41,1l.12.22a5.61,5.61,0,0,0,.41.55,4.25,4.25,0,0,0,.42.53,4.69,4.69,0,0,0,1.07.82,4.26,4.26,0,0,0,1.24.48,5,5,0,0,0,2.24,0,2.39,2.39,0,0,0,1.1-.58,2.92,2.92,0,0,0,1.23-2.12,2.6,2.6,0,0,0-.06-1.3l-.33-.78a3.25,3.25,0,0,0-1.17-1.16l-.77-.33a3.18,3.18,0,0,0-1.73,0Z" style="fill:#8368cf"/><path d="M284.28,836.68l-.13,0,.86-.12a1.09,1.09,0,0,1-.36,0l.87.12a1.89,1.89,0,0,1-.34-.09l.78.33a1.83,1.83,0,0,1-.38-.23l.66.51a1.93,1.93,0,0,1-.35-.35l.51.66a3.4,3.4,0,0,1-.31-.52l.33.77a2.64,2.64,0,0,1-.17-.61l.12.86a2.26,2.26,0,0,1,0-.52l-.11.86a1.6,1.6,0,0,1,.11-.43l-.33.78a1.49,1.49,0,0,1,.18-.3l-.51.66a1.18,1.18,0,0,1,.25-.25l-.65.5a1.54,1.54,0,0,1,.31-.17l-.78.33a1.39,1.39,0,0,1,.33-.1l-.86.12h.37l-.87-.12a1.62,1.62,0,0,1,.43.12l-.77-.33a2.36,2.36,0,0,1,.48.29l-.66-.51a2.62,2.62,0,0,1,.44.44l-.51-.66a2.5,2.5,0,0,1,.29.5l-.33-.78a2.21,2.21,0,0,1,.15.5l-.12-.86a1.34,1.34,0,0,1,0,.4l.12-.86a1.61,1.61,0,0,1-.1.36l.33-.78a2,2,0,0,1-.19.31l.51-.66,0,0a2.48,2.48,0,0,0-.68,1,3.33,3.33,0,0,0,.68,3.56,3.25,3.25,0,0,0,2.3,1l.86-.12a3.18,3.18,0,0,0,1.43-.83,6.69,6.69,0,0,0,.65-.86,5.36,5.36,0,0,0,.42-1,4,4,0,0,0,.21-1.32,4.72,4.72,0,0,0-.08-.67,3.74,3.74,0,0,0-.1-.67,1.84,1.84,0,0,0-.09-.25,7.22,7.22,0,0,0-.43-1c0-.08-.09-.15-.14-.23a10.59,10.59,0,0,0-.66-.84,6,6,0,0,0-1-.86,3,3,0,0,0-.46-.26,7.56,7.56,0,0,0-1-.4,5.75,5.75,0,0,0-1.08-.16,1.07,1.07,0,0,0-.25,0h-.12a8.06,8.06,0,0,0-1,.13,3.61,3.61,0,0,0-.62.24,3.71,3.71,0,0,0-.61.28,4.38,4.38,0,0,0-1,.82,4.85,4.85,0,0,0-1,1.79,5.36,5.36,0,0,0-.22,1.3,5.8,5.8,0,0,0,.13,1.32,2.7,2.7,0,0,0,.12.49c.12.34.26.67.41,1l.12.22c.12.19.27.37.41.55a5.52,5.52,0,0,0,.43.53,4.66,4.66,0,0,0,1.06.81,4.4,4.4,0,0,0,1.24.49,5,5,0,0,0,2.24,0,2.49,2.49,0,0,0,1.11-.59,3.34,3.34,0,0,0,1.16-3.41l-.33-.78a3.25,3.25,0,0,0-1.16-1.17l-.78-.32a3.18,3.18,0,0,0-1.73,0Z" style="fill:#8368cf"/><path d="M115.05,659.17l-.14,0,.86-.12a1,1,0,0,1-.35,0l.86.12-.33-.09.77.33a2.14,2.14,0,0,1-.38-.23l.66.51a1.88,1.88,0,0,1-.34-.35l.5.66a2.7,2.7,0,0,1-.3-.52l.33.77a2.22,2.22,0,0,1-.17-.61l.11.86a2.26,2.26,0,0,1,0-.52l-.12.86a1.62,1.62,0,0,1,.12-.43l-.33.78a1.11,1.11,0,0,1,.17-.3l-.51.66a1.23,1.23,0,0,1,.26-.25l-.66.51a1.39,1.39,0,0,1,.31-.18l-.78.33a1.33,1.33,0,0,1,.34-.1l-.87.12h.37l-.86-.12a1.62,1.62,0,0,1,.43.12l-.78-.33a2.43,2.43,0,0,1,.49.29l-.66-.51a3,3,0,0,1,.43.44l-.51-.66a2.55,2.55,0,0,1,.3.5l-.33-.78a2.19,2.19,0,0,1,.14.5l-.12-.86a1.34,1.34,0,0,1,0,.4l.12-.86a1.61,1.61,0,0,1-.1.36l.33-.78a1.92,1.92,0,0,1-.18.31l.5-.66,0,0a3.14,3.14,0,0,0-.67,3.55,2.46,2.46,0,0,0,.67,1,3.25,3.25,0,0,0,2.3,1l.86-.12a3.27,3.27,0,0,0,1.44-.83,6.52,6.52,0,0,0,.64-.85,6.73,6.73,0,0,0,.43-1,4.23,4.23,0,0,0,.2-1.32,4.74,4.74,0,0,0-.07-.67,4.93,4.93,0,0,0-.11-.67,1.83,1.83,0,0,0-.08-.25c-.14-.33-.26-.67-.43-1-.05-.08-.09-.15-.15-.23a10.46,10.46,0,0,0-.65-.84,6,6,0,0,0-1-.86,2.28,2.28,0,0,0-.46-.26,7,7,0,0,0-1-.4,6.54,6.54,0,0,0-1.08-.16,1,1,0,0,0-.25,0h-.12a7.64,7.64,0,0,0-1,.13,3.07,3.07,0,0,0-.62.24,3.46,3.46,0,0,0-.62.28,4.33,4.33,0,0,0-1,.82,4.74,4.74,0,0,0-1,1.79,5,5,0,0,0-.21,1.3,5.79,5.79,0,0,0,.12,1.32,2.52,2.52,0,0,0,.13.49c.12.34.26.67.41,1a1.19,1.19,0,0,0,.12.22,4.29,4.29,0,0,0,.4.55,5.52,5.52,0,0,0,.43.53,5.33,5.33,0,0,0,1.07.82,4.44,4.44,0,0,0,1.24.48,4.94,4.94,0,0,0,2.23,0,2.47,2.47,0,0,0,1.11-.58,2.57,2.57,0,0,0,.84-.92,2.37,2.37,0,0,0,.38-1.21,2.46,2.46,0,0,0,0-1.29l-.33-.78a3.28,3.28,0,0,0-1.17-1.17l-.78-.32a3.14,3.14,0,0,0-1.72,0Z" style="fill:#8368cf"/><circle cx="225.06" cy="1481.04" r="0.81" style="fill:#8368cf"/><circle cx="302.13" cy="779.3" r="0.81" style="fill:#8368cf"/><circle cx="311.18" cy="1409.33" r="0.81" style="fill:#8368cf"/><circle cx="87.75" cy="449.5" r="0.81" style="fill:#8368cf"/><circle cx="1155.27" cy="1164.1" r="0.81" style="fill:#8368cf"/><circle cx="63.96" cy="208.76" r="0.81" style="fill:#8368cf"/><circle cx="311.99" cy="1501.76" r="0.81" style="fill:#8368cf"/><circle cx="256.18" cy="1340.59" r="0.81" style="fill:#8368cf"/><circle cx="1100.87" cy="1194.23" r="0.81" style="fill:#8368cf"/><circle cx="1174.14" cy="1215.86" r="0.81" style="fill:#8368cf"/><circle cx="265.38" cy="588.22" r="0.81" style="fill:#8368cf"/><circle cx="1177.44" cy="408.07" r="0.81" style="fill:#8368cf"/><circle cx="1100.87" cy="1076.03" r="0.81" style="fill:#8368cf"/><circle cx="240.27" cy="778.49" r="0.81" style="fill:#8368cf"/><circle cx="1190.79" cy="1129.24" r="0.81" style="fill:#8368cf"/><circle cx="65.58" cy="648.77" r="0.81" style="fill:#8368cf"/><circle cx="93.76" cy="525.33" r="0.81" style="fill:#8368cf"/><circle cx="84.03" cy="588.22" r="0.81" style="fill:#8368cf"/><path d="M1305.4,210.2a10.13,10.13,0,1,1-10.12-10.13A10.13,10.13,0,0,1,1305.4,210.2Zm-10.12-9.95a10,10,0,1,0,10,9.95A10,10,0,0,0,1295.28,200.25Z" style="fill:#8368cf"/><path d="M1350.68,248a10.13,10.13,0,1,1-10.13-10.13A10.14,10.14,0,0,1,1350.68,248Zm-10.13-10a10,10,0,1,0,10,10A10,10,0,0,0,1340.55,238.06Z" style="fill:#8368cf"/><circle cx="192.83" cy="562.09" r="0.81" style="fill:#8368cf"/><circle cx="1155.27" cy="1063.15" r="0.81" style="fill:#8368cf"/><circle cx="318.99" cy="1368.01" r="0.81" style="fill:#8368cf"/><circle cx="109.13" cy="359.07" r="0.81" style="fill:#8368cf"/><circle cx="984.39" cy="163.67" r="0.81" style="fill:#8368cf"/><circle cx="148.31" cy="573.64" r="0.81" style="fill:#8368cf"/><circle cx="274.52" cy="1430.13" r="0.81" style="fill:#8368cf"/><path d="M974.17,648.16l-.13,0,.86-.11h-.36l.87.11a1,1,0,0,1-.34-.09l.78.33a1.57,1.57,0,0,1-.38-.22l.65.5a2.73,2.73,0,0,1-.34-.34l.51.65a2.47,2.47,0,0,1-.31-.52l.33.78a2.72,2.72,0,0,1-.17-.62l.12.86a1.81,1.81,0,0,1,0-.52l-.11.87a1.51,1.51,0,0,1,.11-.43l-.33.77a2.38,2.38,0,0,1,.18-.3l-.51.66a2,2,0,0,1,.25-.25l-.65.51a1.49,1.49,0,0,1,.3-.18l-.77.33a2,2,0,0,1,.33-.09l-.86.12a1.51,1.51,0,0,1,.37,0l-.87-.11a2.09,2.09,0,0,1,.43.11l-.78-.32a2.15,2.15,0,0,1,.49.28l-.66-.5a2.24,2.24,0,0,1,.44.43l-.51-.65a2.64,2.64,0,0,1,.29.49l-.33-.78a1.84,1.84,0,0,1,.14.51l-.11-.87a1.87,1.87,0,0,1,0,.41l.12-.87a1.89,1.89,0,0,1-.1.36l.32-.77a1.49,1.49,0,0,1-.18.3l.51-.66,0,0a2.48,2.48,0,0,0-.68,1,2.93,2.93,0,0,0,0,2.5,2.36,2.36,0,0,0,.68,1.05,3.23,3.23,0,0,0,2.29.95l.87-.11a3.29,3.29,0,0,0,1.43-.84,7.64,7.64,0,0,0,.65-.85,6,6,0,0,0,.42-1,4,4,0,0,0,.21-1.33,5.1,5.1,0,0,0-.08-.67,5.16,5.16,0,0,0-.1-.67l-.09-.25a8.56,8.56,0,0,0-.43-1,1.76,1.76,0,0,0-.14-.23,10.74,10.74,0,0,0-.66-.85,6.39,6.39,0,0,0-1-.85,2.4,2.4,0,0,0-.46-.27,7.56,7.56,0,0,0-1-.4,8,8,0,0,0-1.08-.16h-.37c-.32,0-.65.07-1,.14a3.56,3.56,0,0,0-.62.23,3.77,3.77,0,0,0-.61.29,4.33,4.33,0,0,0-1,.81,4.83,4.83,0,0,0-1,1.8,4.92,4.92,0,0,0-.22,1.29,5.94,5.94,0,0,0,.13,1.33,2.7,2.7,0,0,0,.12.49c.12.33.26.66.41,1l.12.22a4.62,4.62,0,0,0,.41.55,4.33,4.33,0,0,0,.43.53,4.43,4.43,0,0,0,1.06.82,4.09,4.09,0,0,0,1.24.48,4.85,4.85,0,0,0,2.24,0,2.48,2.48,0,0,0,1.11-.58,2.95,2.95,0,0,0,1.22-2.12,2.4,2.4,0,0,0-.06-1.3l-.33-.78a3.3,3.3,0,0,0-1.16-1.16l-.78-.33a3.38,3.38,0,0,0-1.73,0Z" style="fill:#8368cf"/><circle cx="1072.71" cy="703.99" r="0.81" style="fill:#8368cf"/><circle cx="1063.23" cy="581.68" r="0.81" style="fill:#8368cf"/><circle cx="1153.67" cy="619.12" r="0.81" style="fill:#8368cf"/><circle cx="1107.18" cy="657.81" r="0.81" style="fill:#8368cf"/><circle cx="1178.25" cy="723.77" r="0.81" style="fill:#8368cf"/><circle cx="1165.95" cy="513.19" r="0.81" style="fill:#8368cf"/><path d="M1164.64,986.08l-.14,0,.87-.11H1165l.87.11a1,1,0,0,1-.34-.09l.78.33a1.57,1.57,0,0,1-.38-.22l.65.5a2.26,2.26,0,0,1-.34-.35l.51.66a2.47,2.47,0,0,1-.31-.52l.33.78a2.72,2.72,0,0,1-.17-.62l.12.86a1.81,1.81,0,0,1,0-.52l-.11.86a1.53,1.53,0,0,1,.11-.42l-.33.77a2.38,2.38,0,0,1,.18-.3l-.51.66a1.48,1.48,0,0,1,.25-.25l-.65.51a1.49,1.49,0,0,1,.3-.18l-.77.33.33-.09-.86.11h.37l-.87-.11a2.09,2.09,0,0,1,.43.11l-.78-.32a2.15,2.15,0,0,1,.49.28l-.66-.5a2.55,2.55,0,0,1,.44.43l-.51-.65a2.64,2.64,0,0,1,.29.49l-.33-.78a1.84,1.84,0,0,1,.14.51l-.11-.87a1.87,1.87,0,0,1,0,.41l.12-.87a1.89,1.89,0,0,1-.1.36l.32-.77a1.49,1.49,0,0,1-.18.3l.51-.66,0,0a3.65,3.65,0,0,0-1,2.3,2.52,2.52,0,0,0,.28,1.25,2.43,2.43,0,0,0,.67,1,3.27,3.27,0,0,0,2.3,1l.87-.11a3.29,3.29,0,0,0,1.43-.84,7.64,7.64,0,0,0,.65-.85,6,6,0,0,0,.42-1,4,4,0,0,0,.21-1.33,5.1,5.1,0,0,0-.08-.67,5.16,5.16,0,0,0-.1-.67l-.09-.25a8.56,8.56,0,0,0-.43-1,1.76,1.76,0,0,0-.14-.23c-.21-.29-.43-.58-.66-.85a6.05,6.05,0,0,0-1-.85,2.07,2.07,0,0,0-.45-.27,7.56,7.56,0,0,0-1-.4,6.71,6.71,0,0,0-1.08-.16h-.37c-.32,0-.65.07-1,.14a3.56,3.56,0,0,0-.62.23,4.22,4.22,0,0,0-.61.28,4.66,4.66,0,0,0-1,.82,4.83,4.83,0,0,0-1,1.8,4.92,4.92,0,0,0-.22,1.29,5.94,5.94,0,0,0,.13,1.33,2.07,2.07,0,0,0,.12.49c.12.33.26.66.41,1l.12.22a4.62,4.62,0,0,0,.41.55,4.33,4.33,0,0,0,.43.53,4.43,4.43,0,0,0,1.06.82,4.09,4.09,0,0,0,1.24.48,4.85,4.85,0,0,0,2.24,0,3.67,3.67,0,0,0,1.94-1.49,2.44,2.44,0,0,0,.39-1.21,2.4,2.4,0,0,0-.06-1.3l-.33-.78a3.39,3.39,0,0,0-1.16-1.16l-.78-.33a3.18,3.18,0,0,0-1.73,0Z" style="fill:#8368cf"/><circle cx="1073.52" cy="838.04" r="0.81" style="fill:#8368cf"/><circle cx="1074.33" cy="921.12" r="0.81" style="fill:#8368cf"/><circle cx="1042.84" cy="870.11" r="0.81" style="fill:#8368cf"/><circle cx="1134.52" cy="899.05" r="0.81" style="fill:#8368cf"/><circle cx="1099.32" cy="982.4" r="0.81" style="fill:#8368cf"/><path d="M1324.69,513.81h.13l-.86-.12a1.54,1.54,0,0,1,.35.1l-.81-.34a1.49,1.49,0,0,1,.3.18l-.66-.52a1.82,1.82,0,0,1,.31.31l-.51-.66a1.82,1.82,0,0,1,.24.43l-.31-.77a2.91,2.91,0,0,1,.15.58l-.11-.83a2.29,2.29,0,0,1,0,.64l.12-.87a2.72,2.72,0,0,1-.13.51l.33-.8a1.63,1.63,0,0,1-.22.38l.52-.66a1.14,1.14,0,0,1-.25.24l.67-.5a1.23,1.23,0,0,1-.32.17l.77-.32a1,1,0,0,1-.34.09l.83-.11a1.29,1.29,0,0,1-.34,0l.86.12a1.4,1.4,0,0,1-.35-.1l.8.34a1.83,1.83,0,0,1-.38-.23l.66.52a1.85,1.85,0,0,1-.39-.4l.5.66a2.23,2.23,0,0,1-.31-.54l.32.77a2.64,2.64,0,0,1-.15-.55l.11.83a2.26,2.26,0,0,1,0-.52l-.12.87a1.82,1.82,0,0,1,.11-.4l-.34.81a1.29,1.29,0,0,1,.19-.32l-.52.66a2.06,2.06,0,0,1,.26-.25l-.66.51,0,0a2.48,2.48,0,0,0,.92-.84,2.43,2.43,0,0,0,.6-1.13,2.46,2.46,0,0,0,0-1.29,2.38,2.38,0,0,0-.37-1.18,3.3,3.3,0,0,0-2-1.52l-.87-.12a3.33,3.33,0,0,0-1.6.43,8.81,8.81,0,0,0-.85.66,6.49,6.49,0,0,0-.66.83,4.08,4.08,0,0,0-.54,1.23,3.9,3.9,0,0,0-.11.67,5.08,5.08,0,0,0-.07.67,2.11,2.11,0,0,0,0,.26,9.5,9.5,0,0,0,.15,1.07,2.58,2.58,0,0,0,.08.26c.12.33.26.66.41,1a6,6,0,0,0,.77,1.1,2.59,2.59,0,0,0,.37.37,7.3,7.3,0,0,0,.85.65,7.53,7.53,0,0,0,1,.44l.24.07.11,0c.32,0,.65.11,1,.13a3.6,3.6,0,0,0,.66-.07,3.9,3.9,0,0,0,.67-.11,4.57,4.57,0,0,0,1.17-.53,4.87,4.87,0,0,0,1.47-1.46,5.18,5.18,0,0,0,.55-1.2,5.79,5.79,0,0,0,.22-1.31,2.9,2.9,0,0,0,0-.51c0-.35-.08-.7-.14-1a2.27,2.27,0,0,0-.06-.25,5,5,0,0,0-.25-.64,5.55,5.55,0,0,0-.27-.62,4.43,4.43,0,0,0-.82-1.06,4,4,0,0,0-1.07-.79,4.86,4.86,0,0,0-2.16-.57,2.54,2.54,0,0,0-1.22.27,2.46,2.46,0,0,0-1,.67,2.42,2.42,0,0,0-.69,1.06,2.52,2.52,0,0,0-.28,1.27l.11.83a3.36,3.36,0,0,0,.82,1.43l.67.52a3.25,3.25,0,0,0,1.67.46Z" style="fill:#8368cf"/><circle cx="1194.76" cy="303.44" r="0.81" style="fill:#8368cf"/><circle cx="1263.54" cy="442.24" r="0.81" style="fill:#8368cf"/><circle cx="1361.52" cy="231.45" r="0.81" style="fill:#8368cf"/><circle cx="1215.01" cy="222.49" r="0.81" style="fill:#8368cf"/><circle cx="1284.54" cy="209.99" r="0.81" style="fill:#8368cf"/><circle cx="1339.74" cy="368.35" r="0.81" style="fill:#8368cf"/><circle cx="1279.22" cy="685.03" r="0.81" style="fill:#8368cf"/><circle cx="1360.18" cy="600.16" r="0.81" style="fill:#8368cf"/><circle cx="1313.69" cy="638.84" r="0.81" style="fill:#8368cf"/><path d="M129.35,958.18l-.13,0,.86-.12h-.36l.87.12a1.89,1.89,0,0,1-.34-.09l.78.32a1.45,1.45,0,0,1-.38-.22l.66.51a2.89,2.89,0,0,1-.35-.35l.51.66a2.78,2.78,0,0,1-.3-.53l.32.78a2.72,2.72,0,0,1-.17-.62l.12.87a1.88,1.88,0,0,1,0-.53l-.12.87a2.09,2.09,0,0,1,.11-.43l-.32.78a1.11,1.11,0,0,1,.17-.3l-.51.66a1.6,1.6,0,0,1,.26-.26l-.66.51a1.92,1.92,0,0,1,.31-.18l-.78.33.33-.09-.86.12a1.15,1.15,0,0,1,.37,0l-.86-.12a1.55,1.55,0,0,1,.42.12l-.77-.33a2,2,0,0,1,.48.29l-.65-.51a2.56,2.56,0,0,1,.43.44l-.51-.66a2,2,0,0,1,.29.49l-.32-.77a2.85,2.85,0,0,1,.14.5l-.12-.87a1.41,1.41,0,0,1,0,.41l.12-.86a1.61,1.61,0,0,1-.1.36l.33-.78a1.17,1.17,0,0,1-.19.3l.51-.65,0,0a2.46,2.46,0,0,0-.67,1.05,3.34,3.34,0,0,0,.67,3.55,3.31,3.31,0,0,0,2.3,1l.86-.12a3.29,3.29,0,0,0,1.44-.84,6.75,6.75,0,0,0,.64-.85,7.1,7.1,0,0,0,.43-1,4.29,4.29,0,0,0,.2-1.33,5.08,5.08,0,0,0-.07-.67,5.2,5.2,0,0,0-.11-.67,1.52,1.52,0,0,0-.09-.25,8.5,8.5,0,0,0-.42-1L134,957a10.61,10.61,0,0,0-.65-.85,6.47,6.47,0,0,0-1-.85,2.4,2.4,0,0,0-.46-.27,7.56,7.56,0,0,0-1-.4,7.81,7.81,0,0,0-1.08-.16h-.37c-.32,0-.65.07-1,.14a3.56,3.56,0,0,0-.62.23,4.85,4.85,0,0,0-.61.29,4.33,4.33,0,0,0-1,.82,4.85,4.85,0,0,0-1,1.79,5.36,5.36,0,0,0-.22,1.3,6.49,6.49,0,0,0,.13,1.32,3.89,3.89,0,0,0,.12.49c.12.33.27.66.42,1a1.27,1.27,0,0,0,.12.23,5.12,5.12,0,0,0,.4.55c.14.17.27.36.43.52a4.29,4.29,0,0,0,1.07.82,3.94,3.94,0,0,0,1.23.48,4.85,4.85,0,0,0,2.24,0,2.42,2.42,0,0,0,1.11-.58A2.54,2.54,0,0,0,133,963a2.5,2.5,0,0,0,.38-1.21,2.4,2.4,0,0,0-.06-1.3l-.32-.77a3.28,3.28,0,0,0-1.17-1.17l-.78-.33a3.38,3.38,0,0,0-1.73,0Z" style="fill:#8368cf"/><path d="M76,845.17l-.14,0,.86-.11a1.37,1.37,0,0,1-.35,0l.86.12a1.59,1.59,0,0,1-.33-.09l.77.33a2.14,2.14,0,0,1-.38-.23l.66.51a1.88,1.88,0,0,1-.34-.35l.5.66a2.7,2.7,0,0,1-.3-.52l.33.77a2.52,2.52,0,0,1-.18-.61l.12.86a2.26,2.26,0,0,1,0-.52l-.12.86a2.09,2.09,0,0,1,.11-.43l-.32.78a1.28,1.28,0,0,1,.17-.3l-.51.66a1.54,1.54,0,0,1,.26-.25l-.66.51a1.92,1.92,0,0,1,.31-.18l-.78.33a1,1,0,0,1,.34-.09L76,848h.37l-.86-.11A2.09,2.09,0,0,1,76,848l-.78-.33a3,3,0,0,1,.49.29l-.66-.51a3,3,0,0,1,.43.44l-.51-.66a2.55,2.55,0,0,1,.3.5l-.33-.78a2.19,2.19,0,0,1,.14.5l-.12-.86a1.41,1.41,0,0,1,0,.41l.12-.87a1.48,1.48,0,0,1-.1.36l.33-.78a1.44,1.44,0,0,1-.19.31l.51-.66,0,0a3.14,3.14,0,0,0-.67,3.55,2.46,2.46,0,0,0,.67,1,3.25,3.25,0,0,0,2.3,1l.86-.12a3.27,3.27,0,0,0,1.44-.83,7.56,7.56,0,0,0,.64-.85,7.1,7.1,0,0,0,.43-1,4.29,4.29,0,0,0,.2-1.33,4.74,4.74,0,0,0-.07-.67,5.2,5.2,0,0,0-.11-.67,1.83,1.83,0,0,0-.08-.25c-.14-.33-.26-.67-.43-1l-.15-.23a10.46,10.46,0,0,0-.65-.84,6,6,0,0,0-1-.86,2.59,2.59,0,0,0-.46-.26,7.56,7.56,0,0,0-1-.4,6.54,6.54,0,0,0-1.08-.16,1,1,0,0,0-.25,0H76a7.64,7.64,0,0,0-1,.13,4.32,4.32,0,0,0-.63.24,3.71,3.71,0,0,0-.61.28,4.6,4.6,0,0,0-1,.82,4.85,4.85,0,0,0-1,1.79,5,5,0,0,0-.21,1.3,5.93,5.93,0,0,0,.12,1.33,3,3,0,0,0,.13.49c.12.33.26.66.41,1a1.19,1.19,0,0,0,.12.22,4.29,4.29,0,0,0,.4.55,5.52,5.52,0,0,0,.43.53,4.76,4.76,0,0,0,1.07.82,4.44,4.44,0,0,0,1.24.48,4.94,4.94,0,0,0,2.23,0,2.47,2.47,0,0,0,1.11-.58,2.57,2.57,0,0,0,.84-.92,3.75,3.75,0,0,0,.33-2.5l-.33-.78a3.28,3.28,0,0,0-1.17-1.17l-.78-.32a3.14,3.14,0,0,0-1.72,0Z" style="fill:#8368cf"/><path d="M108.35,1464.14l-.14,0,.87-.11h-.36l.87.11a1.89,1.89,0,0,1-.34-.09l.78.33a1.33,1.33,0,0,1-.38-.23l.65.51a2.26,2.26,0,0,1-.34-.35l.51.66a2.75,2.75,0,0,1-.31-.52l.33.77a2.51,2.51,0,0,1-.17-.61l.12.86a1.81,1.81,0,0,1,0-.52l-.11.86a1.6,1.6,0,0,1,.11-.43l-.33.78a1.83,1.83,0,0,1,.18-.3l-.51.66a1.48,1.48,0,0,1,.25-.25l-.65.51a1.49,1.49,0,0,1,.3-.18l-.77.33a1,1,0,0,1,.33-.09l-.86.11h.37l-.87-.11a2.09,2.09,0,0,1,.43.11l-.78-.33a2.64,2.64,0,0,1,.49.29l-.66-.51a3.05,3.05,0,0,1,.44.44l-.51-.66a3.1,3.1,0,0,1,.29.5l-.33-.78a1.78,1.78,0,0,1,.14.5l-.11-.86a1.87,1.87,0,0,1,0,.41l.12-.87a2.12,2.12,0,0,1-.1.36l.32-.78a1.92,1.92,0,0,1-.18.31l.51-.66,0,0a2.43,2.43,0,0,0-.67,1.05,2.93,2.93,0,0,0,0,2.5,2.49,2.49,0,0,0,.67,1,3.27,3.27,0,0,0,2.3,1l.87-.11a3.29,3.29,0,0,0,1.43-.84,7.64,7.64,0,0,0,.65-.85,6,6,0,0,0,.42-1,4,4,0,0,0,.21-1.33,4.72,4.72,0,0,0-.08-.67,5.16,5.16,0,0,0-.1-.67l-.09-.25a9.56,9.56,0,0,0-.43-1c0-.08-.09-.15-.14-.23-.21-.28-.43-.57-.66-.84a5.67,5.67,0,0,0-1-.86,2.51,2.51,0,0,0-.45-.26,7.56,7.56,0,0,0-1-.4,6.71,6.71,0,0,0-1.08-.16,1.13,1.13,0,0,0-.26,0h-.11c-.32,0-.65.07-1,.13a4.67,4.67,0,0,0-.62.24,4.22,4.22,0,0,0-.61.28,4.38,4.38,0,0,0-1,.82,4.72,4.72,0,0,0-1,1.79,5,5,0,0,0-.22,1.3,5.94,5.94,0,0,0,.13,1.33,2.19,2.19,0,0,0,.12.49c.12.33.26.66.41,1l.12.22a5.61,5.61,0,0,0,.41.55,4.33,4.33,0,0,0,.43.53,4.63,4.63,0,0,0,2.3,1.3,5,5,0,0,0,2.24,0,2.49,2.49,0,0,0,1.1-.58,2.4,2.4,0,0,0,.84-.92,2.37,2.37,0,0,0,.39-1.2,2.5,2.5,0,0,0-.06-1.3l-.33-.78a3.22,3.22,0,0,0-1.16-1.16l-.78-.33a3.18,3.18,0,0,0-1.73,0Z" style="fill:#8368cf"/><circle cx="81.06" cy="1254.47" r="0.81" style="fill:#8368cf"/><circle cx="44.3" cy="955.31" r="0.81" style="fill:#8368cf"/><circle cx="57.26" cy="1013.73" r="0.81" style="fill:#8368cf"/><circle cx="124.11" cy="1010.39" r="0.81" style="fill:#8368cf"/><circle cx="58.88" cy="1453.74" r="0.81" style="fill:#8368cf"/><circle cx="87.07" cy="1330.3" r="0.81" style="fill:#8368cf"/><circle cx="77.33" cy="1393.19" r="0.81" style="fill:#8368cf"/><circle cx="102.43" cy="1164.04" r="0.81" style="fill:#8368cf"/><circle cx="141.61" cy="1378.62" r="0.81" style="fill:#8368cf"/><path d="M1347.58,1461.92l-.14,0,.87-.11H1348l.87.11a1.89,1.89,0,0,1-.34-.09l.78.33a1.33,1.33,0,0,1-.38-.23l.65.51a2.26,2.26,0,0,1-.34-.35l.51.66a2.75,2.75,0,0,1-.31-.52l.33.77a2.51,2.51,0,0,1-.17-.61l.12.86a1.81,1.81,0,0,1,0-.52l-.11.86a1.7,1.7,0,0,1,.11-.43l-.33.78a1.83,1.83,0,0,1,.18-.3l-.51.66a1.48,1.48,0,0,1,.25-.25l-.65.51a1.49,1.49,0,0,1,.3-.18l-.77.33a1,1,0,0,1,.33-.09l-.86.11h.37l-.87-.11a2.09,2.09,0,0,1,.43.11l-.78-.33a2.64,2.64,0,0,1,.49.29l-.66-.51a3.05,3.05,0,0,1,.44.44l-.51-.66a3.1,3.1,0,0,1,.29.5l-.33-.78a1.78,1.78,0,0,1,.14.5l-.11-.86a1.87,1.87,0,0,1,0,.41l.12-.87a2.12,2.12,0,0,1-.1.36l.32-.78a1.92,1.92,0,0,1-.18.31l.51-.66,0,0a2.43,2.43,0,0,0-.67,1,2.93,2.93,0,0,0,0,2.5,2.49,2.49,0,0,0,.67,1,3.27,3.27,0,0,0,2.3,1l.87-.11a3.29,3.29,0,0,0,1.43-.84,7.64,7.64,0,0,0,.65-.85,6,6,0,0,0,.42-1,4,4,0,0,0,.21-1.33,4.91,4.91,0,0,0-.08-.67,5.16,5.16,0,0,0-.1-.67l-.09-.25a9.56,9.56,0,0,0-.43-1c0-.08-.09-.15-.14-.23-.21-.28-.43-.57-.66-.84a5.67,5.67,0,0,0-1-.86,2.51,2.51,0,0,0-.45-.26,7.56,7.56,0,0,0-1-.4,6.71,6.71,0,0,0-1.08-.16,1.13,1.13,0,0,0-.26,0h-.11c-.32,0-.65.07-1,.13a4.67,4.67,0,0,0-.62.24,4.22,4.22,0,0,0-.61.28,4.38,4.38,0,0,0-1,.82,4.72,4.72,0,0,0-1,1.79,5.06,5.06,0,0,0-.22,1.3,5.94,5.94,0,0,0,.13,1.33,2.19,2.19,0,0,0,.12.49c.12.33.26.66.41,1l.12.22a5.61,5.61,0,0,0,.41.55,4.33,4.33,0,0,0,.43.53,4.63,4.63,0,0,0,2.3,1.3,5,5,0,0,0,2.24,0,2.49,2.49,0,0,0,1.1-.58,2.4,2.4,0,0,0,.84-.92,3.58,3.58,0,0,0,.33-2.5l-.33-.78a3.22,3.22,0,0,0-1.16-1.16l-.78-.33a3.18,3.18,0,0,0-1.73,0Z" style="fill:#8368cf"/><path d="M1294.25,1348.9l-.13,0,.86-.12a1.09,1.09,0,0,1-.36,0l.87.12a1.89,1.89,0,0,1-.34-.09l.78.32a1.45,1.45,0,0,1-.38-.22l.66.51a2.32,2.32,0,0,1-.35-.35l.51.66a3.5,3.5,0,0,1-.31-.53l.33.78a2.58,2.58,0,0,1-.17-.62l.12.87a2.35,2.35,0,0,1,0-.53l-.11.87a1.6,1.6,0,0,1,.11-.43l-.33.78a1.49,1.49,0,0,1,.18-.3l-.51.66a1.54,1.54,0,0,1,.25-.26l-.65.51a1.57,1.57,0,0,1,.31-.18l-.78.33.33-.09-.86.12a1.15,1.15,0,0,1,.37,0l-.87-.12a1.62,1.62,0,0,1,.43.12l-.77-.33a2,2,0,0,1,.48.29l-.66-.51a2.29,2.29,0,0,1,.44.44l-.51-.66a2.43,2.43,0,0,1,.29.49l-.33-.77a2.21,2.21,0,0,1,.15.5l-.12-.86a1.34,1.34,0,0,1,0,.4l.12-.86a1.61,1.61,0,0,1-.1.36l.32-.78a1.14,1.14,0,0,1-.18.3l.51-.65,0,0a2.39,2.39,0,0,0-.68,1,3,3,0,0,0,0,2.51,2.39,2.39,0,0,0,.68,1,3.26,3.26,0,0,0,2.3,1l.86-.12a3.11,3.11,0,0,0,1.43-.84,4.32,4.32,0,0,0,1.07-1.83,4,4,0,0,0,.21-1.33,5.1,5.1,0,0,0-.08-.67,5.16,5.16,0,0,0-.1-.67l-.09-.25a9.4,9.4,0,0,0-.43-1,1.76,1.76,0,0,0-.14-.23,10.74,10.74,0,0,0-.66-.85,6.39,6.39,0,0,0-1-.85,3.07,3.07,0,0,0-.46-.27,9.26,9.26,0,0,0-1-.4,8,8,0,0,0-1.08-.16h-.37c-.32,0-.65.07-1,.14a2.94,2.94,0,0,0-.62.24,3.71,3.71,0,0,0-.61.28,4.38,4.38,0,0,0-1,.82,4.85,4.85,0,0,0-1,1.79,5.36,5.36,0,0,0-.22,1.3,5.8,5.8,0,0,0,.13,1.32,2.7,2.7,0,0,0,.12.49c.12.33.26.66.41,1l.12.23c.12.19.27.37.41.55s.27.37.43.53a4.66,4.66,0,0,0,1.06.81,4.4,4.4,0,0,0,1.24.49,4.85,4.85,0,0,0,2.24,0,2.48,2.48,0,0,0,1.11-.58,3.35,3.35,0,0,0,1.16-3.42l-.33-.77a3.25,3.25,0,0,0-1.16-1.17l-.78-.33a3.38,3.38,0,0,0-1.73,0Z" style="fill:#8368cf"/><path d="M1326.58,1967.87l-.14,0,.87-.12a1.09,1.09,0,0,1-.36,0l.86.12-.33-.09.77.32a1.63,1.63,0,0,1-.38-.22l.66.51a2.24,2.24,0,0,1-.34-.35l.5.66a2.78,2.78,0,0,1-.3-.53l.33.78a2.19,2.19,0,0,1-.17-.62l.11.87a2.35,2.35,0,0,1,0-.53l-.12.87a1.62,1.62,0,0,1,.12-.43l-.33.78a1.46,1.46,0,0,1,.17-.3l-.51.66a1.6,1.6,0,0,1,.26-.26l-.66.51a1.34,1.34,0,0,1,.31-.17l-.78.32a1.89,1.89,0,0,1,.34-.09l-.87.12a1.15,1.15,0,0,1,.37,0l-.86-.12a1.62,1.62,0,0,1,.43.12l-.78-.33a1.86,1.86,0,0,1,.49.29l-.66-.51a2.24,2.24,0,0,1,.43.44l-.51-.66a2.48,2.48,0,0,1,.3.49l-.33-.77a1.78,1.78,0,0,1,.14.5l-.12-.86a1.79,1.79,0,0,1,0,.4l.11-.86a1.61,1.61,0,0,1-.1.36l.33-.78a1.49,1.49,0,0,1-.18.3l.5-.65,0,0a2.37,2.37,0,0,0-.67,1,3,3,0,0,0,0,2.51,2.37,2.37,0,0,0,.67,1,3.26,3.26,0,0,0,2.3,1l.86-.12a3.14,3.14,0,0,0,1.44-.84,5.91,5.91,0,0,0,.64-.85,6.61,6.61,0,0,0,.43-1,4.25,4.25,0,0,0,.2-1.33,3.81,3.81,0,0,0-.07-.67,5.2,5.2,0,0,0-.11-.67,2.25,2.25,0,0,0-.08-.24c-.14-.33-.26-.68-.43-1a1.82,1.82,0,0,0-.15-.23,8.94,8.94,0,0,0-.65-.84,6,6,0,0,0-1-.86,2.32,2.32,0,0,0-.46-.27,8.48,8.48,0,0,0-1-.4,7.81,7.81,0,0,0-1.08-.16h-.37c-.32,0-.65.07-1,.14a3.07,3.07,0,0,0-.62.24,3.46,3.46,0,0,0-.62.28,4.33,4.33,0,0,0-1,.82,4.65,4.65,0,0,0-1.25,3.09,5.28,5.28,0,0,0,.13,1.32,2.07,2.07,0,0,0,.12.49c.12.33.26.66.41,1a1.27,1.27,0,0,0,.12.23c.12.19.27.37.4.55s.27.37.43.53a4.94,4.94,0,0,0,1.07.81,4.17,4.17,0,0,0,1.24.49,4.85,4.85,0,0,0,2.24,0,2.39,2.39,0,0,0,1.1-.58,2.45,2.45,0,0,0,.84-.91,2.4,2.4,0,0,0,.38-1.21,2.5,2.5,0,0,0-.05-1.3l-.33-.77a3.28,3.28,0,0,0-1.17-1.17l-.77-.33a3.38,3.38,0,0,0-1.73,0Z" style="fill:#8368cf"/><circle cx="1299.29" cy="1758.21" r="0.81" style="fill:#8368cf"/><circle cx="1262.52" cy="1459.05" r="0.81" style="fill:#8368cf"/><circle cx="1275.49" cy="1517.47" r="0.81" style="fill:#8368cf"/><circle cx="1342.33" cy="1514.13" r="0.81" style="fill:#8368cf"/><circle cx="1277.11" cy="1957.47" r="0.81" style="fill:#8368cf"/><circle cx="1305.29" cy="1834.04" r="0.81" style="fill:#8368cf"/><circle cx="1295.56" cy="1896.93" r="0.81" style="fill:#8368cf"/><circle cx="1320.66" cy="1667.77" r="0.81" style="fill:#8368cf"/><circle cx="1359.84" cy="1882.35" r="0.81" style="fill:#8368cf"/><path d="M1352.4,2474.78l-.13,0,.86-.12h-.36l.87.12a1.89,1.89,0,0,1-.34-.09l.78.32a1.57,1.57,0,0,1-.38-.22l.65.51a2.81,2.81,0,0,1-.34-.35l.51.65a2.47,2.47,0,0,1-.31-.52l.33.78a2.72,2.72,0,0,1-.17-.62l.12.87a1.88,1.88,0,0,1,0-.53l-.11.87a1.6,1.6,0,0,1,.11-.43l-.33.78a1.49,1.49,0,0,1,.18-.3l-.51.65a2,2,0,0,1,.25-.25l-.65.51a1.49,1.49,0,0,1,.3-.18l-.77.33a2,2,0,0,1,.33-.09l-.86.12a1.15,1.15,0,0,1,.37,0l-.87-.12a1.62,1.62,0,0,1,.43.12l-.78-.33a1.86,1.86,0,0,1,.49.29l-.66-.51a2.29,2.29,0,0,1,.44.44l-.51-.66a3,3,0,0,1,.29.49l-.33-.77a1.69,1.69,0,0,1,.14.5l-.11-.87a1.87,1.87,0,0,1,0,.41l.12-.86a2.42,2.42,0,0,1-.1.36l.32-.78a1.49,1.49,0,0,1-.18.3l.51-.65,0,0a2.48,2.48,0,0,0-.68,1.05,3,3,0,0,0,0,2.51,2.39,2.39,0,0,0,.68,1,3.28,3.28,0,0,0,2.29,1l.87-.12a3.2,3.2,0,0,0,1.43-.84,6.82,6.82,0,0,0,.65-.85,6,6,0,0,0,.42-1,4,4,0,0,0,.21-1.33,5.1,5.1,0,0,0-.08-.67,5.16,5.16,0,0,0-.1-.67l-.09-.25a8.56,8.56,0,0,0-.43-1,1.76,1.76,0,0,0-.14-.23,10.74,10.74,0,0,0-.66-.85,6.39,6.39,0,0,0-1-.85,2.4,2.4,0,0,0-.46-.27,7.56,7.56,0,0,0-1-.4,8,8,0,0,0-1.08-.16h-.37c-.32,0-.65.07-1,.14a3.56,3.56,0,0,0-.62.23,4.85,4.85,0,0,0-.61.29,4.13,4.13,0,0,0-1,.82,4.72,4.72,0,0,0-1,1.79,4.92,4.92,0,0,0-.22,1.3,5.85,5.85,0,0,0,.13,1.32,2.07,2.07,0,0,0,.12.49c.12.33.26.66.41,1l.12.23c.12.19.27.37.41.55a5.15,5.15,0,0,0,.43.52,4.43,4.43,0,0,0,1.06.82,4.09,4.09,0,0,0,1.24.48,4.85,4.85,0,0,0,2.24,0,2.48,2.48,0,0,0,1.11-.58,3.35,3.35,0,0,0,1.16-3.42l-.33-.77a3.33,3.33,0,0,0-1.16-1.17l-.78-.33a3.38,3.38,0,0,0-1.73,0Z" style="fill:#8368cf"/><path d="M1360.15,2416.31l-.14,0,.87-.12a1.09,1.09,0,0,1-.36,0l.86.12a2,2,0,0,1-.33-.09l.77.32a1.63,1.63,0,0,1-.38-.22l.66.51a2.24,2.24,0,0,1-.34-.35l.51.66a2.37,2.37,0,0,1-.31-.53l.33.78a2.58,2.58,0,0,1-.17-.62l.11.87a2.35,2.35,0,0,1,0-.53l-.12.87a1.62,1.62,0,0,1,.12-.43l-.33.78a1.46,1.46,0,0,1,.17-.3l-.5.66a1.23,1.23,0,0,1,.25-.26l-.66.51a1.92,1.92,0,0,1,.31-.18l-.78.33a1.89,1.89,0,0,1,.34-.09l-.87.12a1.15,1.15,0,0,1,.37,0l-.86-.12a1.62,1.62,0,0,1,.43.12l-.78-.33a1.86,1.86,0,0,1,.49.29l-.66-.51a2.24,2.24,0,0,1,.43.44l-.51-.66a2.48,2.48,0,0,1,.3.49l-.33-.77a1.78,1.78,0,0,1,.14.5l-.12-.86a1.79,1.79,0,0,1,0,.4l.11-.86a1.61,1.61,0,0,1-.1.36l.33-.78a1.49,1.49,0,0,1-.18.3l.51-.65,0,0a2.37,2.37,0,0,0-.67,1,3,3,0,0,0,0,2.51,2.37,2.37,0,0,0,.67,1,3.26,3.26,0,0,0,2.3,1l.87-.12a3.16,3.16,0,0,0,1.43-.84,5.91,5.91,0,0,0,.64-.85,6.07,6.07,0,0,0,.43-1,4,4,0,0,0,.2-1.33,3.81,3.81,0,0,0-.07-.67,5.2,5.2,0,0,0-.11-.67c0-.08-.05-.16-.08-.25-.14-.32-.26-.67-.43-1a1.82,1.82,0,0,0-.15-.23,10.61,10.61,0,0,0-.65-.85,6.47,6.47,0,0,0-1-.85,2.32,2.32,0,0,0-.46-.27,8.48,8.48,0,0,0-1-.4,7.59,7.59,0,0,0-1.08-.16h-.37c-.32,0-.65.07-1,.14a2.57,2.57,0,0,0-.62.24,3.46,3.46,0,0,0-.62.28,4.33,4.33,0,0,0-1,.82,4.87,4.87,0,0,0-1,1.79,5.34,5.34,0,0,0-.21,1.3,5.28,5.28,0,0,0,.13,1.32,2.07,2.07,0,0,0,.12.49c.12.33.26.66.41,1a2.53,2.53,0,0,0,.12.23c.12.19.27.37.4.55s.27.37.43.53a4.94,4.94,0,0,0,1.07.81,4.17,4.17,0,0,0,1.24.49,4.85,4.85,0,0,0,2.24,0,2.39,2.39,0,0,0,1.1-.58,2.45,2.45,0,0,0,.84-.91,2.41,2.41,0,0,0,.39-1.21,2.61,2.61,0,0,0-.06-1.3l-.33-.77a3.28,3.28,0,0,0-1.17-1.17l-.77-.33a3.38,3.38,0,0,0-1.73,0Z" style="fill:#8368cf"/><path d="M1349,3038.39l-.13,0,.86-.12a1.09,1.09,0,0,1-.36,0l.87.12a1.89,1.89,0,0,1-.34-.09l.78.33a1.83,1.83,0,0,1-.38-.23l.66.51a1.93,1.93,0,0,1-.35-.35l.51.66a2.5,2.5,0,0,1-.3-.53l.32.78a2.58,2.58,0,0,1-.17-.62l.12.87a2.35,2.35,0,0,1,0-.53l-.11.87a2.09,2.09,0,0,1,.11-.43l-.32.78a1.11,1.11,0,0,1,.17-.3l-.51.66a1.23,1.23,0,0,1,.26-.25l-.66.5a1.17,1.17,0,0,1,.31-.17l-.78.32a2,2,0,0,1,.33-.09l-.86.12a1.15,1.15,0,0,1,.37,0l-.86-.12a1.55,1.55,0,0,1,.42.12l-.77-.33a2.36,2.36,0,0,1,.48.29l-.65-.51a2.56,2.56,0,0,1,.43.44l-.51-.66a1.92,1.92,0,0,1,.29.5l-.32-.78a2.85,2.85,0,0,1,.14.5l-.12-.86a1.34,1.34,0,0,1,0,.4l.12-.86a1.61,1.61,0,0,1-.1.36l.33-.78a1.44,1.44,0,0,1-.19.31l.51-.66,0,0a3.14,3.14,0,0,0-.67,3.55,2.46,2.46,0,0,0,.67,1,3.3,3.3,0,0,0,2.3,1l.86-.12a3.27,3.27,0,0,0,1.44-.83,7.67,7.67,0,0,0,.64-.86,6.61,6.61,0,0,0,.43-1,4.25,4.25,0,0,0,.2-1.33c0-.22-.05-.45-.07-.67a4.78,4.78,0,0,0-.11-.66,1.06,1.06,0,0,0-.09-.25,7.22,7.22,0,0,0-.43-1,1.76,1.76,0,0,0-.14-.23,8.94,8.94,0,0,0-.65-.84,6,6,0,0,0-1-.86,2.35,2.35,0,0,0-.46-.26,9.23,9.23,0,0,0-1-.41,7.81,7.81,0,0,0-1.08-.16h-.25l-.12,0a8.06,8.06,0,0,0-1,.13,3.61,3.61,0,0,0-.62.24,3.71,3.71,0,0,0-.61.28,4.6,4.6,0,0,0-1,.82,4.85,4.85,0,0,0-1,1.79,5.36,5.36,0,0,0-.22,1.3,6.42,6.42,0,0,0,.13,1.32,3.89,3.89,0,0,0,.12.49c.12.34.27.66.42,1a1.63,1.63,0,0,0,.11.23c.12.19.27.37.41.55a5.52,5.52,0,0,0,.43.53,4.5,4.5,0,0,0,1.07.81,4.22,4.22,0,0,0,1.23.49,5,5,0,0,0,2.24,0,3.72,3.72,0,0,0,2-1.5,2.5,2.5,0,0,0,.38-1.21,2.36,2.36,0,0,0-.06-1.29l-.32-.78a3.28,3.28,0,0,0-1.17-1.17l-.78-.33a3.38,3.38,0,0,0-1.73,0Z" style="fill:#8368cf"/><circle cx="1267.34" cy="2471.91" r="0.81" style="fill:#8368cf"/><circle cx="1280.31" cy="2530.33" r="0.81" style="fill:#8368cf"/><circle cx="1347.15" cy="2526.99" r="0.81" style="fill:#8368cf"/><circle cx="1281.93" cy="2970.34" r="0.81" style="fill:#8368cf"/><circle cx="1300.38" cy="2909.79" r="0.81" style="fill:#8368cf"/><circle cx="1364.66" cy="2895.22" r="0.81" style="fill:#8368cf"/><path d="M1333.64,2745.31a20.26,20.26,0,1,1-20.26-20.25A20.26,20.26,0,0,1,1333.64,2745.31Zm-20.26-19.91a19.91,19.91,0,1,0,19.91,19.91A19.92,19.92,0,0,0,1313.38,2725.4Z" style="fill:#8368cf"/><path d="M1288.19,2704.85a10.13,10.13,0,1,1-10.13-10.12A10.12,10.12,0,0,1,1288.19,2704.85Zm-10.13-9.95a10,10,0,1,0,10,9.95A10,10,0,0,0,1278.06,2694.9Z" style="fill:#8368cf"/><path d="M1328.62,2642.83a10.13,10.13,0,1,1-10.13-10.12A10.13,10.13,0,0,1,1328.62,2642.83Zm-10.13-9.95a10,10,0,1,0,10,9.95A10,10,0,0,0,1318.49,2632.88Z" style="fill:#8368cf"/><circle cx="1296.38" cy="2694.73" r="0.81" style="fill:#8368cf"/><circle cx="1278.87" cy="2651.6" r="0.81" style="fill:#8368cf"/><circle cx="1333.64" cy="2705.66" r="0.81" style="fill:#8368cf"/><path d="M50.88,1846l-.14,0,.87-.11a1.45,1.45,0,0,1-.36,0l.86.12-.33-.09.78.33a1.6,1.6,0,0,1-.38-.23l.65.51a1.88,1.88,0,0,1-.34-.35l.51.66a2.31,2.31,0,0,1-.31-.52l.33.77a2.51,2.51,0,0,1-.17-.61l.12.86a1.81,1.81,0,0,1,0-.52l-.12.86a2.11,2.11,0,0,1,.12-.43l-.33.78a1.83,1.83,0,0,1,.18-.3l-.51.66a1.48,1.48,0,0,1,.25-.25l-.66.51a1.92,1.92,0,0,1,.31-.18l-.77.33a.9.9,0,0,1,.33-.09l-.86.11h.37l-.87-.11a2.09,2.09,0,0,1,.43.11l-.78-.33a2.64,2.64,0,0,1,.49.29l-.66-.51a3.05,3.05,0,0,1,.44.44l-.51-.66a3.1,3.1,0,0,1,.29.5l-.33-.78a1.78,1.78,0,0,1,.14.5l-.11-.86a2.81,2.81,0,0,1,0,.41l.11-.87a1.14,1.14,0,0,1-.1.36l.33-.78a1.92,1.92,0,0,1-.18.31l.51-.66,0,0a3.14,3.14,0,0,0-.67,3.55,2.49,2.49,0,0,0,.67,1,3.27,3.27,0,0,0,2.3,1l.87-.12a3.18,3.18,0,0,0,1.43-.83,7.64,7.64,0,0,0,.65-.85,6,6,0,0,0,.42-1,3.77,3.77,0,0,0,.2-1.33,3.62,3.62,0,0,0-.07-.67,5.16,5.16,0,0,0-.1-.67l-.09-.25a9.56,9.56,0,0,0-.43-1c0-.08-.09-.15-.14-.23q-.31-.43-.66-.84a6,6,0,0,0-1-.86,2.51,2.51,0,0,0-.45-.26,7.56,7.56,0,0,0-1-.4,6.71,6.71,0,0,0-1.08-.16,1.13,1.13,0,0,0-.26,0H50.9a7.8,7.8,0,0,0-1,.13,4.6,4.6,0,0,0-2.23,1.34,4.87,4.87,0,0,0-1,1.79,5.16,5.16,0,0,0-.08,2.63,2.19,2.19,0,0,0,.12.49c.12.33.26.66.41,1l.12.22a5.61,5.61,0,0,0,.41.55,5.43,5.43,0,0,0,.42.53,5,5,0,0,0,1.07.82,4.56,4.56,0,0,0,1.24.48,5,5,0,0,0,2.24,0,2.49,2.49,0,0,0,1.1-.58,2.4,2.4,0,0,0,.84-.92,2.37,2.37,0,0,0,.39-1.2,2.6,2.6,0,0,0-.06-1.3l-.33-.78a3.22,3.22,0,0,0-1.16-1.16l-.78-.33a3.18,3.18,0,0,0-1.73,0Z" style="fill:#8368cf"/><path d="M113.29,1622.75l-.14,0,.87-.11h-.36l.86.11-.33-.09.77.33a1.68,1.68,0,0,1-.38-.23l.66.51a1.88,1.88,0,0,1-.34-.35l.5.66a2.7,2.7,0,0,1-.3-.52l.33.77a2.13,2.13,0,0,1-.17-.61l.11.86a2.26,2.26,0,0,1,0-.52l-.12.86a1.73,1.73,0,0,1,.12-.43l-.33.78a2.28,2.28,0,0,1,.17-.3l-.51.66a1.54,1.54,0,0,1,.26-.25l-.66.51a1.92,1.92,0,0,1,.31-.18l-.78.33a1,1,0,0,1,.34-.09l-.87.11h.37l-.86-.11a2.09,2.09,0,0,1,.43.11l-.78-.33a3,3,0,0,1,.49.29l-.66-.51a3,3,0,0,1,.43.44l-.51-.66a2.55,2.55,0,0,1,.3.5l-.33-.78a2.13,2.13,0,0,1,.14.51l-.12-.87a1.41,1.41,0,0,1,0,.41l.12-.87a1.36,1.36,0,0,1-.1.36l.33-.78a1.92,1.92,0,0,1-.18.31l.5-.66,0,0a2.4,2.4,0,0,0-.67,1,2.93,2.93,0,0,0,0,2.5,2.4,2.4,0,0,0,.67,1,3.25,3.25,0,0,0,2.3,1l.86-.11a3.33,3.33,0,0,0,1.44-.84,6.52,6.52,0,0,0,.64-.85,7.1,7.1,0,0,0,.43-1,4.29,4.29,0,0,0,.2-1.33,4.9,4.9,0,0,0-.07-.67,5.2,5.2,0,0,0-.11-.67,1.83,1.83,0,0,0-.08-.25c-.14-.33-.26-.67-.43-1,0-.08-.09-.15-.15-.23-.2-.28-.42-.57-.65-.84a6,6,0,0,0-1-.86,2.28,2.28,0,0,0-.46-.26,7,7,0,0,0-1-.4,6.54,6.54,0,0,0-1.08-.16,1,1,0,0,0-.25,0h-.12c-.32,0-.65.07-1,.13a3.8,3.8,0,0,0-.62.24,3.69,3.69,0,0,0-1.61,1.1,4.74,4.74,0,0,0-1,1.79,5,5,0,0,0-.21,1.3A5.93,5.93,0,0,0,109,1625a3,3,0,0,0,.13.49c.12.33.26.66.41,1a1.19,1.19,0,0,0,.12.22,4.29,4.29,0,0,0,.4.55,5.52,5.52,0,0,0,.43.53,5,5,0,0,0,1.07.82,4.44,4.44,0,0,0,1.24.48,4.94,4.94,0,0,0,2.23,0,2.47,2.47,0,0,0,1.11-.58,2.57,2.57,0,0,0,.84-.92,2.36,2.36,0,0,0,.38-1.2,2.49,2.49,0,0,0,0-1.3l-.33-.78a3.18,3.18,0,0,0-1.17-1.16l-.78-.33a3.14,3.14,0,0,0-1.72,0Z" style="fill:#8368cf"/><circle cx="75.98" cy="1974.09" r="0.81" style="fill:#8368cf"/><circle cx="39.22" cy="1674.93" r="0.81" style="fill:#8368cf"/><circle cx="52.19" cy="1733.35" r="0.81" style="fill:#8368cf"/><circle cx="119.03" cy="1730.01" r="0.81" style="fill:#8368cf"/><circle cx="81.99" cy="2049.92" r="0.81" style="fill:#8368cf"/><circle cx="97.35" cy="1883.66" r="0.81" style="fill:#8368cf"/><path d="M134.51,2475.52l-.14,0,.87-.12a2.16,2.16,0,0,1-.36,0l.86.12a2,2,0,0,1-.33-.09l.77.32a1.63,1.63,0,0,1-.38-.22l.66.51a2.24,2.24,0,0,1-.34-.35l.51.66a2.37,2.37,0,0,1-.31-.53l.33.78a2.72,2.72,0,0,1-.17-.62l.11.87a2.35,2.35,0,0,1,0-.53l-.12.87a1.62,1.62,0,0,1,.12-.43l-.33.78a1.46,1.46,0,0,1,.17-.3l-.5.65a1.48,1.48,0,0,1,.25-.25l-.66.51a1.92,1.92,0,0,1,.31-.18l-.78.33a1.89,1.89,0,0,1,.34-.09l-.87.12a1.15,1.15,0,0,1,.37,0l-.86-.12a1.62,1.62,0,0,1,.43.12l-.78-.33a1.86,1.86,0,0,1,.49.29l-.66-.51a2.24,2.24,0,0,1,.43.44l-.51-.66a2.48,2.48,0,0,1,.3.49l-.33-.77a1.78,1.78,0,0,1,.14.5l-.12-.87a1.88,1.88,0,0,1,0,.41l.11-.86a1.61,1.61,0,0,1-.1.36l.33-.78a1.49,1.49,0,0,1-.18.3l.51-.65,0,0a3.16,3.16,0,0,0-.67,3.56,2.37,2.37,0,0,0,.67,1,3.31,3.31,0,0,0,2.3,1l.87-.12a3.25,3.25,0,0,0,1.43-.84,5.91,5.91,0,0,0,.64-.85,6.07,6.07,0,0,0,.43-1,4,4,0,0,0,.2-1.33,3.81,3.81,0,0,0-.07-.67,5.2,5.2,0,0,0-.11-.67c0-.08,0-.16-.08-.25-.14-.33-.26-.67-.43-1a1.82,1.82,0,0,0-.15-.23,10.61,10.61,0,0,0-.65-.85,6.47,6.47,0,0,0-1-.85,1.92,1.92,0,0,0-.46-.27,7,7,0,0,0-1-.4,7.59,7.59,0,0,0-1.08-.16h-.37c-.32,0-.65.07-1,.14a3,3,0,0,0-.62.23,4.39,4.39,0,0,0-.62.29,4.08,4.08,0,0,0-1,.82,4.87,4.87,0,0,0-1,1.79,5.13,5.13,0,0,0-.08,2.62,2.07,2.07,0,0,0,.12.49c.12.33.26.66.41,1a2.53,2.53,0,0,0,.12.23c.12.19.27.37.4.55s.27.36.43.52a4.69,4.69,0,0,0,1.07.82,3.9,3.9,0,0,0,1.24.48,4.85,4.85,0,0,0,2.24,0,2.39,2.39,0,0,0,1.1-.58,2.45,2.45,0,0,0,.84-.91,2.41,2.41,0,0,0,.39-1.21,2.61,2.61,0,0,0-.06-1.3l-.33-.77a3.28,3.28,0,0,0-1.17-1.17l-.77-.33a3.38,3.38,0,0,0-1.73,0Z" style="fill:#8368cf"/><path d="M76.24,2387.3l-.13,0,.86-.11h-.36l.87.11a1,1,0,0,1-.34-.09l.78.33a1.79,1.79,0,0,1-.38-.22l.66.5a1.93,1.93,0,0,1-.35-.35l.51.66a2.43,2.43,0,0,1-.3-.52l.32.78a2.72,2.72,0,0,1-.17-.62l.12.86a2.26,2.26,0,0,1,0-.52l-.11.86a1.53,1.53,0,0,1,.11-.42l-.33.77a2.38,2.38,0,0,1,.18-.3l-.51.66a1.54,1.54,0,0,1,.26-.25l-.66.51a1.57,1.57,0,0,1,.31-.18l-.78.33a2,2,0,0,1,.33-.09l-.86.11a2.28,2.28,0,0,1,.37,0l-.87-.11a2.09,2.09,0,0,1,.43.11l-.77-.32a2.31,2.31,0,0,1,.48.28l-.65-.51a3,3,0,0,1,.43.44l-.51-.66a2.5,2.5,0,0,1,.29.5l-.33-.78a2.29,2.29,0,0,1,.15.51l-.12-.87a1.41,1.41,0,0,1,0,.41l.12-.87a1.36,1.36,0,0,1-.1.36l.33-.77a1.17,1.17,0,0,1-.19.3l.51-.66,0,0a2.58,2.58,0,0,0-.68,1.05,2.93,2.93,0,0,0,0,2.5,2.45,2.45,0,0,0,.68,1,3.25,3.25,0,0,0,2.3,1L79,2393a3.39,3.39,0,0,0,1.44-.84,7.56,7.56,0,0,0,.64-.85,6,6,0,0,0,.42-1,4,4,0,0,0,.21-1.33c0-.22-.05-.45-.07-.67a5.2,5.2,0,0,0-.11-.67,1.25,1.25,0,0,0-.09-.25,7.1,7.1,0,0,0-.43-1,1.76,1.76,0,0,0-.14-.23c-.21-.29-.42-.58-.65-.85a6.94,6.94,0,0,0-1-.85,2.4,2.4,0,0,0-.46-.27,7.56,7.56,0,0,0-1-.4,6.54,6.54,0,0,0-1.08-.16h-.37c-.32,0-.65.07-1,.13a4.67,4.67,0,0,0-.62.24,4.78,4.78,0,0,0-.61.28,4.6,4.6,0,0,0-1,.82,4.89,4.89,0,0,0-1,1.8,5.37,5.37,0,0,0-.22,1.29,6.59,6.59,0,0,0,.13,1.33,2.7,2.7,0,0,0,.12.49c.12.33.27.66.41,1l.12.22a5.61,5.61,0,0,0,.41.55,5.52,5.52,0,0,0,.43.53,4.29,4.29,0,0,0,1.07.82,3.94,3.94,0,0,0,1.23.48,5,5,0,0,0,2.24,0,2.48,2.48,0,0,0,1.11-.58,2.5,2.5,0,0,0,.83-.91,2.44,2.44,0,0,0,.39-1.21,2.4,2.4,0,0,0-.06-1.3l-.33-.78a3.15,3.15,0,0,0-1.16-1.16l-.78-.33a3.18,3.18,0,0,0-1.73,0Z" style="fill:#8368cf"/><path d="M113.5,2981.48l-.13,0,.86-.11a2.16,2.16,0,0,1-.36,0l.87.11a1.89,1.89,0,0,1-.34-.09l.78.33a1.48,1.48,0,0,1-.38-.23l.66.51a2.32,2.32,0,0,1-.35-.35l.51.66a2.7,2.7,0,0,1-.3-.52l.32.77a2.51,2.51,0,0,1-.17-.61l.12.86a2.26,2.26,0,0,1,0-.52l-.11.86a2.09,2.09,0,0,1,.11-.43l-.32.78a1.28,1.28,0,0,1,.17-.3l-.51.66a1.54,1.54,0,0,1,.26-.25l-.66.51a1.57,1.57,0,0,1,.31-.18l-.78.33a1,1,0,0,1,.33-.09l-.86.11h.37l-.86-.11a2,2,0,0,1,.42.11l-.77-.33a2.92,2.92,0,0,1,.48.29l-.65-.51a3,3,0,0,1,.43.44l-.51-.66a2.1,2.1,0,0,1,.29.5l-.32-.78a2.85,2.85,0,0,1,.14.5l-.12-.86a1.41,1.41,0,0,1,0,.41l.12-.87a1.48,1.48,0,0,1-.1.36l.33-.78a1.44,1.44,0,0,1-.19.31l.51-.66,0,0a3.14,3.14,0,0,0-.67,3.55,2.4,2.4,0,0,0,.67,1.05,3.25,3.25,0,0,0,2.3.95l.86-.12a3.27,3.27,0,0,0,1.44-.83,7.56,7.56,0,0,0,.64-.85,7.1,7.1,0,0,0,.43-1,4.29,4.29,0,0,0,.2-1.33,4.74,4.74,0,0,0-.07-.67,5.2,5.2,0,0,0-.11-.67,1.06,1.06,0,0,0-.09-.25,7.8,7.8,0,0,0-.43-1c0-.08-.09-.15-.14-.23-.2-.28-.42-.57-.65-.84a6,6,0,0,0-1-.86,3,3,0,0,0-.46-.26,7.56,7.56,0,0,0-1-.4,6.54,6.54,0,0,0-1.08-.16,1,1,0,0,0-.25,0h-.12c-.32,0-.65.07-1,.13a4.67,4.67,0,0,0-.62.24,4.78,4.78,0,0,0-.61.28,4.6,4.6,0,0,0-1,.82,4.85,4.85,0,0,0-1,1.79,5.44,5.44,0,0,0-.22,1.3,6.59,6.59,0,0,0,.13,1.33,4.37,4.37,0,0,0,.12.49c.12.33.27.66.42,1a2.26,2.26,0,0,0,.11.22,5.61,5.61,0,0,0,.41.55,5.52,5.52,0,0,0,.43.53,4.54,4.54,0,0,0,1.07.82,4.5,4.5,0,0,0,1.23.48,5,5,0,0,0,2.24,0,2.52,2.52,0,0,0,1.11-.58,2.57,2.57,0,0,0,.84-.92,2.46,2.46,0,0,0,.38-1.2,2.4,2.4,0,0,0-.06-1.3l-.32-.78a3.18,3.18,0,0,0-1.17-1.16l-.78-.33a3.18,3.18,0,0,0-1.73,0Z" style="fill:#8368cf"/><circle cx="49.45" cy="2472.65" r="0.81" style="fill:#8368cf"/><circle cx="61.61" cy="2592.89" r="0.81" style="fill:#8368cf"/><circle cx="129.26" cy="2527.73" r="0.81" style="fill:#8368cf"/><circle cx="64.49" cy="3040.2" r="0.81" style="fill:#8368cf"/><circle cx="70.71" cy="2847.52" r="0.81" style="fill:#8368cf"/><circle cx="139.94" cy="2895.15" r="0.81" style="fill:#8368cf"/><circle cx="1278.42" cy="895.95" r="0.81" style="fill:#8368cf"/><circle cx="1267.01" cy="1013.87" r="0.81" style="fill:#8368cf"/><circle cx="1364.99" cy="803.08" r="0.81" style="fill:#8368cf"/><circle cx="1288.01" cy="781.62" r="0.81" style="fill:#8368cf"/><circle cx="1343.21" cy="939.98" r="0.81" style="fill:#8368cf"/><circle cx="1363.65" cy="1171.79" r="0.81" style="fill:#8368cf"/><circle cx="1317.16" cy="1210.47" r="0.81" style="fill:#8368cf"/><circle cx="1167.15" cy="1971.58" r="0.81" style="fill:#8368cf"/><circle cx="1121.4" cy="1944.99" r="0.81" style="fill:#8368cf"/><circle cx="1067.99" cy="1967.35" r="0.81" style="fill:#8368cf"/><circle cx="1183.18" cy="2500.85" r="0.81" style="fill:#8368cf"/><circle cx="1120.59" cy="2454.13" r="0.81" style="fill:#8368cf"/><circle cx="1084.02" cy="2496.61" r="0.81" style="fill:#8368cf"/><circle cx="1185.61" cy="2384.4" r="0.81" style="fill:#8368cf"/><circle cx="1157.39" cy="2437.71" r="0.81" style="fill:#8368cf"/><circle cx="1091.66" cy="2388.29" r="0.81" style="fill:#8368cf"/><circle cx="1327.19" cy="2416.51" r="0.81" style="fill:#8368cf"/><circle cx="1281.44" cy="2389.91" r="0.81" style="fill:#8368cf"/><circle cx="1228.02" cy="2412.27" r="0.81" style="fill:#8368cf"/><circle cx="216.22" cy="2798.79" r="0.81" style="fill:#8368cf"/><circle cx="196.39" cy="2939.19" r="0.81" style="fill:#8368cf"/><circle cx="251.48" cy="2956.12" r="0.81" style="fill:#8368cf"/><circle cx="188.81" cy="2861.38" r="0.81" style="fill:#8368cf"/><circle cx="314.36" cy="2927.29" r="0.81" style="fill:#8368cf"/><circle cx="348.83" cy="2881.1" r="0.81" style="fill:#8368cf"/><rect x="326.12" y="449.74" width="1.79" height="1275.78" style="fill:#20c9ac"/><rect x="326.12" y="1725.52" width="1.79" height="1243.92" style="fill:#20c9ac"/><path d="M350.19,1348.4l-16.61-2.89a7.21,7.21,0,0,0-4.06-4.18L327,1325.22l-2.59,16,.16,0a7.2,7.2,0,0,0-4.62,4.7l-16.12,2.51,16.56,2.94v-.06a7.26,7.26,0,0,0,4.16,3.58l-.14,0,2.59,16.69,2.64-16.89a7.27,7.27,0,0,0,3.84-3.85v.15Z" style="fill:#20c9ac"/></svg>