<svg xmlns="http://www.w3.org/2000/svg" viewBox="0 0 129.12 50.64"><defs><style>.cls-1{fill:#8368cf;}.cls-2{fill:#20c9ac;}.cls-3{fill:#081329;}.cls-4{fill:none;stroke:#20c9ac;stroke-miterlimit:10;}</style></defs><g id="menú"><g id="logo"><path class="cls-1" d="M56.44,41.85V28.36q0-7.16-6.45-7.16a6.09,6.09,0,0,0-4.81,1.86,7.3,7.3,0,0,0-1.69,5.08V41.85H41.25V19.29h2.24V22Q45,19,50,19a8.38,8.38,0,0,1,6.45,2.4,9.49,9.49,0,0,1,2.24,6.72V41.85Z"/><path class="cls-1" d="M86.51,41.85,74.71,30.11l-1.26,1.25V41.85H71.21V1.43h2.24V28.14l9.78-9.72H86.4L76.18,28.58,89.46,41.85Z"/><path class="cls-1" d="M115.36,41.59l.55-3.88A13.18,13.18,0,0,1,106.29,42a9.73,9.73,0,0,1-7.81-3.34,10.13,10.13,0,0,1-2.19-8.3,13,13,0,0,1,4.54-8.25,12.92,12.92,0,0,1,8.74-3.39A9.79,9.79,0,0,1,118,23l.55-3.93h2.24L117.6,41.59Zm.16-17.92a7.9,7.9,0,0,0-6.28-2.78,10.53,10.53,0,0,0-7,2.73,10.86,10.86,0,0,0-3.71,6.72A8.06,8.06,0,0,0,100.33,37a7.82,7.82,0,0,0,6.29,2.79,10.57,10.57,0,0,0,7-2.73,10.86,10.86,0,0,0,3.71-6.72A8.13,8.13,0,0,0,115.52,23.67Z"/><path class="cls-2" d="M20.27,31.89c-1-10.07,8.11-14.2,11.71-15.42a15.4,15.4,0,1,0-5.67,29.72A15.48,15.48,0,0,0,32.18,45C20.12,42.3,20.27,31.89,20.27,31.89Z"/><path class="cls-2" d="M30.85,40.87,30,40.72a.33.33,0,0,0-.2-.2l-.12-.8-.13.79h0a.36.36,0,0,0-.22.23l-.8.13.82.14h0a.35.35,0,0,0,.2.18h0l.13.82.13-.83A.44.44,0,0,0,30,41h0Z"/><path class="cls-3" d="M21.35,17.15a12.6,12.6,0,0,0-6.74,5.32c-.18.28.28.54.45.26a13.57,13.57,0,0,1,6.33-5.48.05.05,0,0,0,0-.1Z"/><path class="cls-3" d="M14.23,24a.22.22,0,0,0,.16,0,.35.35,0,0,0,.13-.08.25.25,0,0,0,.08-.14.26.26,0,0,0,0-.15l0-.11a.32.32,0,0,0-.1-.18.45.45,0,0,0-.29-.12.26.26,0,0,0-.15,0,.22.22,0,0,0-.13.08.38.38,0,0,0-.09.13.29.29,0,0,0,0,.16v.11a.44.44,0,0,0,.11.18.39.39,0,0,0,.28.11Z"/><path class="cls-3" d="M13.24,24.71a5.15,5.15,0,0,0-.87,1.85.23.23,0,0,0,.45.12,13.79,13.79,0,0,1,.62-1.88c.06-.13-.13-.18-.2-.09Z"/><path class="cls-3" d="M18.85,32.89a15.37,15.37,0,0,0,2.6,7.39c.21.34.75,0,.53-.31a18,18,0,0,1-3-7.1.08.08,0,0,0-.16,0Z"/><path class="cls-3" d="M22.29,41.11a6.28,6.28,0,0,0,1.41,1.36c.31.22.62-.31.3-.52a17.45,17.45,0,0,1-1.49-1.06c-.13-.09-.31.1-.22.22Z"/><path class="cls-3" d="M25,42.4h0l.13.17a.32.32,0,0,0-.1-.18.28.28,0,0,0-.11-.08.32.32,0,0,0-.14,0,.34.34,0,0,0-.25.11.28.28,0,0,0-.08.11.32.32,0,0,0,0,.14.38.38,0,0,0,.11.25.41.41,0,0,0,.25.11l.1,0a.34.34,0,0,0,.12-.06.28.28,0,0,0,.09-.1.21.21,0,0,0,0-.11l-.13.17h0a.27.27,0,0,0,0-.46Z"/><path class="cls-2" d="M31.54,17.74l.07,0,.07-.08a.35.35,0,0,0,0-.14l0,.12a.3.3,0,0,0,0-.08.25.25,0,0,0,0-.12.19.19,0,0,0-.14-.15.24.24,0,0,0-.12,0,.2.2,0,0,0-.08,0l.12,0h-.08l-.06,0-.08.07-.05.07,0,.05a.14.14,0,0,0,0,.09.2.2,0,0,0,.06.14l.1.06a.17.17,0,0,0,.1,0,.11.11,0,0,0,.08,0Z"/><path class="cls-2" d="M18.73,45.52a12.88,12.88,0,0,0,8.94,1.87c.14,0,.1-.24,0-.24a17.46,17.46,0,0,1-8.88-1.69s-.08,0,0,.06Z"/><path class="cls-2" d="M29.16,47.37a.26.26,0,0,0,.17-.07.27.27,0,0,0,0-.36.28.28,0,0,0-.17-.07.27.27,0,0,0-.18.07.26.26,0,0,0-.07.18.24.24,0,0,0,.07.18.29.29,0,0,0,.18.07Z"/><path class="cls-2" d="M30.69,46.48l.49-.12a.76.76,0,0,0,.4-.13.08.08,0,0,0,0-.12c-.14,0-.28,0-.41.1l-.48.16a.06.06,0,1,0,0,.11Z"/><path class="cls-2" d="M27.68,14.58l0,0a.14.14,0,0,0,0,.14v-.09h0a.19.19,0,0,0,.09.2.33.33,0,0,0,.22,0c.17,0,.16-.29,0-.34h-.05a.17.17,0,0,0-.21,0h0l.15,0h0a.08.08,0,0,0-.07,0,.09.09,0,0,0-.07,0Z"/><path class="cls-2" d="M29,14.87a.65.65,0,0,0,.44.14c.25,0,.5.06.75.11a.18.18,0,0,0,.22-.12V15a.18.18,0,0,0-.18-.18c-.23,0-.46,0-.69,0a.86.86,0,0,0-.53,0,.06.06,0,0,0,0,.1Z"/><ellipse class="cls-4" cx="18" cy="30.88" rx="16.45" ry="2.12" transform="translate(-7.2 5.53) rotate(-14.59)"/><path class="cls-2" d="M123.47,10.36s.3,4.24-2.7,4.19c0,0,2.75.27,3.07,4.17,0,0-.32-3.9,2.67-4.07A4.57,4.57,0,0,1,123.47,10.36Z"/></g></g></svg>